<svg id="Layer_1" data-name="Layer 1" xmlns="http://www.w3.org/2000/svg" width="1920" height="1080" viewBox="0 0 1920 1080"><defs><style>.cls-1{fill:#c69c6d;}.cls-2{fill:#8c6239;}.cls-3{fill:#860000;}.cls-4{fill:#006c3b;}.cls-5{fill:#b49400;}.cls-6{fill:#935600;}.cls-7{fill:#223c4f;}.cls-8,.cls-9{fill:#864844;}.cls-9{stroke:#000;stroke-miterlimit:10;}.cls-10{fill:#a67c52;}</style></defs><title>Baggrund</title><rect class="cls-1" y="3" width="1916" height="1083"/><polygon class="cls-2" points="1919 1080 1408 1080 1408 644 1919 780 1919 1080"/><polygon class="cls-3" points="1432 755 1408 748 1408 644 1432 650 1432 755"/><polygon class="cls-3" points="1696 1071 1672 1061 1672 964 1696 970 1696 1071"/><polygon class="cls-3" points="1594 1044 1570 1037 1570 933 1594 939 1594 1044"/><polygon class="cls-3" points="1708 950 1684 943 1684 839 1708 845 1708 950"/><polygon class="cls-3" points="1612 922 1588 915 1588 811 1612 817 1612 922"/><polygon class="cls-3" points="1899 1003 1875 996 1875 892 1899 898 1899 1003"/><polygon class="cls-3" points="1875 872 1851 865 1851 761 1875 767 1875 872"/><polygon class="cls-3" points="1456 1079 1432 1079 1432 1024 1456 1030 1456 1079"/><polygon class="cls-3" points="1799 1079 1775 1079 1775 995 1799 1001 1799 1079"/><polygon class="cls-3" points="1506 1024 1482 1017 1482 913 1506 919 1506 1024"/><polygon class="cls-3" points="1775 968 1751 961 1751 857 1775 863 1775 968"/><polygon class="cls-3" points="1508 894 1484 887 1484 783 1508 789 1508 894"/><polygon class="cls-3" points="1768 845 1744 838 1744 734 1768 740 1768 845"/><polygon class="cls-3" points="1676 821 1652 814 1652 710 1676 716 1676 821"/><polygon class="cls-3" points="1569 793 1545 786 1545 682 1569 688 1569 793"/><polygon class="cls-3" points="1594 800 1570 793 1570 689 1594 695 1594 800"/><polygon class="cls-3" points="1496 773 1472 766 1472 662 1496 668 1496 773"/><polygon class="cls-4" points="1472 766 1433 755 1433 652 1472 662 1472 766"/><polygon class="cls-5" points="1633 809 1594 798 1594 695 1633 705 1633 809"/><polygon class="cls-5" points="1744 837 1705 826 1705 723 1744 733 1744 837"/><polygon class="cls-5" points="1870 1080 1831 1080 1831 1007 1870 1017 1870 1080"/><polygon class="cls-5" points="1557 1037 1518 1026 1518 923 1557 933 1557 1037"/><polygon class="cls-5" points="1762 1077 1723 1080 1723 977 1762 987 1762 1077"/><polygon class="cls-5" points="1833 862 1794 851 1794 748 1833 758 1833 862"/><polygon class="cls-5" points="1814 979 1775 968 1775 865 1814 875 1814 979"/><polygon class="cls-5" points="1447 1007 1408 996 1408 893 1447 903 1447 1007"/><polygon class="cls-5" points="1683 944 1644 933 1643.7 826.42 1682.7 836.42 1683 944"/><polygon class="cls-6" points="1483 890 1444 879 1444 776 1483 786 1483 890"/><polygon class="cls-7" points="1511 777 1496 773 1496 668 1511 672 1511 777"/><polygon class="cls-7" points="1914 1007 1899 1003 1899 898 1914 902 1914 1007"/><polygon class="cls-7" points="1887 1079 1870 1080 1872 1025 1887 1029 1887 1079"/><polygon class="cls-7" points="1494 1079 1479 1079 1479 1035 1494 1039 1494 1079"/><polygon class="cls-7" points="1714 1074 1696 1071 1698 970 1713 974 1714 1074"/><polygon class="cls-7" points="1831 981 1816 977 1816 872 1831 876 1831 981"/><polygon class="cls-7" points="1692 825 1677 821 1677 716 1692 720 1692 825"/><polygon class="cls-7" points="1571 1036 1556 1032 1556 927 1571 931 1571 1036"/><polygon class="cls-7" points="1423 871 1408 867 1408 762 1423 766 1423 871"/><polygon class="cls-7" points="1525 900 1510 896 1510 791 1525 795 1525 900"/><polygon class="cls-4" points="1556 909 1525 900 1525 795 1556 802 1556 909"/><polygon class="cls-4" points="1864 991 1833 982 1833 877 1864 884 1864 991"/><polygon class="cls-4" points="1919 1080 1887 1079 1884 1029 1915 1036 1919 1080"/><polygon class="cls-4" points="1831 1080 1799 1079 1798 1003 1829 1010 1831 1080"/><polygon class="cls-4" points="1526 1079 1494 1079 1495 1040 1526 1047 1526 1079"/><polygon class="cls-4" points="1480 1018 1449 1009 1449 904 1480 911 1480 1018"/><polygon class="cls-4" points="1544 786 1513 777 1513 672 1544 679 1544 786"/><polygon class="cls-4" points="1906 882 1875 873 1875 768 1906 775 1906 882"/><polygon class="cls-4" points="1643 934 1612 925 1612 820 1643 827 1643 934"/><polygon class="cls-4" points="1627 1053 1596 1044 1596 939 1627 946 1627 1053"/><polygon class="cls-8" points="1433 876 1423 874 1423 805 1433 807 1433 876"/><polygon class="cls-8" points="1704 823 1694 821 1694 752 1704 754 1704 823"/><polygon class="cls-8" points="1920 1007 1914 1004 1914 935 1919 936 1920 1007"/><polygon class="cls-8" points="1875 992 1865 990 1865 921 1875 923 1875 992"/><polygon class="cls-8" points="1724 1076 1714 1074 1714 1005 1724 1007 1724 1076"/><polygon class="cls-8" points="1775 1079 1762 1077 1764 1024 1774 1026 1775 1079"/><polygon class="cls-8" points="1418 1076.02 1408 1077 1408 1052 1418 1054 1418 1076.02"/><polygon class="cls-8" points="1646 1057 1628 1051 1628 982 1648 986 1646 1057"/><polygon class="cls-8" points="1780 848 1770 846 1770 777 1780 779 1780 848"/><polygon class="cls-8" points="1518 1024 1508 1022 1508 953 1518 955 1518 1024"/><polygon class="cls-8" points="1567 912 1557 910 1557 841 1567 843 1567 912"/><polygon class="cls-8" points="1644 810 1634 808 1634 739 1644 741 1644 810"/><polygon class="cls-6" points="1588 917 1566 912 1566 830 1588 834 1588 917"/><polygon class="cls-6" points="1593 1075 1571 1079 1571 1071 1593 1075 1593 1075"/><polygon class="cls-6" points="1670 1061 1648 1056 1648 974 1670 978 1670 1061"/><polygon class="cls-6" points="1919 885 1906 883 1906 801 1920 804 1919 885"/><polygon class="cls-6" points="1730 955 1708 950 1708 868 1730 872 1730 955"/><polygon class="cls-6" points="1479 1079 1456 1079 1456 1042 1478 1046 1479 1079"/><polygon class="cls-6" points="1548 1079 1526 1079 1526 1060 1548 1066 1548 1079"/><polygon class="cls-4" points="1751 961 1730 955 1730 852 1751 857 1751 961"/><polygon class="cls-4" points="1652 814 1644 810 1644 729 1652 732 1652 814"/><polygon class="cls-4" points="1794 851 1780 848 1780 761 1794 766 1794 851"/><rect class="cls-8" x="1833" y="778" width="18" height="87"/><polygon class="cls-4" points="1444 879 1433 876 1433 790 1444 793 1444 879"/><polygon class="cls-9" points="1577 1079 1548 1079 1548 1066 1577 1071 1577 1079"/><rect class="cls-8" x="1420" y="1038" width="12" height="42"/><polygon class="cls-10" points="1919 902 1408 761 1408 748 1919 885 1919 902"/><polygon class="cls-10" points="1920 1034 1409 890 1409 870 1920 1007 1920 1034"/><polygon class="cls-10" points="1660 1079 1408 1015 1409 996 1719 1077 1660 1079"/><polygon class="cls-10" points="1919 659 1590 583 1408 644 1919 780 1919 659"/><polygon class="cls-2" points="0 785 367 684 367 85 0 183 0 785"/><polygon class="cls-3" points="343 196 367 189 367 85 343 91 343 196"/><polygon class="cls-3" points="79 512 103 502 103 405 79 411 79 512"/><polygon class="cls-3" points="181 485 205 478 205 374 181 380 181 485"/><polygon class="cls-3" points="67 391 91 384 91 280 67 286 67 391"/><polygon class="cls-3" points="163 363 187 356 187 252 163 258 163 363"/><polygon class="cls-3" points="319 583 343 563 343 465 319 471 319 583"/><polygon class="cls-3" points="269 465 293 458 293 354 269 360 269 465"/><polygon class="cls-3" points="0 409 24 402 24 298 0 304 0 409"/><polygon class="cls-3" points="267 335 291 328 291 224 267 230 267 335"/><polygon class="cls-3" points="7 286 31 279 31 175 7 181 7 286"/><polygon class="cls-3" points="99 262 123 255 123 151 99 157 99 262"/><polygon class="cls-3" points="206 234 230 227 230 123 206 129 206 234"/><polygon class="cls-3" points="181 241 205 234 205 130 181 136 181 241"/><polygon class="cls-3" points="279 214 303 207 303 103 279 109 279 214"/><polygon class="cls-5" points="303 207 342 196 342 93 303 103 303 207"/><polygon class="cls-5" points="142 250 181 239 181 136 142 146 142 250"/><polygon class="cls-5" points="31 278 70 267 70 164 31 174 31 278"/><polygon class="cls-5" points="218 478 257 467 257 364 218 374 218 478"/><polygon class="cls-5" points="13 518 52 521 52 418 13 428 13 518"/><polygon class="cls-5" points="328 448 367 437 367 334 328 344 328 448"/><polygon class="cls-5" points="92 385 131 374 131.3 267.42 92.3 277.42 92 385"/><polygon class="cls-5" points="292 331 331 320 331 217 292 227 292 331"/><polygon class="cls-7" points="264 218 279 214 279 109 264 113 264 218"/><polygon class="cls-7" points="281 580 296 576 296 476 281 480 281 580"/><polygon class="cls-7" points="61 515 79 512 77 411 62 415 61 515"/><polygon class="cls-7" points="83 266 98 262 98 157 83 161 83 266"/><polygon class="cls-7" points="204 477 219 473 219 368 204 372 204 477"/><polygon class="cls-7" points="352 312 367 308 367 203 352 207 352 312"/><polygon class="cls-7" points="250 341 265 337 265 232 250 236 250 341"/><polygon class="cls-4" points="219 350 250 341 250 236 219 243 219 350"/><polygon class="cls-4" points="249 588 283 588 280 481 249 488 249 588"/><polygon class="cls-4" points="295 459 326 450 326 345 295 352 295 459"/><polygon class="cls-4" points="231 227 262 218 262 113 231 120 231 227"/><polygon class="cls-4" points="132 375 163 366 163 261 132 268 132 375"/><polygon class="cls-4" points="148 494 179 485 179 380 148 387 148 494"/><polygon class="cls-8" points="342 317 352 315 352 246 342 248 342 317"/><polygon class="cls-8" points="71 264 81 262 81 193 71 195 71 264"/><polygon class="cls-8" points="51 517 61 515 61 446 51 448 51 517"/><polygon class="cls-8" points="0 520 13 518 11 465 1 467 0 520"/><polygon class="cls-8" points="357 577 367 563 367 493 357 495 357 577"/><polygon class="cls-8" points="129 498 147 492 147 423 127 427 129 498"/><polygon class="cls-8" points="-5 289 5 287 5 218 -5 220 -5 289"/><polygon class="cls-8" points="257 465 267 463 267 394 257 396 257 465"/><polygon class="cls-8" points="208 353 218 351 218 282 208 284 208 353"/><polygon class="cls-8" points="131 251 141 249 141 180 131 182 131 251"/><polygon class="cls-6" points="187 358 209 353 209 271 187 275 187 358"/><polygon class="cls-6" points="105 502 127 497 127 415 105 419 105 502"/><polygon class="cls-6" points="45 396 67 391 67 309 45 313 45 396"/><polygon class="cls-6" points="294 583 319 570 319 487 297 491 294 583"/><polygon class="cls-4" points="24 402 45 396 45 293 24 298 24 402"/><polygon class="cls-4" points="123 255 131 251 131 170 123 173 123 255"/><polygon class="cls-4" points="331 320 342 317 342 231 331 234 331 320"/><polygon class="cls-8" points="343 563 355 560 355 479 343 479 343 563"/><polygon class="cls-10" points="0 304 367 202 367 189 0 287 0 304"/><polygon class="cls-10" points="1 437 366 331 366 311 0 409 1 437"/><polygon class="cls-10" points="2 67 185 25 367 86 0 183 2 67"/><polygon class="cls-6" points="227 595 249 590 249 508 227 512 227 595"/><polygon class="cls-6" points="346 687 367 682 367 600 346 609 346 687"/><polygon class="cls-6" points="182 735 204 730 204 648 182 652 182 735"/><polygon class="cls-6" points="82 632 104 627 104 545 82 549 82 632"/><polygon class="cls-4" points="276 709 307 700 307 595 276 602 276 709"/><polygon class="cls-4" points="148 744 179 735 179 630 148 637 148 744"/><polygon class="cls-4" points="52 640 83 631 83 526 52 533 52 640"/><polygon class="cls-3" points="28 651 52 644 52 540 28 546 28 651"/><polygon class="cls-3" points="202 730 226 723 226 619 202 625 202 730"/><polygon class="cls-3" points="154 619 178 612 178 508 154 514 154 619"/><polygon class="cls-8" points="129 747 147 741 147 672 127 676 129 747"/><polygon class="cls-8" points="179 608 197 602 197 533 177 537 179 608"/><polygon class="cls-8" points="223 723 241 717 241 648 221 652 223 723"/><polygon class="cls-7" points="243 718 258 714 258 609 243 613 243 718"/><polygon class="cls-7" points="112 749 127 745 127 640 112 644 112 749"/><polygon class="cls-7" points="104 629 119 625 119 520 104 524 104 629"/><polygon class="cls-5" points="119 623 155 616 157 518 118 528 119 623"/><polygon class="cls-5" points="77 762 113 755 115 657 76 667 77 762"/><polygon class="cls-5" points="309 696 345 689 347 591 308 601 309 696"/><polygon class="cls-3" points="199 600 223 593 223 489 199 495 199 600"/><polygon class="cls-3" points="49 771 73 764 73 660 49 666 49 771"/><polygon class="cls-3" points="0 785 14 778 14 674 0 675 0 785"/><polygon class="cls-4" points="17 780 48 771 48 666 17 673 17 780"/><polygon class="cls-5" points="3 653 29 646 25 543 3 549 3 653"/><polygon class="cls-10" points="0 675 367 574 366 557 3 653 0 675"/><polygon class="cls-10" points="0 543 365 456 364 437 1 521 0 543"/><polygon class="cls-5" points="1919 136 1887.35 131.84 1887.35 81.73 1918 88 1919 136"/><polygon class="cls-7" points="1887.35 67.09 1872.41 64.84 1872.41 5.72 1887.35 7.97 1887.35 67.09"/><polygon class="cls-4" points="1918.22 72.72 1887.34 67.66 1887.34 8.54 1918.22 12.48 1918.22 72.72"/><polygon class="cls-6" points="1876.39 274.86 1854.48 272.04 1854.48 225.87 1876.39 228.12 1876.39 274.86"/><polygon class="cls-3" points="1899.3 208.98 1875.4 205.04 1875.4 146.48 1899.3 149.86 1899.3 208.98"/><polygon class="cls-7" points="1857.47 275.98 1842.53 273.73 1842.53 214.61 1857.47 216.86 1857.47 275.98"/><polygon class="cls-5" points="1919 285 1874.4 278.8 1872.41 223.62 1919 230 1919 285"/><polygon class="cls-2" points="1919 285 1466 214.61 1466 -15 1919 -15 1919 285"/><polygon class="cls-3" points="1752.88 117.77 1728.97 112.14 1728.97 57.52 1752.88 60.9 1752.88 117.77"/><polygon class="cls-3" points="1651.28 102.56 1627.37 98.62 1627.37 40.07 1651.28 43.44 1651.28 102.56"/><polygon class="cls-3" points="1764.83 49.64 1740.92 45.7 1740.92 -12.86 1764.83 -9.48 1764.83 49.64"/><polygon class="cls-3" points="1669.2 33.87 1645.3 29.93 1645 -13 1669 -13 1669.2 33.87"/><polygon class="cls-3" points="1513.81 157.74 1489.91 146.48 1489.91 91.3 1513.81 94.68 1513.81 157.74"/><path class="cls-3" d="M1852.26,127.64l-22.1-4.68c-.35-.08-.58-.27-.58-.48V76.19c0-.33.55-.57,1.12-.49l22.1,3.12c.4.06.68.26.68.5v47.84C1853.48,127.52,1852.85,127.77,1852.26,127.64Z"/><polygon class="cls-3" points="1563.62 91.3 1539.71 87.36 1539.71 28.8 1563.62 32.18 1563.62 91.3"/><polygon class="cls-3" points="1831.57 59.77 1807.66 55.83 1807.66 -2.73 1831.57 0.65 1831.57 59.77"/><polygon class="cls-3" points="1565.61 18.11 1541.7 14.17 1541 -15 1566 -15 1565.61 18.11"/><polygon class="cls-5" points="1614.42 98.62 1575.57 92.43 1575.57 34.44 1614.42 40.07 1614.42 98.62"/><polygon class="cls-5" points="1818.62 121.14 1779.77 122.83 1779.77 64.84 1818.62 70.47 1818.62 121.14"/><polygon class="cls-5" points="1870.42 65.97 1831.57 59.77 1831.57 1.78 1870.42 7.41 1870.42 65.97"/><polygon class="cls-5" points="1504.85 81.73 1466 75.54 1466 17.54 1504.85 23.18 1504.85 81.73"/><polygon class="cls-5" points="1739.93 46.26 1701.08 40.07 1700 -15 1739.63 -14.31 1739.93 46.26"/><polygon class="cls-5" points="1540.71 15.86 1501.86 9.66 1502 -13 1541 -15 1540.71 15.86"/><polygon class="cls-7" points="1551.66 156.05 1536.72 153.8 1536.72 97.5 1551.66 99.75 1551.66 156.05"/><polygon class="cls-7" points="1770.81 119.46 1752.88 117.77 1754.87 60.9 1769.81 63.15 1770.81 119.46"/><polygon class="cls-7" points="1628.37 98.06 1613.42 95.81 1613.42 36.69 1628.37 38.94 1628.37 98.06"/><polygon class="cls-7" points="1582.54 21.49 1567.6 19.23 1568 -14 1583 -15 1582.54 21.49"/><polygon class="cls-4" points="1613.42 26.55 1582.54 21.49 1583 -14 1613 -15 1613.42 26.55"/><polygon class="cls-4" points="1887.35 131.84 1855.48 127.34 1854.48 79.48 1885.36 83.42 1887.35 131.84"/><polygon class="cls-4" points="1583.54 160.56 1549.67 160.56 1552.66 100.31 1583.54 104.25 1583.54 160.56"/><polygon class="cls-4" points="1537.72 87.92 1506.84 82.86 1506.84 23.74 1537.72 27.68 1537.72 87.92"/><polygon class="cls-4" points="1700.08 40.63 1669.2 35.56 1669 -15 1700 -15 1700.08 40.63"/><polygon class="cls-4" points="1684.15 107.63 1653.27 102.56 1653.27 43.44 1684.15 47.39 1684.15 107.63"/><polygon class="cls-8" points="1490.9 7.97 1480.94 6.85 1481 -14 1491 -13 1490.9 7.97"/><polygon class="cls-8" points="1780.77 120.58 1770.81 119.46 1770.81 80.61 1780.77 81.73 1780.77 120.58"/><polygon class="cls-8" points="1831.57 122.27 1818.62 121.14 1820.61 91.3 1830.57 92.43 1831.57 122.27"/><polygon class="cls-8" points="1475.96 154.37 1466 146.48 1466 107.07 1475.96 108.19 1475.96 154.37"/><polygon class="cls-8" points="1703.07 109.88 1685.14 106.51 1685.14 67.66 1705.06 69.91 1703.07 109.88"/><polygon class="cls-8" points="1575.57 91.3 1565.61 90.18 1565.61 51.33 1575.57 52.45 1575.57 91.3"/><polygon class="cls-8" points="1624.38 28.24 1614.42 27.12 1614.42 -11.73 1624.38 -10.61 1624.38 28.24"/><polygon class="cls-6" points="1645.3 31.06 1623.38 28.24 1623 -13 1645 -12 1645.3 31.06"/><polygon class="cls-6" points="1726.98 112.14 1705.06 109.32 1705.06 63.15 1726.98 65.4 1726.98 112.14"/><polygon class="cls-6" points="1786.74 52.45 1764.83 49.64 1764.83 3.47 1786.74 5.72 1786.74 52.45"/><polygon class="cls-6" points="1538.71 157.74 1513.81 150.42 1513.81 103.69 1535.73 105.94 1538.71 157.74"/><polygon class="cls-4" points="1807.66 55.83 1786.74 52.45 1786.74 -5.54 1807.66 -2.73 1807.66 55.83"/><polygon class="cls-8" points="1919 5 1853 -4 1849 -12 1919 -12 1919 5"/><polygon class="cls-4" points="1501.86 11.66 1490.9 9.97 1491 -12 1502 -11 1501.86 11.66"/><polygon class="cls-8" points="1489.91 146.48 1477.95 144.79 1477.95 99.19 1489.91 99.19 1489.91 146.48"/><polygon class="cls-10" points="1919 13 1740 -15 1792 -15 1919 5 1919 13"/><polygon class="cls-10" points="1918 88 1467 15.86 1467 4.59 1918 73 1918 88"/><polygon class="cls-6" points="1605.45 164.5 1583.54 161.68 1583.54 115.51 1605.45 117.77 1605.45 164.5"/><polygon class="cls-6" points="1486.92 216.3 1466 213.48 1466 167.31 1486.92 172.38 1486.92 216.3"/><polygon class="cls-6" points="1650.28 243.33 1628.37 240.51 1628.37 194.34 1650.28 196.59 1650.28 243.33"/><polygon class="cls-6" points="1872.41 203.35 1850.49 200.53 1850.49 154.37 1872.41 156.62 1872.41 203.35"/><polygon class="cls-6" points="1749.89 185.33 1727.97 182.52 1727.97 136.35 1749.89 138.6 1749.89 185.33"/><polygon class="cls-4" points="1556.64 228.69 1525.77 223.62 1525.77 164.5 1556.64 168.44 1556.64 228.69"/><polygon class="cls-4" points="1684.15 248.39 1653.27 243.33 1653.27 184.21 1684.15 188.15 1684.15 248.39"/><polygon class="cls-4" points="1779.77 189.84 1748.89 184.77 1748.89 125.65 1779.77 129.59 1779.77 189.84"/><polygon class="cls-3" points="1803.68 196.03 1779.77 192.09 1779.77 133.53 1803.68 136.91 1803.68 196.03"/><polygon class="cls-3" points="1630.36 240.51 1606.45 236.57 1606.45 178.01 1630.36 181.39 1630.36 240.51"/><polygon class="cls-3" points="1678.17 178.01 1654.26 174.07 1654.26 115.51 1678.17 118.89 1678.17 178.01"/><polygon class="cls-8" points="1703.07 250.08 1685.14 246.7 1685.14 207.85 1705.06 210.11 1703.07 250.08"/><polygon class="cls-8" points="1653.27 171.82 1635.34 168.44 1635.34 129.59 1655.26 131.84 1653.27 171.82"/><polygon class="cls-8" points="1847.51 199.97 1829.58 196.59 1829.58 157.74 1849.5 160 1847.51 199.97"/><polygon class="cls-8" points="1609.44 236.57 1591.51 233.19 1591.51 194.34 1611.43 196.59 1609.44 236.57"/><polygon class="cls-7" points="1589.52 233.75 1574.58 231.5 1574.58 172.38 1589.52 174.63 1589.52 233.75"/><polygon class="cls-7" points="1720.01 251.21 1705.06 248.96 1705.06 189.84 1720.01 192.09 1720.01 251.21"/><polygon class="cls-7" points="1727.97 183.64 1713.03 181.39 1713.03 122.27 1727.97 124.52 1727.97 183.64"/><polygon class="cls-5" points="1713.03 180.26 1677.17 176.32 1675.18 121.14 1714.03 126.78 1713.03 180.26"/><polygon class="cls-5" points="1754.87 258.53 1719.01 254.59 1717.02 199.41 1755.87 205.04 1754.87 258.53"/><polygon class="cls-5" points="1523.77 221.37 1487.91 217.43 1485.92 162.25 1524.77 167.88 1523.77 221.37"/><polygon class="cls-3" points="1633.35 167.31 1609.44 163.37 1609.44 104.82 1633.35 108.19 1633.35 167.31"/><polygon class="cls-3" points="1782.76 263.6 1758.85 259.65 1758.85 201.1 1782.76 204.48 1782.76 263.6"/><polygon class="cls-3" points="1841.53 271.48 1817.62 267.54 1817.62 208.98 1841.53 212.36 1841.53 271.48"/><polygon class="cls-4" points="1814.63 268.66 1783.76 263.6 1783.76 204.48 1814.63 208.42 1814.63 268.66"/><polygon class="cls-5" points="1828.58 197.16 1802.68 193.22 1806.67 135.22 1828.58 138.6 1828.58 197.16"/><polygon class="cls-10" points="1919 223 1465.99 152.68 1466.98 143.1 1919 211 1919 223"/><polygon class="cls-10" points="1919 147 1467.99 86.24 1468.99 75.54 1919 136 1919 147"/><polygon class="cls-8" points="1916.93 210.97 1899 207.59 1899 168.74 1918.92 171 1916.93 210.97"/></svg>
