<svg id="Layer_1" data-name="Layer 1" xmlns="http://www.w3.org/2000/svg" width="105" height="120" viewBox="0 0 105 120"><defs><style>.cls-1{fill:red;}</style></defs><title>Artboard 17</title><path class="cls-1" d="M54.59,41.87C58.23,60,44.64,67.14,47,78.5c8.36,40.2-29.36-9.08-33.59-28.37C9.44,32.06,14.63,18.78,26,16.5S51,23.73,54.59,41.87Z"/><path class="cls-1" d="M47.25,38.87c-3.63,18.14,17.9,26.05,14,37C45,121.5,85,67.5,88.44,47.13c3.07-18.25-1.22-31.35-12.6-33.63S50.89,20.73,47.25,38.87Z"/><path class="cls-1" d="M50,110.34,17.44,60.26a2.35,2.35,0,0,1,2-3.63L81,58.39a2.35,2.35,0,0,1,2,3.56l-29,48.32A2.35,2.35,0,0,1,50,110.34Z"/></svg>
