<svg id="Layer_1" data-name="Layer 1" xmlns="http://www.w3.org/2000/svg" width="399" height="505" viewBox="0 0 399 505"><defs><style>.cls-1{fill:#c7b299;}.cls-2{fill:#1b1464;}.cls-3{fill:#b49400;}.cls-4{fill:#fff;}.cls-5{fill:none;}.cls-5,.cls-8{stroke:#000;stroke-miterlimit:10;}.cls-6{fill:#c1272d;}.cls-7{fill:red;}</style></defs><title>hånd</title><path class="cls-1" d="M287.5,208c0-11.6-4.48-21-10-21s-9,9.4-9,21c0,1.9.18,6,0,8-.91,10.08-1.62,18,3,18,2.64,0,5.78,16.7,9,12C284,240.86,287.5,214.06,287.5,208Z"/><polygon class="cls-2" points="290.5 309 164.5 329 183.5 486 322.5 484 290.5 309"/><rect class="cls-3" x="30.32" y="32.07" width="321.55" height="182.61" transform="matrix(1, 0.1, -0.1, 1, 13.22, -18.4)"/><polygon class="cls-4" points="18 26.5 40 16.5 22 198.5 16 198.5 18 26.5"/><line class="cls-5" x1="22" y1="24.5" x2="18" y2="198.5"/><line class="cls-5" x1="28" y1="21.5" x2="20" y2="200.5"/><line class="cls-5" x1="32" y1="20.5" x2="24" y2="199.5"/><ellipse cx="187" cy="119.5" rx="84.5" ry="59.5"/><ellipse class="cls-6" cx="151.5" cy="100" rx="4" ry="14"/><ellipse class="cls-6" cx="151.5" cy="144" rx="4" ry="14"/><polygon class="cls-7" points="217.97 145.68 200.82 159.47 204.18 128.53 217.97 145.68"/><polygon class="cls-7" points="222.97 95.68 205.82 109.47 209.18 78.53 222.97 95.68"/><polygon class="cls-7" points="220.97 111.68 203.82 125.47 207.18 94.53 220.97 111.68"/><polygon class="cls-7" points="217.97 128.68 200.82 142.47 204.18 111.53 217.97 128.68"/><path class="cls-1" d="M140.5,269c0-11.3-4.34-40.7,4.41-50.41,13.17-14.62,58.59-11.71,81.84-11.71,17.54,0,29.46-7.68,41.75.12,3.57,2.26,4.55,6.47,6,10,1.67,4.06,2.61,8.68,4,15,2.44,11.05,6,24.52,6,32,0,7.05,4,18.74,6,31,1.21,7.42,1.21,14.8-2,18-12.75,12.72-35.78,14-59,14-19.35,0-51.71,13.29-65,2-4.84-4.12-7.31-11.59-10-20C149.81,294.33,140.5,278,140.5,269Z"/><path class="cls-1" d="M167.5,171c0-28.44-.37-46-7-46s-12,11.56-12,40a347.71,347.71,0,0,1-3,39c-1.48,11.16-3.61,19.4-2,23,2.09,4.67,15.51-16,18-16s8.27,11.54,10,7c1.54-4-1.81-17.34-3-24C167.4,187.87,167.5,179.59,167.5,171Z"/><path class="cls-1" d="M197.5,169c0-16.6-.24-36-3-49-1.69-8-6.84-12-8-12s-5,2.94-7,11c-2.89,11.57-3,29.21-3,45,0,15.11-3.23,38.11-2,47,.95,6.87,22.68,4,24,4C201.54,215,197.5,195.79,197.5,169Z"/><path class="cls-1" d="M228.5,155.5c.13-16.69-.69-37.63-3-50.5-1.93-10.77-5.23-15-8-15-3.18,0-8,4.53-10,18-1.83,12.29-1,32.87-1,47.5,0,17.77-2.57,44.34,0,54.5,1.87,7.37,8.45,1,11,1s16-6.49,16,1C233.51,214,228.35,174.06,228.5,155.5Z"/><path class="cls-1" d="M265.5,152c-.09-13.33.42-26.83-2.09-35.15C261.19,109.49,258.24,105,255,105c-3.45,0-6.24,4.77-8.5,13s-1,21.43-1,34c0,13.19-2.46,55.69,0,64,2.23,7.52,6.72,0,10,0,3.45,0,15.61,15.2,18,7C275.77,215.22,265.68,177.64,265.5,152Z"/><ellipse class="cls-8" cx="253.5" cy="113" rx="5.5" ry="14.5"/><ellipse class="cls-8" cx="217.5" cy="98" rx="5.5" ry="14.5"/><ellipse class="cls-8" cx="185.5" cy="113" rx="5.5" ry="14.5"/><ellipse class="cls-8" cx="160.5" cy="129" rx="4.5" ry="10.5"/></svg>
