<svg id="Layer_1" data-name="Layer 1" xmlns="http://www.w3.org/2000/svg" width="1205" height="1048" viewBox="0 0 1205 1048"><defs><style>.cls-1{fill:#d5aa0c;}.cls-2{fill:#c1272d;}.cls-3{fill:none;stroke:#000;stroke-miterlimit:10;stroke-width:6px;}</style></defs><title>intro01</title><rect class="cls-1" width="1205" height="1048"/><path d="M31.7,219.9a33.34,33.34,0,0,1,9-1.29A14.32,14.32,0,0,1,54,226.33c2.92,5,4.63,12.21,4.63,22.23S57,266.92,53.93,272.62s-8.14,8.91-14.53,8.91a36.73,36.73,0,0,1-7.7-.74Zm4.24,54.74a14.44,14.44,0,0,0,4.29.46c9.07,0,14-9.55,14-26.27.05-14.6-4.34-23.88-13.3-23.88a13.33,13.33,0,0,0-5,.83Z"/><path d="M83.9,268.85c0,4.59,0,8.64.2,12.13H80.29l-.24-7.26H80c-1.12,3.58-3.6,8.27-7.79,8.27-3.71,0-8.14-3.86-8.14-19.47v-26H68.3v24.62c0,8.45,1.37,14.14,5.27,14.14,2.87,0,4.87-3.76,5.65-7.35a20.85,20.85,0,0,0,.39-4.13V236.52H83.9Z"/><path d="M101.35,215.77h4.29V243.5h.09a14.39,14.39,0,0,1,3.07-5.69,6.18,6.18,0,0,1,4.39-2.3c3.17,0,8.24,3.68,8.24,19V281h-4.29V255.44c0-7.16-1.41-13.22-5.46-13.22-2.78,0-5,3.67-5.75,8.08a18.16,18.16,0,0,0-.29,3.86V281h-4.29Z"/><path d="M141.46,281l-.34-5.61H141c-1.32,3.49-3.85,6.62-7.21,6.62-4.78,0-7.22-6.34-7.22-12.77,0-10.75,5.07-16.62,14.19-16.53v-.92c0-3.67-.54-10.29-5.36-10.29a8.35,8.35,0,0,0-6.15,3.31l-1-5.33a10.24,10.24,0,0,1,7.75-4c7.21,0,9,9.28,9,18.19v16.62c0,3.86.09,7.63.39,10.66Zm-.64-22.69c-4.67-.18-10,1.38-10,10,0,5.24,1.86,7.72,4,7.72,3.07,0,5-3.68,5.7-7.44a15,15,0,0,0,.24-2.57Z"/><path d="M151.89,250.39c0-5.23,0-9.73-.2-13.87h3.76l.14,8.73h.2c1.07-6,3.65-9.74,6.53-9.74a2.71,2.71,0,0,1,1.22.28v7.62a3.67,3.67,0,0,0-1.47-.27c-3,0-5.16,4.31-5.75,10.38-.09,1.1-.19,2.38-.19,3.76V281h-4.24Z"/><path d="M186.1,228.81H186l-5.5,5.6-.83-6.15,6.92-7h3.65V281H186.1Z"/><path d="M220.7,228.07H208.62l-1.22,15.34A9.33,9.33,0,0,1,210,243a9,9,0,0,1,6.82,3.22c2.49,2.66,4.54,7.81,4.54,15.34,0,11.66-4.93,20.39-11.8,20.39a10.54,10.54,0,0,1-7.89-3.68l1.07-6.15a9.76,9.76,0,0,0,6.77,3.31c4,0,7.51-5,7.51-13-.05-7.72-2.78-13.23-9.12-13.23a18.12,18.12,0,0,0-4.38.64l2.05-28.65H220.7Z"/><path d="M237.91,272.71c1.26,1.56,3.5,3.21,5.65,3.21,3.12,0,4.58-2.93,4.58-6.61,0-3.86-1.22-6-4.39-8.17-4.24-2.85-6.23-7.26-6.23-12.58,0-7.17,3.07-13.05,8.13-13.05a8,8,0,0,1,5.8,2.76l-1.07,5.88a6.56,6.56,0,0,0-4.82-2.57c-2.54,0-3.95,2.75-3.95,6.06,0,3.67,1.41,5.32,4.48,7.53,4.1,2.94,6.19,6.79,6.19,13.41,0,7.8-3.21,13.31-8.82,13.31a9,9,0,0,1-6.63-3Z"/><path d="M260.18,260.22c.1,10.93,3.8,15.43,8.09,15.43a9.61,9.61,0,0,0,6.53-2.3l.73,5.79a11.92,11.92,0,0,1-7.85,2.75c-7.26,0-11.6-9-11.6-22.41s4.2-24,11.07-24c7.7,0,9.74,12.77,9.74,20.94,0,1.66-.09,2.94-.14,3.77Zm12.57-5.79c.05-5.14-1.12-13.13-5.94-13.13-4.34,0-6.24,7.53-6.58,13.13Z"/><path d="M286.45,256.91h.09c.59-1.56,1.42-3.49,2.1-5.05l6.92-15.34h5.17l-9.12,18.28L302,281h-5.21l-8.14-21.31-2.19,4.59V281h-4.24V215.77h4.24Z"/><path d="M325,268.85c0,4.59.05,8.64.19,12.13h-3.8l-.24-7.26h-.1c-1.12,3.58-3.61,8.27-7.8,8.27-3.7,0-8.14-3.86-8.14-19.47v-26h4.29v24.62c0,8.45,1.37,14.14,5.27,14.14,2.87,0,4.87-3.76,5.65-7.35a21.63,21.63,0,0,0,.39-4.13V236.52H325Z"/><path d="M332.11,248.56c0-4.6-.05-8.36-.19-12h3.8l.24,7.35h.1c1.17-4.22,3.9-8.36,7.8-8.36,3.26,0,8.33,3.68,8.33,18.92V281H347.9V255.35c0-7.16-1.41-13.13-5.45-13.13-2.83,0-5,3.76-5.76,8.26a21.81,21.81,0,0,0-.29,3.77V281h-4.29Z"/><path d="M379.53,215.77V269.5c0,3.94.05,8.45.2,11.48h-3.85l-.2-7.72h-.09c-1.32,5-4.2,8.73-8,8.73-5.7,0-10.08-9.1-10.08-22.6,0-14.78,4.82-23.88,10.57-23.88,3.61,0,6,3.22,7.12,6.8h.09V215.77Zm-4.29,38.85a25.84,25.84,0,0,0-.19-3.4c-.63-5.14-3-9.37-6.19-9.37-4.44,0-7.07,7.35-7.07,17.18,0,9,2.34,16.44,7,16.44,2.88,0,5.51-3.59,6.29-9.65a25.42,25.42,0,0,0,.19-3.49Z"/><path d="M389,260.22c.09,10.93,3.8,15.43,8.09,15.43a9.61,9.61,0,0,0,6.53-2.3l.73,5.79a11.94,11.94,0,0,1-7.85,2.75c-7.26,0-11.6-9-11.6-22.41s4.19-24,11.07-24c7.7,0,9.74,12.77,9.74,20.94,0,1.66-.09,2.94-.14,3.77Zm12.57-5.79c.05-5.14-1.12-13.13-5.94-13.13-4.34,0-6.24,7.53-6.58,13.13Z"/><path d="M411.07,250.39c0-5.23-.05-9.73-.2-13.87h3.75l.15,8.73H415c1.08-6,3.66-9.74,6.54-9.74a2.66,2.66,0,0,1,1.21.28v7.62a3.62,3.62,0,0,0-1.46-.27c-3,0-5.16,4.31-5.75,10.38-.1,1.1-.19,2.38-.19,3.76V281h-4.24Z"/><path d="M442.5,223.76v12.76h6.14v6.16H442.5v24c0,5.51.83,8.63,3.22,8.63a5.32,5.32,0,0,0,2.48-.55l.2,6.06a6.2,6.2,0,0,1-3.8,1.1c-2,0-3.61-1.19-4.63-3.39-1.22-2.39-1.66-6.34-1.66-11.58V242.68h-3.66v-6.16h3.66V225.87Z"/><path d="M458.24,224c.05,2.76-1,5-2.73,5-1.51,0-2.58-2.2-2.58-5s1.12-5.05,2.68-5.05S458.24,221.19,458.24,224Zm-4.77,57V236.52h4.28V281Z"/><path d="M464.87,215.77h4.29V281h-4.29Z"/><path d="M499.76,281l-.34-5.61h-.14c-1.32,3.49-3.85,6.62-7.22,6.62-4.77,0-7.21-6.34-7.21-12.77,0-10.75,5.07-16.62,14.18-16.53v-.92c0-3.67-.53-10.29-5.36-10.29a8.35,8.35,0,0,0-6.14,3.31l-1-5.33a10.23,10.23,0,0,1,7.75-4c7.21,0,9,9.28,9,18.19v16.62c0,3.86.1,7.63.39,10.66Zm-.63-22.69c-4.68-.18-10,1.38-10,10,0,5.24,1.85,7.72,4.05,7.72,3.07,0,5-3.68,5.7-7.44a16.06,16.06,0,0,0,.24-2.57Z"/><path d="M515.17,223.76v12.76h6.14v6.16h-6.14v24c0,5.51.82,8.63,3.21,8.63a5.4,5.4,0,0,0,2.49-.55l.19,6.06a6.18,6.18,0,0,1-3.8,1.1c-2,0-3.61-1.19-4.63-3.39-1.22-2.39-1.66-6.34-1.66-11.58V242.68h-3.65v-6.16H511V225.87Z"/><path d="M536.46,250.39c0-5.23-.05-9.73-.19-13.87H540l.15,8.73h.19c1.07-6,3.66-9.74,6.53-9.74a2.67,2.67,0,0,1,1.22.28v7.62a3.66,3.66,0,0,0-1.46-.27c-3,0-5.17,4.31-5.75,10.38-.1,1.1-.2,2.38-.2,3.76V281h-4.24Z"/><path d="M565.22,281l-.34-5.61h-.15c-1.32,3.49-3.85,6.62-7.21,6.62-4.78,0-7.22-6.34-7.22-12.77,0-10.75,5.07-16.62,14.19-16.53v-.92c0-3.67-.54-10.29-5.36-10.29a8.35,8.35,0,0,0-6.15,3.31l-1-5.33a10.24,10.24,0,0,1,7.75-4c7.21,0,9,9.28,9,18.19v16.62c0,3.86.09,7.63.39,10.66Zm-.64-22.69c-4.67-.18-10,1.38-10,10,0,5.24,1.86,7.72,4,7.72,3.07,0,5-3.68,5.7-7.44a15,15,0,0,0,.24-2.57Z"/><path d="M575.65,248.56c0-4.6,0-8.36-.2-12h3.76l.19,7.17h.15c1.31-4.23,3.51-8.18,7.4-8.18,3.22,0,5.66,3.68,6.68,8.91h.1a19.72,19.72,0,0,1,2.63-5.78c1.41-2,3-3.13,5.22-3.13,3.11,0,7.74,3.86,7.74,19.29V281h-4.19V255.81c0-8.54-1.65-13.68-5.11-13.68-2.44,0-4.34,3.39-5.07,7.34a24,24,0,0,0-.34,4.05V281h-4.2V254.34c0-7.07-1.65-12.21-4.92-12.21-2.68,0-4.63,4-5.31,8.08a20.54,20.54,0,0,0-.34,3.95V281h-4.19Z"/><path d="M616.29,248.56c0-4.6,0-8.36-.19-12h3.75l.2,7.17h.14c1.32-4.23,3.51-8.18,7.41-8.18,3.22,0,5.65,3.68,6.68,8.91h.1a19.47,19.47,0,0,1,2.63-5.78c1.41-2,3-3.13,5.21-3.13,3.12,0,7.75,3.86,7.75,19.29V281h-4.19V255.81c0-8.54-1.66-13.68-5.12-13.68-2.43,0-4.34,3.39-5.07,7.34a25,25,0,0,0-.34,4.05V281h-4.19V254.34c0-7.07-1.66-12.21-4.92-12.21-2.68,0-4.63,4-5.31,8.08a19.77,19.77,0,0,0-.34,3.95V281h-4.2Z"/><path d="M659.33,260.22c.1,10.93,3.8,15.43,8.09,15.43a9.61,9.61,0,0,0,6.53-2.3l.73,5.79a11.92,11.92,0,0,1-7.85,2.75c-7.26,0-11.6-9-11.6-22.41s4.2-24,11.07-24c7.7,0,9.74,12.77,9.74,20.94,0,1.66-.09,2.94-.14,3.77Zm12.57-5.79c.05-5.14-1.12-13.13-5.94-13.13-4.34,0-6.24,7.53-6.58,13.13Z"/><path d="M704.75,281l-.34-5.61h-.15c-1.31,3.49-3.85,6.62-7.21,6.62-4.78,0-7.21-6.34-7.21-12.77,0-10.75,5.07-16.62,14.18-16.53v-.92c0-3.67-.54-10.29-5.36-10.29a8.32,8.32,0,0,0-6.14,3.31l-1-5.33a10.24,10.24,0,0,1,7.75-4c7.21,0,9,9.28,9,18.19v16.62c0,3.86.1,7.63.39,10.66Zm-.63-22.69c-4.68-.18-10,1.38-10,10,0,5.24,1.86,7.72,4,7.72,3.07,0,5-3.68,5.7-7.44a15,15,0,0,0,.25-2.57Z"/><path d="M715.18,215.77h4.29V281h-4.29Z"/><path d="M726.68,215.77H731V281h-4.29Z"/><path d="M740.57,260.22c.1,10.93,3.8,15.43,8.09,15.43a9.61,9.61,0,0,0,6.53-2.3l.73,5.79a11.91,11.91,0,0,1-7.84,2.75c-7.27,0-11.6-9-11.6-22.41s4.19-24,11.06-24c7.7,0,9.75,12.77,9.75,20.94,0,1.66-.1,2.94-.15,3.77Zm12.57-5.79c.05-5.14-1.12-13.13-5.94-13.13-4.34,0-6.24,7.53-6.58,13.13Z"/><path d="M793.3,215.77V269.5c0,3.94.05,8.45.2,11.48h-3.85l-.2-7.72h-.09c-1.32,5-4.19,8.73-8.05,8.73-5.7,0-10.08-9.1-10.08-22.6-.05-14.78,4.82-23.88,10.57-23.88,3.61,0,6,3.22,7.12,6.8H789V215.77ZM789,254.62a25.84,25.84,0,0,0-.19-3.4c-.63-5.14-3-9.37-6.19-9.37-4.43,0-7.07,7.35-7.07,17.18,0,9,2.34,16.44,7,16.44,2.88,0,5.51-3.59,6.29-9.65a25.42,25.42,0,0,0,.19-3.49Z"/><path d="M802.81,260.22c.09,10.93,3.8,15.43,8.09,15.43a9.61,9.61,0,0,0,6.53-2.3l.73,5.79a11.92,11.92,0,0,1-7.85,2.75c-7.26,0-11.6-9-11.6-22.41s4.19-24,11.07-24c7.7,0,9.74,12.77,9.74,20.94,0,1.66-.09,2.94-.14,3.77Zm12.57-5.79c0-5.14-1.12-13.13-5.94-13.13-4.34,0-6.24,7.53-6.58,13.13Z"/><path d="M31.36,391.19c.1-3,.2-7.53.2-11.48V326H35.8V353.9h.1c1.51-5,4.24-8.17,8-8.17,5.85,0,10,9.18,9.94,22.68,0,15.89-5.31,23.79-10.58,23.79-3.41,0-6.14-2.48-7.89-8.36h-.15l-.19,7.35Zm4.44-17.82c0,1,.1,2,.19,2.94.83,5.6,3.32,9.46,6.44,9.46,4.48,0,7.16-6.89,7.16-17.08,0-8.91-2.44-16.53-7-16.53-2.92,0-5.65,3.76-6.53,9.91a29,29,0,0,0-.24,3.31Z"/><path d="M75.18,348.94l2-5.51,1.9,2.48-2,5.69c2.29,4.14,3.56,10.11,3.56,17,0,16.34-6,23.6-11.51,23.6a7.72,7.72,0,0,1-6-3.12l-2.1,5.6-1.8-2.76,2.05-5.51c-2.29-4-3.66-9.92-3.66-17.17,0-14.79,5.17-23.51,11.6-23.51A7.9,7.9,0,0,1,75.18,348.94Zm-2,5.51a5,5,0,0,0-4.15-2.66c-5.26,0-7.35,9.18-7.35,17.26a32.59,32.59,0,0,0,1.75,11.12l.1.09ZM65,383.57A4.58,4.58,0,0,0,69,386.14c4.48,0,7.45-7.26,7.45-17.27A34.22,34.22,0,0,0,74.79,358h-.1Z"/><path d="M86,360.61c0-5.24,0-9.74-.19-13.87H89.6l.15,8.72h.19c1.08-6,3.66-9.73,6.53-9.73a2.67,2.67,0,0,1,1.22.27v7.63a3.46,3.46,0,0,0-1.46-.28c-3,0-5.17,4.32-5.75,10.38-.1,1.1-.19,2.39-.19,3.76v23.7H86Z"/><path d="M102.18,358.77c0-4.59-.05-8.36-.2-12h3.8l.25,7.34h.09c1.17-4.22,3.9-8.35,7.8-8.35,3.27,0,8.34,3.67,8.34,18.92v26.54H118V365.56c0-7.16-1.42-13.13-5.46-13.13-2.83,0-5,3.77-5.75,8.27a20.74,20.74,0,0,0-.29,3.76v26.73h-4.29Z"/><path d="M159.93,326v53.73c0,4,0,8.45.19,11.48h-3.85l-.19-7.72H156c-1.31,5-4.19,8.73-8,8.73-5.7,0-10.09-9.09-10.09-22.59,0-14.79,4.83-23.88,10.58-23.88,3.6,0,6,3.21,7.11,6.79h.1V326Zm-4.29,38.85a27.68,27.68,0,0,0-.19-3.4c-.64-5.14-3-9.37-6.19-9.37-4.44,0-7.07,7.35-7.07,17.18,0,9,2.34,16.44,7,16.44,2.87,0,5.51-3.58,6.29-9.64a27.38,27.38,0,0,0,.19-3.5Z"/><path d="M169.43,370.43c.1,10.93,3.8,15.43,8.09,15.43a9.64,9.64,0,0,0,6.53-2.29l.73,5.78a11.86,11.86,0,0,1-7.84,2.76c-7.26,0-11.6-9-11.6-22.41s4.19-24,11.06-24c7.7,0,9.75,12.76,9.75,20.94,0,1.65-.1,2.94-.15,3.76ZM182,364.65c.05-5.15-1.12-13.14-5.95-13.14-4.34,0-6.24,7.53-6.58,13.14Z"/><path d="M191.46,360.61c0-5.24-.05-9.74-.19-13.87H195l.15,8.72h.19c1.07-6,3.66-9.73,6.53-9.73a2.67,2.67,0,0,1,1.22.27v7.63a3.49,3.49,0,0,0-1.46-.28c-3,0-5.17,4.32-5.75,10.38-.1,1.1-.2,2.39-.2,3.76v23.7h-4.24Z"/><path d="M217.73,326H222v65.21h-4.29Z"/><path d="M242.29,391.19l-.34-5.6h-.14c-1.32,3.49-3.85,6.61-7.22,6.61-4.77,0-7.21-6.34-7.21-12.77,0-10.74,5.07-16.62,14.18-16.53V362c0-3.67-.53-10.28-5.36-10.28a8.34,8.34,0,0,0-6.14,3.3l-1-5.32a10.18,10.18,0,0,1,7.74-3.95c7.22,0,9,9.27,9,18.18v16.63c0,3.85.1,7.62.39,10.65Zm-.63-22.69c-4.68-.18-10,1.38-10,10,0,5.24,1.85,7.72,4,7.72,3.07,0,5-3.67,5.71-7.44a16,16,0,0,0,.24-2.57Z"/><path d="M252.72,360.61c0-5.24-.05-9.74-.19-13.87h3.75l.15,8.72h.19c1.07-6,3.66-9.73,6.53-9.73a2.67,2.67,0,0,1,1.22.27v7.63a3.49,3.49,0,0,0-1.46-.28c-3,0-5.17,4.32-5.75,10.38-.1,1.1-.2,2.39-.2,3.76v23.7h-4.24Z"/><path d="M268.85,358.77c0-4.59,0-8.36-.19-12h3.75l.2,7.16h.14c1.32-4.22,3.51-8.17,7.41-8.17,3.22,0,5.65,3.67,6.68,8.91h.1a19.66,19.66,0,0,1,2.63-5.79c1.41-2,3-3.12,5.21-3.12,3.12,0,7.75,3.85,7.75,19.28v26.18h-4.19V366c0-8.54-1.66-13.68-5.12-13.68-2.43,0-4.34,3.4-5.07,7.35a24.8,24.8,0,0,0-.34,4v27.46h-4.19V364.55c0-7.07-1.66-12.21-4.92-12.21-2.68,0-4.63,4-5.31,8.08a19.84,19.84,0,0,0-.34,3.95v26.82h-4.2Z"/><path d="M311.89,370.43c.1,10.93,3.8,15.43,8.09,15.43a9.66,9.66,0,0,0,6.53-2.29l.73,5.78a11.87,11.87,0,0,1-7.85,2.76c-7.26,0-11.6-9-11.6-22.41s4.2-24,11.07-24c7.7,0,9.75,12.76,9.75,20.94,0,1.65-.1,2.94-.15,3.76Zm12.57-5.78c.05-5.15-1.12-13.14-5.94-13.14-4.34,0-6.24,7.53-6.58,13.14Z"/><path d="M333.92,360.61c0-5.24-.05-9.74-.2-13.87h3.76l.14,8.72h.2c1.07-6,3.65-9.73,6.53-9.73a2.7,2.7,0,0,1,1.22.27v7.63a3.51,3.51,0,0,0-1.47-.28c-3,0-5.16,4.32-5.75,10.38-.09,1.1-.19,2.39-.19,3.76v23.7h-4.24Z"/><path d="M369.5,327.45c-3.56,9-6.15,20.94-6.15,37.56,0,16.35,2.68,28.11,6.15,37.29h-3.37c-3.07-7.62-6.38-19.38-6.38-37.29.05-18.09,3.31-29.84,6.38-37.56Z"/><path d="M394.4,326v53.73c0,4,.05,8.45.19,11.48h-3.85l-.19-7.72h-.1c-1.31,5-4.19,8.73-8,8.73-5.7,0-10.09-9.09-10.09-22.59-.05-14.79,4.83-23.88,10.58-23.88,3.6,0,6,3.21,7.11,6.79h.1V326Zm-4.29,38.85a27.68,27.68,0,0,0-.19-3.4c-.64-5.14-3-9.37-6.19-9.37-4.44,0-7.07,7.35-7.07,17.18,0,9,2.34,16.44,7,16.44,2.87,0,5.51-3.58,6.29-9.64a27.38,27.38,0,0,0,.19-3.5Z"/><path d="M403.9,370.43c.1,10.93,3.8,15.43,8.09,15.43a9.64,9.64,0,0,0,6.53-2.29l.73,5.78a11.86,11.86,0,0,1-7.84,2.76c-7.26,0-11.6-9-11.6-22.41s4.19-24,11.06-24c7.7,0,9.75,12.76,9.75,20.94,0,1.65-.1,2.94-.15,3.76Zm12.58-5.78c0-5.15-1.12-13.14-6-13.14-4.34,0-6.24,7.53-6.58,13.14Z"/><path d="M436.26,326h4.29v27.74h.1a14.12,14.12,0,0,1,3.07-5.7,6.2,6.2,0,0,1,4.39-2.29c3.16,0,8.23,3.67,8.23,19v26.45h-4.29V365.66c0-7.17-1.41-13.23-5.45-13.23-2.78,0-5,3.67-5.76,8.08a18.22,18.22,0,0,0-.29,3.86v26.82h-4.29Z"/><path d="M476.37,391.19l-.34-5.6h-.14c-1.32,3.49-3.85,6.61-7.22,6.61-4.77,0-7.21-6.34-7.21-12.77,0-10.74,5.07-16.62,14.18-16.53V362c0-3.67-.53-10.28-5.36-10.28a8.34,8.34,0,0,0-6.14,3.3l-1-5.32a10.2,10.2,0,0,1,7.75-3.95c7.21,0,9,9.27,9,18.18v16.63c0,3.85.1,7.62.39,10.65Zm-.63-22.69c-4.68-.18-10,1.38-10,10,0,5.24,1.85,7.72,4,7.72,3.07,0,5-3.67,5.71-7.44a16,16,0,0,0,.24-2.57Z"/><path d="M486.8,360.61c0-5.24-.05-9.74-.19-13.87h3.75l.15,8.72h.19c1.07-6,3.66-9.73,6.53-9.73a2.67,2.67,0,0,1,1.22.27v7.63a3.49,3.49,0,0,0-1.46-.28c-3,0-5.17,4.32-5.75,10.38-.1,1.1-.2,2.39-.2,3.76v23.7H486.8Z"/><path d="M515.46,370.43c.1,10.93,3.8,15.43,8.09,15.43a9.66,9.66,0,0,0,6.53-2.29l.73,5.78a11.87,11.87,0,0,1-7.85,2.76c-7.26,0-11.59-9-11.59-22.41s4.19-24,11.06-24c7.7,0,9.75,12.76,9.75,20.94,0,1.65-.1,2.94-.15,3.76ZM528,364.65c.05-5.15-1.12-13.14-5.94-13.14-4.34,0-6.24,7.53-6.58,13.14Z"/><path d="M537.49,358.77c0-4.59,0-8.36-.2-12h3.8l.25,7.34h.1c1.17-4.22,3.89-8.35,7.79-8.35,3.27,0,8.34,3.67,8.34,18.92v26.54h-4.29V365.56c0-7.16-1.41-13.13-5.46-13.13-2.83,0-5,3.77-5.75,8.27a20.74,20.74,0,0,0-.29,3.76v26.73h-4.29Z"/><path d="M574.87,358.77c0-4.59,0-8.36-.2-12h3.76l.19,7.16h.15c1.31-4.22,3.51-8.17,7.41-8.17,3.21,0,5.65,3.67,6.67,8.91h.1a19.92,19.92,0,0,1,2.63-5.79c1.42-2,3-3.12,5.22-3.12,3.12,0,7.75,3.85,7.75,19.28v26.18h-4.2V366c0-8.54-1.65-13.68-5.11-13.68-2.44,0-4.34,3.4-5.07,7.35a23.73,23.73,0,0,0-.34,4v27.46h-4.19V364.55c0-7.07-1.66-12.21-4.93-12.21-2.68,0-4.63,4-5.31,8.08a20.61,20.61,0,0,0-.34,3.95v26.82h-4.19Z"/><path d="M635.25,379.07c0,4.59,0,8.63.2,12.12h-3.8l-.25-7.26h-.09c-1.12,3.59-3.61,8.27-7.8,8.27-3.71,0-8.14-3.86-8.14-19.47v-26h4.29v24.61c0,8.45,1.36,14.14,5.26,14.14,2.88,0,4.87-3.76,5.65-7.34A21,21,0,0,0,631,374V346.74h4.29Z"/><path d="M642.37,358.77c0-4.59,0-8.36-.2-12H646l.24,7.34h.1c1.17-4.22,3.9-8.35,7.79-8.35,3.27,0,8.34,3.67,8.34,18.92v26.54h-4.29V365.56c0-7.16-1.41-13.13-5.46-13.13-2.83,0-5,3.77-5.75,8.27a21.69,21.69,0,0,0-.29,3.76v26.73h-4.29Z"/><path d="M689.79,326v53.73c0,4,.05,8.45.19,11.48h-3.85l-.19-7.72h-.1c-1.31,5-4.19,8.73-8,8.73-5.7,0-10.09-9.09-10.09-22.59-.05-14.79,4.83-23.88,10.58-23.88,3.6,0,6,3.21,7.11,6.79h.1V326Zm-4.29,38.85a27.68,27.68,0,0,0-.19-3.4c-.64-5.14-3-9.37-6.19-9.37-4.44,0-7.07,7.35-7.07,17.18,0,9,2.34,16.44,7,16.44,2.87,0,5.51-3.58,6.29-9.64a27.38,27.38,0,0,0,.19-3.5Z"/><path d="M727.61,326v53.73c0,4,0,8.45.19,11.48H724l-.19-7.72h-.1c-1.31,5-4.19,8.73-8,8.73-5.7,0-10.09-9.09-10.09-22.59,0-14.79,4.83-23.88,10.58-23.88,3.6,0,6,3.21,7.11,6.79h.1V326Zm-4.29,38.85a27.68,27.68,0,0,0-.19-3.4c-.64-5.14-3-9.37-6.19-9.37-4.44,0-7.07,7.35-7.07,17.18,0,9,2.34,16.44,7,16.44,2.87,0,5.51-3.58,6.29-9.64a27.38,27.38,0,0,0,.19-3.5Z"/><path d="M737.11,370.43c.1,10.93,3.8,15.43,8.09,15.43a9.64,9.64,0,0,0,6.53-2.29l.73,5.78a11.86,11.86,0,0,1-7.84,2.76c-7.26,0-11.6-9-11.6-22.41s4.19-24,11.06-24c7.7,0,9.75,12.76,9.75,20.94,0,1.65-.1,2.94-.15,3.76Zm12.58-5.78c0-5.15-1.12-13.14-6-13.14-4.34,0-6.24,7.53-6.58,13.14Z"/><path d="M759.14,360.61c0-5.24,0-9.74-.19-13.87h3.75l.15,8.72H763c1.07-6,3.66-9.73,6.53-9.73a2.67,2.67,0,0,1,1.22.27v7.63a3.49,3.49,0,0,0-1.46-.28c-3,0-5.17,4.32-5.75,10.38-.1,1.1-.2,2.39-.2,3.76v23.7h-4.24Z"/><path d="M784.82,382.92c1.27,1.56,3.51,3.22,5.66,3.22,3.12,0,4.58-2.94,4.58-6.62,0-3.85-1.22-6-4.39-8.17-4.24-2.85-6.24-7.25-6.24-12.58,0-7.17,3.07-13,8.14-13a8,8,0,0,1,5.8,2.75l-1.07,5.88a6.62,6.62,0,0,0-4.82-2.57c-2.54,0-4,2.75-4,6.06,0,3.67,1.41,5.33,4.48,7.53,4.1,2.94,6.19,6.8,6.19,13.41,0,7.81-3.21,13.32-8.82,13.32a9,9,0,0,1-6.63-3Z"/><path d="M817.77,391.19l-.34-5.6h-.15c-1.31,3.49-3.85,6.61-7.21,6.61-4.78,0-7.21-6.34-7.21-12.77,0-10.74,5.07-16.62,14.18-16.53V362c0-3.67-.54-10.28-5.36-10.28a8.32,8.32,0,0,0-6.14,3.3l-1-5.32a10.21,10.21,0,0,1,7.75-3.95c7.22,0,9,9.27,9,18.18v16.63c0,3.85.1,7.62.39,10.65Zm-.63-22.69c-4.68-.18-10,1.38-10,10,0,5.24,1.85,7.72,4,7.72,3.07,0,5-3.67,5.7-7.44a14.91,14.91,0,0,0,.25-2.57Zm-9.21-35c0-4.87,1.9-8.72,5-8.72s4.82,3.76,4.82,8.63-2.09,8.45-4.87,8.45C809.92,341.87,807.93,338.2,807.93,333.51Zm7.4-.18c0-2.76-1-5.05-2.53-5.05s-2.39,2.38-2.39,5.23c0,2.39,1,5,2.39,5C814.36,338.47,815.33,336.08,815.33,333.33Z"/><path d="M848.57,326v53.73c0,4,0,8.45.2,11.48h-3.85l-.2-7.72h-.1c-1.31,5-4.19,8.73-8,8.73-5.7,0-10.09-9.09-10.09-22.59,0-14.79,4.83-23.88,10.58-23.88,3.61,0,6,3.21,7.12,6.79h.09V326Zm-4.29,38.85a27.68,27.68,0,0,0-.19-3.4c-.63-5.14-3-9.37-6.19-9.37-4.44,0-7.07,7.35-7.07,17.18,0,9,2.34,16.44,7,16.44,2.88,0,5.51-3.58,6.29-9.64a27.38,27.38,0,0,0,.19-3.5Z"/><path d="M868.75,391.19l-.34-5.6h-.15c-1.31,3.49-3.85,6.61-7.21,6.61-4.78,0-7.21-6.34-7.21-12.77,0-10.74,5.06-16.62,14.18-16.53V362c0-3.67-.54-10.28-5.36-10.28a8.3,8.3,0,0,0-6.14,3.3l-1-5.32a10.21,10.21,0,0,1,7.75-3.95c7.21,0,9,9.27,9,18.18v16.63c0,3.85.1,7.62.39,10.65Zm-.63-22.69c-4.68-.18-10,1.38-10,10,0,5.24,1.86,7.72,4,7.72,3.07,0,5-3.67,5.7-7.44a14.91,14.91,0,0,0,.25-2.57Z"/><path d="M879.18,358.77c0-4.59,0-8.36-.2-12h3.81l.24,7.34h.1c1.17-4.22,3.9-8.35,7.79-8.35,3.27,0,8.34,3.67,8.34,18.92v26.54H895V365.56c0-7.16-1.41-13.13-5.46-13.13-2.83,0-5,3.77-5.75,8.27a21.69,21.69,0,0,0-.29,3.76v26.73h-4.29Z"/><path d="M916.56,326h4.29v27.74h.1A14.12,14.12,0,0,1,924,348a6.16,6.16,0,0,1,4.38-2.29c3.17,0,8.24,3.67,8.24,19v26.45h-4.29V365.66c0-7.17-1.41-13.23-5.46-13.23-2.78,0-5,3.67-5.75,8.08a18.22,18.22,0,0,0-.29,3.86v26.82h-4.29Z"/><path d="M946,370.43c.09,10.93,3.8,15.43,8.09,15.43a9.66,9.66,0,0,0,6.53-2.29l.73,5.78a11.89,11.89,0,0,1-7.85,2.76c-7.26,0-11.6-9-11.6-22.41s4.19-24,11.06-24c7.71,0,9.75,12.76,9.75,20.94,0,1.65-.09,2.94-.14,3.76Zm12.57-5.78c0-5.15-1.12-13.14-6-13.14-4.33,0-6.23,7.53-6.58,13.14Z"/><path d="M968,360.61c0-5.24,0-9.74-.19-13.87h3.75l.15,8.72h.19c1.08-6,3.66-9.73,6.53-9.73a2.67,2.67,0,0,1,1.22.27v7.63a3.49,3.49,0,0,0-1.46-.28c-3,0-5.17,4.32-5.75,10.38-.1,1.1-.2,2.39-.2,3.76v23.7H968Z"/><path d="M1014,379.07c0,4.59.05,8.63.2,12.12h-3.81l-.24-7.26h-.1c-1.12,3.59-3.6,8.27-7.79,8.27-3.71,0-8.14-3.86-8.14-19.47v-26h4.29v24.61c0,8.45,1.36,14.14,5.26,14.14,2.88,0,4.87-3.76,5.65-7.34a21,21,0,0,0,.39-4.14V346.74H1014Z"/><path d="M1041.52,326v53.73c0,4,0,8.45.19,11.48h-3.85l-.19-7.72h-.1c-1.32,5-4.19,8.73-8,8.73-5.7,0-10.09-9.09-10.09-22.59-.05-14.79,4.83-23.88,10.58-23.88,3.6,0,6,3.21,7.11,6.79h.1V326Zm-4.29,38.85a27.68,27.68,0,0,0-.19-3.4c-.64-5.14-3-9.37-6.19-9.37-4.44,0-7.07,7.35-7.07,17.18,0,9,2.34,16.44,7,16.44,2.87,0,5.5-3.58,6.29-9.64a27.38,27.38,0,0,0,.19-3.5Z"/><path d="M1159.7,402.3c3.46-9.09,6.14-21,6.14-37.56s-2.63-28.2-6.14-37.29H1163c3.11,7.53,6.38,19.29,6.38,37.38s-3.27,29.67-6.38,37.47Z"/><path d="M35.94,439.5v25.9H51.83V439.5h4.29v61.9H51.83v-29H35.94v29H31.7V439.5Z"/><path d="M65.43,457l4.63,25c.78,4,1.41,7.72,1.9,11.39h.15c.53-3.67,1.22-7.35,2-11.39l4.59-25h4.48L73.91,501.4H69.82l-9-44.45Z"/><path d="M92,444.46c.05,2.75-1,5-2.73,5-1.51,0-2.58-2.21-2.58-5s1.12-5,2.68-5S92,441.61,92,444.46ZM87.21,501.4V457H91.5V501.4Z"/><path d="M98,493.14c1.27,1.56,3.51,3.21,5.66,3.21,3.12,0,4.58-2.94,4.58-6.61,0-3.86-1.22-6-4.39-8.18-4.24-2.84-6.24-7.25-6.24-12.58,0-7.16,3.07-13,8.14-13a8,8,0,0,1,5.8,2.75l-1.07,5.88a6.62,6.62,0,0,0-4.82-2.57c-2.54,0-4,2.76-4,6.06,0,3.68,1.41,5.33,4.48,7.53,4.09,2.94,6.19,6.8,6.19,13.41,0,7.81-3.22,13.32-8.82,13.32a9,9,0,0,1-6.63-3Z"/><path d="M148.62,436.19v53.73c0,3.95,0,8.45.2,11.48H145l-.2-7.71h-.1c-1.31,5-4.19,8.72-8,8.72-5.7,0-10.09-9.09-10.09-22.59,0-14.79,4.83-23.88,10.58-23.88,3.61,0,6,3.21,7.12,6.8h.09V436.19ZM144.33,475a27.68,27.68,0,0,0-.19-3.4c-.64-5.14-3-9.36-6.19-9.36-4.44,0-7.07,7.34-7.07,17.17,0,9,2.34,16.44,7,16.44,2.88,0,5.51-3.58,6.29-9.64a27.21,27.21,0,0,0,.19-3.49Z"/><path d="M175.48,489.28c0,4.59,0,8.63.19,12.12h-3.8l-.24-7.25h-.1c-1.12,3.58-3.61,8.26-7.8,8.26-3.7,0-8.14-3.86-8.14-19.47V457h4.29v24.61c0,8.45,1.36,14.15,5.26,14.15,2.88,0,4.88-3.77,5.66-7.35a21.63,21.63,0,0,0,.39-4.13V457h4.29Z"/><path d="M192.92,470.82c0-5.24,0-9.74-.19-13.87h3.75l.15,8.72h.19c1.07-6,3.66-9.73,6.53-9.73a2.67,2.67,0,0,1,1.22.27v7.63a3.49,3.49,0,0,0-1.46-.28c-3,0-5.17,4.32-5.75,10.38-.1,1.1-.2,2.39-.2,3.77V501.4h-4.24Z"/><path d="M221.68,501.4l-.34-5.6h-.15c-1.32,3.49-3.85,6.61-7.21,6.61-4.78,0-7.22-6.34-7.22-12.76,0-10.75,5.07-16.63,14.19-16.54v-.91c0-3.68-.54-10.29-5.36-10.29a8.35,8.35,0,0,0-6.15,3.31l-1-5.33a10.21,10.21,0,0,1,7.75-3.95c7.21,0,9,9.28,9,18.18v16.63c0,3.86.09,7.62.39,10.65ZM221,478.72c-4.67-.19-10,1.37-10,10,0,5.23,1.86,7.71,4,7.71,3.07,0,5-3.67,5.7-7.44a14.81,14.81,0,0,0,.24-2.57Z"/><path d="M232.11,469c0-4.59-.05-8.36-.2-12h3.76l.19,7.16H236c1.31-4.22,3.51-8.17,7.4-8.17,3.22,0,5.66,3.67,6.68,8.91h.1a19.92,19.92,0,0,1,2.63-5.79c1.41-2,3-3.12,5.22-3.12,3.11,0,7.74,3.86,7.74,19.29V501.4h-4.19V476.24c0-8.54-1.65-13.69-5.11-13.69-2.44,0-4.34,3.4-5.07,7.35a23.73,23.73,0,0,0-.34,4V501.4h-4.2V474.77c0-7.07-1.65-12.22-4.92-12.22-2.68,0-4.63,4-5.31,8.08a20.68,20.68,0,0,0-.34,3.95V501.4h-4.19Z"/><path d="M272.75,469c0-4.59,0-8.36-.19-12h3.75l.2,7.16h.14c1.32-4.22,3.51-8.17,7.41-8.17,3.22,0,5.65,3.67,6.68,8.91h.1a19.66,19.66,0,0,1,2.63-5.79c1.41-2,3-3.12,5.21-3.12,3.12,0,7.75,3.86,7.75,19.29V501.4h-4.19V476.24c0-8.54-1.66-13.69-5.12-13.69-2.43,0-4.34,3.4-5.07,7.35a24.8,24.8,0,0,0-.34,4V501.4h-4.19V474.77c0-7.07-1.66-12.22-4.92-12.22-2.68,0-4.63,4-5.31,8.08a19.91,19.91,0,0,0-.34,3.95V501.4h-4.2Z"/><path d="M315.79,480.64c.1,10.93,3.8,15.43,8.09,15.43a9.66,9.66,0,0,0,6.53-2.29l.73,5.78a11.87,11.87,0,0,1-7.85,2.76c-7.26,0-11.6-9-11.6-22.41s4.2-24,11.07-24c7.7,0,9.75,12.77,9.75,20.94,0,1.65-.1,2.94-.15,3.76Zm12.57-5.78c.05-5.14-1.12-13.13-5.94-13.13-4.34,0-6.24,7.53-6.58,13.13Z"/><path d="M337.82,470.82c0-5.24-.05-9.74-.2-13.87h3.76l.14,8.72h.2c1.07-6,3.65-9.73,6.53-9.73a2.7,2.7,0,0,1,1.22.27v7.63a3.51,3.51,0,0,0-1.47-.28c-3,0-5.16,4.32-5.75,10.38-.09,1.1-.19,2.39-.19,3.77V501.4h-4.24Z"/><path d="M366.47,480.64c.1,10.93,3.81,15.43,8.09,15.43a9.69,9.69,0,0,0,6.54-2.29l.73,5.78a11.89,11.89,0,0,1-7.85,2.76c-7.26,0-11.6-9-11.6-22.41s4.19-24,11.06-24c7.7,0,9.75,12.77,9.75,20.94,0,1.65-.1,2.94-.15,3.76Zm12.58-5.78c.05-5.14-1.12-13.13-5.95-13.13-4.34,0-6.24,7.53-6.58,13.13Z"/><path d="M393.67,444.18V457h6.14v6.15h-6.14v24c0,5.51.83,8.64,3.22,8.64a5.44,5.44,0,0,0,2.48-.55l.2,6.06a6.28,6.28,0,0,1-3.81,1.1c-2,0-3.6-1.19-4.63-3.4-1.21-2.39-1.65-6.34-1.65-11.57V463.1h-3.66V457h3.66V446.3Z"/><path d="M414.77,501.4c.1-3,.2-7.53.2-11.48V436.19h4.24v27.92h.09c1.51-5,4.24-8.17,8.05-8.17,5.84,0,10,9.18,9.94,22.68,0,15.89-5.31,23.79-10.58,23.79-3.41,0-6.14-2.48-7.89-8.36h-.15l-.19,7.35Zm4.44-17.82a27.41,27.41,0,0,0,.19,2.94c.83,5.6,3.32,9.46,6.43,9.46,4.49,0,7.17-6.89,7.17-17.08,0-8.91-2.44-16.53-7-16.53-2.92,0-5.65,3.76-6.53,9.92a28.84,28.84,0,0,0-.24,3.3Z"/><path d="M455.76,501.4l-.34-5.6h-.15c-1.31,3.49-3.85,6.61-7.21,6.61-4.78,0-7.22-6.34-7.22-12.76,0-10.75,5.07-16.63,14.19-16.54v-.91c0-3.68-.54-10.29-5.36-10.29a8.32,8.32,0,0,0-6.14,3.31l-1-5.33a10.21,10.21,0,0,1,7.75-3.95c7.21,0,9,9.28,9,18.18v16.63c0,3.86.09,7.62.39,10.65Zm-.64-22.68c-4.67-.19-10,1.37-10,10,0,5.23,1.86,7.71,4.05,7.71,3.07,0,5-3.67,5.7-7.44a14.81,14.81,0,0,0,.24-2.57Z"/><path d="M466.19,470.82c0-5.24-.05-9.74-.2-13.87h3.76l.14,8.72h.2c1.07-6,3.65-9.73,6.53-9.73a2.7,2.7,0,0,1,1.22.27v7.63a3.51,3.51,0,0,0-1.47-.28c-3,0-5.16,4.32-5.75,10.38-.09,1.1-.19,2.39-.19,3.77V501.4h-4.24Z"/><path d="M482.32,469c0-4.59-.05-8.36-.2-12h3.81l.24,7.35h.1c1.17-4.23,3.9-8.36,7.79-8.36,3.27,0,8.34,3.67,8.34,18.92V501.4h-4.29V475.78c0-7.17-1.41-13.14-5.46-13.14-2.83,0-5,3.77-5.75,8.27a21.77,21.77,0,0,0-.29,3.76V501.4h-4.29Z"/><path d="M506.59,512.7c1.07-5.42,2.39-15.25,2.92-22l4.78-.92a179.58,179.58,0,0,1-4.63,22.32Z"/><path d="M529.2,493.14c1.27,1.56,3.51,3.21,5.66,3.21,3.12,0,4.58-2.94,4.58-6.61,0-3.86-1.22-6-4.39-8.18-4.24-2.84-6.24-7.25-6.24-12.58,0-7.16,3.07-13,8.14-13a8,8,0,0,1,5.8,2.75l-1.07,5.88a6.62,6.62,0,0,0-4.83-2.57c-2.53,0-3.94,2.76-3.94,6.06,0,3.68,1.41,5.33,4.48,7.53,4.09,2.94,6.19,6.8,6.19,13.41,0,7.81-3.22,13.32-8.82,13.32a9,9,0,0,1-6.63-3Z"/><path d="M570.43,478.81c0,16.44-6,23.6-11.74,23.6-6.39,0-11.31-8.82-11.31-22.87,0-14.88,5.17-23.6,11.7-23.6C565.85,455.94,570.43,465.22,570.43,478.81Zm-18.71.46c0,9.73,3,17.08,7.16,17.08s7.17-7.26,7.17-17.27c0-7.53-2-17.08-7.07-17.08S551.72,470.82,551.72,479.27Z"/><path d="M575.84,469c0-4.59-.05-8.36-.19-12h3.75l.2,7.16h.14c1.32-4.22,3.51-8.17,7.41-8.17,3.22,0,5.65,3.67,6.68,8.91h.1a19.66,19.66,0,0,1,2.63-5.79c1.41-2,3-3.12,5.21-3.12,3.12,0,7.75,3.86,7.75,19.29V501.4h-4.19V476.24c0-8.54-1.66-13.69-5.12-13.69-2.43,0-4.34,3.4-5.07,7.35a24.8,24.8,0,0,0-.34,4V501.4h-4.19V474.77c0-7.07-1.66-12.22-4.92-12.22-2.68,0-4.63,4-5.31,8.08a19.91,19.91,0,0,0-.34,3.95V501.4h-4.2Z"/><path d="M631.6,444.46c0,2.75-1,5-2.73,5-1.51,0-2.58-2.21-2.58-5s1.12-5,2.68-5S631.6,441.61,631.6,444.46Zm-4.78,56.94V457h4.29V501.4Z"/><path d="M642.47,477.34h.09c.59-1.56,1.42-3.49,2.1-5L651.58,457h5.17l-9.12,18.28L658,501.4H652.8l-8.14-21.31-2.19,4.6V501.4h-4.24V436.19h4.24Z"/><path d="M666.15,477.34h.1c.58-1.56,1.41-3.49,2.1-5L675.27,457h5.16l-9.11,18.28L681.7,501.4h-5.22l-8.13-21.31-2.2,4.6V501.4h-4.24V436.19h4.24Z"/><path d="M687.16,480.64c.09,10.93,3.8,15.43,8.09,15.43a9.66,9.66,0,0,0,6.53-2.29l.73,5.78a11.87,11.87,0,0,1-7.85,2.76c-7.26,0-11.6-9-11.6-22.41s4.19-24,11.07-24c7.7,0,9.74,12.77,9.74,20.94,0,1.65-.09,2.94-.14,3.76Zm12.57-5.78c0-5.14-1.12-13.13-5.94-13.13-4.34,0-6.24,7.53-6.58,13.13Z"/><path d="M719.52,436.19h4.29V501.4h-4.29Z"/><path d="M744.08,501.4l-.34-5.6h-.15c-1.31,3.49-3.85,6.61-7.21,6.61-4.78,0-7.21-6.34-7.21-12.76,0-10.75,5.07-16.63,14.18-16.54v-.91c0-3.68-.54-10.29-5.36-10.29a8.33,8.33,0,0,0-6.14,3.31l-1-5.33a10.21,10.21,0,0,1,7.75-3.95c7.22,0,9,9.28,9,18.18v16.63c0,3.86.1,7.62.39,10.65Zm-.63-22.68c-4.68-.19-10,1.37-10,10,0,5.23,1.85,7.71,4,7.71,3.07,0,5-3.67,5.7-7.44a14.82,14.82,0,0,0,.25-2.57Z"/><path d="M754.51,470.82c0-5.24,0-9.74-.19-13.87h3.75l.14,8.72h.2c1.07-6,3.66-9.73,6.53-9.73a2.67,2.67,0,0,1,1.22.27v7.63a3.49,3.49,0,0,0-1.46-.28c-3,0-5.17,4.32-5.75,10.38-.1,1.1-.2,2.39-.2,3.77V501.4h-4.24Z"/><path d="M770.64,469c0-4.59,0-8.36-.19-12h3.75l.19,7.16h.15c1.32-4.22,3.51-8.17,7.41-8.17,3.22,0,5.65,3.67,6.68,8.91h.09a19.92,19.92,0,0,1,2.63-5.79c1.42-2,3-3.12,5.22-3.12,3.12,0,7.75,3.86,7.75,19.29V501.4h-4.19V476.24c0-8.54-1.66-13.69-5.12-13.69-2.44,0-4.34,3.4-5.07,7.35a24.8,24.8,0,0,0-.34,4V501.4h-4.19V474.77c0-7.07-1.66-12.22-4.92-12.22-2.68,0-4.63,4-5.32,8.08a20.68,20.68,0,0,0-.34,3.95V501.4h-4.19Z"/><path d="M813.68,480.64c.09,10.93,3.8,15.43,8.09,15.43a9.66,9.66,0,0,0,6.53-2.29l.73,5.78a11.89,11.89,0,0,1-7.85,2.76c-7.26,0-11.6-9-11.6-22.41s4.19-24,11.07-24c7.7,0,9.74,12.77,9.74,20.94,0,1.65-.09,2.94-.14,3.76Zm12.57-5.78c0-5.14-1.12-13.13-6-13.13-4.33,0-6.23,7.53-6.58,13.13Z"/><path d="M835.71,470.82c0-5.24-.05-9.74-.2-13.87h3.75l.15,8.72h.19c1.08-6,3.66-9.73,6.53-9.73a2.67,2.67,0,0,1,1.22.27v7.63a3.43,3.43,0,0,0-1.46-.28c-3,0-5.17,4.32-5.75,10.38-.1,1.1-.19,2.39-.19,3.77V501.4h-4.24Z"/><path d="M846.28,512.7c1.07-5.42,2.39-15.25,2.93-22l4.77-.92a179.58,179.58,0,0,1-4.63,22.32Z"/><path d="M869.48,469c0-4.59-.05-8.36-.19-12H873l.19,7.16h.15c1.31-4.22,3.51-8.17,7.41-8.17,3.21,0,5.65,3.67,6.67,8.91h.1a19.92,19.92,0,0,1,2.63-5.79c1.42-2,3-3.12,5.22-3.12,3.12,0,7.75,3.86,7.75,19.29V501.4H899V476.24c0-8.54-1.65-13.69-5.11-13.69-2.44,0-4.34,3.4-5.07,7.35a23.73,23.73,0,0,0-.34,4V501.4h-4.19V474.77c0-7.07-1.66-12.22-4.93-12.22-2.68,0-4.63,4-5.31,8.08a20.68,20.68,0,0,0-.34,3.95V501.4h-4.19Z"/><path d="M914.9,444.46c.05,2.75-1,5-2.73,5-1.51,0-2.58-2.21-2.58-5s1.12-5,2.68-5S914.9,441.61,914.9,444.46Zm-4.77,56.94V457h4.29V501.4Z"/><path d="M921,493.14c1.26,1.56,3.51,3.21,5.65,3.21,3.12,0,4.58-2.94,4.58-6.61,0-3.86-1.22-6-4.39-8.18-4.24-2.84-6.23-7.25-6.23-12.58,0-7.16,3.07-13,8.13-13a8,8,0,0,1,5.8,2.75l-1.07,5.88A6.6,6.6,0,0,0,928.6,462c-2.54,0-4,2.76-4,6.06,0,3.68,1.41,5.33,4.48,7.53,4.1,2.94,6.19,6.8,6.19,13.41,0,7.81-3.21,13.32-8.82,13.32a9,9,0,0,1-6.63-3Z"/><path d="M946,444.18V457h6.14v6.15H946v24c0,5.51.82,8.64,3.21,8.64a5.53,5.53,0,0,0,2.49-.55l.19,6.06a6.25,6.25,0,0,1-3.8,1.1c-2,0-3.61-1.19-4.63-3.4-1.22-2.39-1.66-6.34-1.66-11.57V463.1h-3.65V457h3.65V446.3Z"/><path d="M959.06,480.64c.09,10.93,3.8,15.43,8.09,15.43a9.66,9.66,0,0,0,6.53-2.29l.73,5.78a11.87,11.87,0,0,1-7.85,2.76c-7.26,0-11.6-9-11.6-22.41s4.19-24,11.07-24c7.7,0,9.74,12.77,9.74,20.94,0,1.65-.09,2.94-.14,3.76Zm12.57-5.78c0-5.14-1.12-13.13-5.94-13.13-4.34,0-6.24,7.53-6.58,13.13Z"/><path d="M981.09,470.82c0-5.24-.05-9.74-.2-13.87h3.75l.15,8.72h.2c1.07-6,3.65-9.73,6.53-9.73a2.66,2.66,0,0,1,1.21.27v7.63a3.43,3.43,0,0,0-1.46-.28c-3,0-5.16,4.32-5.75,10.38-.1,1.1-.19,2.39-.19,3.77V501.4h-4.24Z"/><path d="M1027.73,436.19v53.73c0,3.95,0,8.45.19,11.48h-3.85l-.19-7.71h-.1c-1.32,5-4.19,8.72-8,8.72-5.7,0-10.09-9.09-10.09-22.59,0-14.79,4.82-23.88,10.57-23.88,3.61,0,6,3.21,7.12,6.8h.1V436.19ZM1023.44,475a25.85,25.85,0,0,0-.2-3.4c-.63-5.14-3-9.36-6.19-9.36-4.43,0-7.06,7.34-7.06,17.17,0,9,2.34,16.44,7,16.44,2.87,0,5.5-3.58,6.28-9.64a25.45,25.45,0,0,0,.2-3.49Z"/><path d="M1054.58,489.28c0,4.59.05,8.63.2,12.12H1051l-.24-7.25h-.1c-1.12,3.58-3.6,8.26-7.8,8.26-3.7,0-8.13-3.86-8.13-19.47V457H1039v24.61c0,8.45,1.37,14.15,5.27,14.15,2.87,0,4.87-3.77,5.65-7.35a20.85,20.85,0,0,0,.39-4.13V457h4.29Z"/><path d="M1074.42,480.64c.09,10.93,3.8,15.43,8.09,15.43a9.66,9.66,0,0,0,6.53-2.29l.73,5.78a11.89,11.89,0,0,1-7.85,2.76c-7.26,0-11.6-9-11.6-22.41s4.19-24,11.06-24c7.7,0,9.75,12.77,9.75,20.94,0,1.65-.09,2.94-.14,3.76Zm12.57-5.78c0-5.14-1.12-13.13-6-13.13-4.33,0-6.23,7.53-6.58,13.13Z"/><path d="M1101.61,444.18V457h6.14v6.15h-6.14v24c0,5.51.83,8.64,3.22,8.64a5.44,5.44,0,0,0,2.48-.55l.2,6.06a6.27,6.27,0,0,1-3.8,1.1c-2,0-3.61-1.19-4.63-3.4-1.22-2.39-1.66-6.34-1.66-11.57V463.1h-3.66V457h3.66V446.3Z"/><path d="M31.56,581.67c0-5.69-.1-10.28-.2-14.51h3.85l.2,7.63h.1c1.75-5.42,4.53-8.64,8.38-8.64,5.7,0,10,9.09,10,22.6,0,16-5.17,23.87-10.72,23.87-3.12,0-5.85-2.57-7.26-7h-.1V629.8H31.56Zm4.24,11.85c0,1.19.1,2.3.19,3.31.78,5.6,3.37,9.46,6.44,9.46,4.53,0,7.16-7,7.16-17.18,0-8.91-2.48-16.53-7-16.53-2.92,0-5.65,3.95-6.48,10a23.42,23.42,0,0,0-.29,3.31Z"/><path d="M80.64,589c0,16.44-6,23.6-11.75,23.6-6.38,0-11.31-8.81-11.31-22.86,0-14.88,5.17-23.61,11.7-23.61C76.05,566.15,80.64,575.43,80.64,589Zm-18.72.46c0,9.74,3,17.08,7.16,17.08s7.17-7.25,7.17-17.26c0-7.53-2-17.09-7.07-17.09S61.92,581,61.92,589.48Z"/><path d="M90.82,554.67c.05,2.76-1,5-2.73,5-1.51,0-2.58-2.2-2.58-5s1.12-5,2.68-5S90.82,551.82,90.82,554.67ZM86,611.61V567.16h4.29v44.45Z"/><path d="M97.45,579.19c0-4.59,0-8.35-.2-12h3.81l.24,7.35h.1c1.17-4.22,3.9-8.36,7.79-8.36,3.27,0,8.34,3.68,8.34,18.92v26.54h-4.29V586c0-7.16-1.41-13.13-5.46-13.13-2.83,0-5,3.76-5.75,8.26a21.81,21.81,0,0,0-.29,3.77v26.72H97.45Z"/><path d="M129.47,554.4v12.76h6.14v6.16h-6.14v24c0,5.51.83,8.63,3.22,8.63a5.44,5.44,0,0,0,2.48-.55l.2,6.06a6.28,6.28,0,0,1-3.81,1.1c-2,0-3.6-1.19-4.62-3.4-1.22-2.38-1.66-6.33-1.66-11.57V573.32h-3.66v-6.16h3.66V556.51Z"/><path d="M139.27,606.84c0-3.4,1.21-5.79,2.92-5.79s2.88,2.39,2.88,5.79-1.13,5.78-2.93,5.78S139.27,610.14,139.27,606.84Z"/><path d="M35.94,659.92v25.91H51.83V659.92h4.29v61.91H51.83v-29H35.94v29H31.7V659.92Z"/><path d="M65.43,677.37l4.63,25c.78,4,1.41,7.71,1.9,11.39h.15c.53-3.68,1.22-7.35,2-11.39l4.59-25h4.48l-9.26,44.46H69.82l-9-44.46Z"/><path d="M92,664.88c.05,2.76-1,5-2.73,5-1.51,0-2.58-2.2-2.58-5s1.12-5,2.68-5S92,662,92,664.88Zm-4.78,57V677.37H91.5v44.46Z"/><path d="M98,713.56c1.27,1.56,3.51,3.22,5.66,3.22,3.12,0,4.58-2.94,4.58-6.62,0-3.85-1.22-6-4.39-8.17-4.24-2.85-6.24-7.26-6.24-12.58,0-7.17,3.07-13,8.14-13a8,8,0,0,1,5.8,2.75L110.51,685a6.62,6.62,0,0,0-4.82-2.57c-2.54,0-4,2.75-4,6.06,0,3.67,1.41,5.33,4.48,7.53,4.09,2.94,6.19,6.8,6.19,13.41,0,7.81-3.22,13.32-8.82,13.32a9,9,0,0,1-6.63-3Z"/><path d="M148.62,656.62v53.73c0,3.95,0,8.45.2,11.48H145l-.2-7.72h-.1c-1.31,5-4.19,8.73-8,8.73-5.7,0-10.09-9.09-10.09-22.6,0-14.78,4.83-23.87,10.58-23.87,3.61,0,6,3.21,7.12,6.79h.09V656.62Zm-4.29,38.85a27.68,27.68,0,0,0-.19-3.4c-.64-5.14-3-9.37-6.19-9.37-4.44,0-7.07,7.35-7.07,17.18,0,9,2.34,16.44,7,16.44,2.88,0,5.51-3.59,6.29-9.65a27.11,27.11,0,0,0,.19-3.49Z"/><path d="M175.48,709.7c0,4.6,0,8.64.19,12.13h-3.8l-.24-7.26h-.1c-1.12,3.58-3.61,8.27-7.8,8.27-3.7,0-8.14-3.86-8.14-19.47v-26h4.29V702c0,8.45,1.36,14.14,5.26,14.14,2.88,0,4.88-3.76,5.66-7.34a21.82,21.82,0,0,0,.39-4.14V677.37h4.29Z"/><path d="M192.92,691.24c0-5.23,0-9.73-.19-13.87h3.75l.15,8.73h.19c1.07-6,3.66-9.73,6.53-9.73a2.67,2.67,0,0,1,1.22.27v7.62a3.66,3.66,0,0,0-1.46-.27c-3,0-5.17,4.31-5.75,10.38-.1,1.1-.2,2.38-.2,3.76v23.7h-4.24Z"/><path d="M221.68,721.83l-.34-5.61h-.15c-1.32,3.49-3.85,6.62-7.21,6.62-4.78,0-7.22-6.34-7.22-12.77,0-10.74,5.07-16.62,14.19-16.53v-.92c0-3.67-.54-10.29-5.36-10.29a8.35,8.35,0,0,0-6.15,3.31l-1-5.33a10.23,10.23,0,0,1,7.75-3.94c7.21,0,9,9.27,9,18.18v16.62c0,3.86.09,7.63.39,10.66ZM221,699.14c-4.67-.18-10,1.38-10,10,0,5.24,1.86,7.72,4,7.72,3.07,0,5-3.68,5.7-7.44a15,15,0,0,0,.24-2.57Z"/><path d="M232.11,689.41c0-4.6-.05-8.36-.2-12h3.76l.19,7.17H236c1.31-4.23,3.51-8.17,7.4-8.17,3.22,0,5.66,3.67,6.68,8.9h.1a19.85,19.85,0,0,1,2.63-5.78c1.41-2,3-3.12,5.22-3.12,3.11,0,7.74,3.85,7.74,19.28v26.18h-4.19V696.66c0-8.54-1.65-13.68-5.11-13.68-2.44,0-4.34,3.4-5.07,7.35a23.73,23.73,0,0,0-.34,4v27.46h-4.2V695.19c0-7.07-1.65-12.21-4.92-12.21-2.68,0-4.63,4-5.31,8.08a20.54,20.54,0,0,0-.34,4v26.82h-4.19Z"/><path d="M272.75,689.41c0-4.6,0-8.36-.19-12h3.75l.2,7.17h.14c1.32-4.23,3.51-8.17,7.41-8.17,3.22,0,5.65,3.67,6.68,8.9h.1a19.59,19.59,0,0,1,2.63-5.78c1.41-2,3-3.12,5.21-3.12,3.12,0,7.75,3.85,7.75,19.28v26.18h-4.19V696.66c0-8.54-1.66-13.68-5.12-13.68-2.43,0-4.34,3.4-5.07,7.35a24.8,24.8,0,0,0-.34,4v27.46h-4.19V695.19c0-7.07-1.66-12.21-4.92-12.21-2.68,0-4.63,4-5.31,8.08a19.77,19.77,0,0,0-.34,4v26.82h-4.2Z"/><path d="M315.79,701.07c.1,10.93,3.8,15.43,8.09,15.43a9.61,9.61,0,0,0,6.53-2.3l.73,5.79a11.87,11.87,0,0,1-7.85,2.76c-7.26,0-11.6-9-11.6-22.41s4.2-24,11.07-24c7.7,0,9.75,12.76,9.75,20.93,0,1.66-.1,2.94-.15,3.77Zm12.57-5.79c.05-5.14-1.12-13.13-5.94-13.13-4.34,0-6.24,7.53-6.58,13.13Z"/><path d="M337.82,691.24c0-5.23-.05-9.73-.2-13.87h3.76l.14,8.73h.2c1.07-6,3.65-9.73,6.53-9.73a2.7,2.7,0,0,1,1.22.27v7.62A3.67,3.67,0,0,0,348,684c-3,0-5.16,4.31-5.75,10.38-.09,1.1-.19,2.38-.19,3.76v23.7h-4.24Z"/><path d="M366.47,701.07c.1,10.93,3.81,15.43,8.09,15.43a9.64,9.64,0,0,0,6.54-2.3l.73,5.79a11.89,11.89,0,0,1-7.85,2.76c-7.26,0-11.6-9-11.6-22.41s4.19-24,11.06-24c7.7,0,9.75,12.76,9.75,20.93,0,1.66-.1,2.94-.15,3.77Zm12.58-5.79c.05-5.14-1.12-13.13-5.95-13.13-4.34,0-6.24,7.53-6.58,13.13Z"/><path d="M393.67,664.61v12.76h6.14v6.16h-6.14v24c0,5.51.83,8.63,3.22,8.63a5.32,5.32,0,0,0,2.48-.55l.2,6.06a6.21,6.21,0,0,1-3.81,1.11c-2,0-3.6-1.2-4.63-3.4-1.21-2.39-1.65-6.34-1.65-11.57V683.53h-3.66v-6.16h3.66V666.72Z"/><path d="M414.77,721.83c.1-3,.2-7.53.2-11.48V656.62h4.24v27.92h.09c1.51-5,4.24-8.17,8.05-8.17,5.84,0,10,9.18,9.94,22.68,0,15.89-5.31,23.79-10.58,23.79-3.41,0-6.14-2.48-7.89-8.36h-.15l-.19,7.35ZM419.21,704a27.41,27.41,0,0,0,.19,2.94c.83,5.6,3.32,9.46,6.43,9.46,4.49,0,7.17-6.89,7.17-17.08,0-8.91-2.44-16.54-7-16.54-2.92,0-5.65,3.77-6.53,9.92a28.85,28.85,0,0,0-.24,3.31Z"/><path d="M455.76,721.83l-.34-5.61h-.15c-1.31,3.49-3.85,6.62-7.21,6.62-4.78,0-7.22-6.34-7.22-12.77,0-10.74,5.07-16.62,14.19-16.53v-.92c0-3.67-.54-10.29-5.36-10.29a8.32,8.32,0,0,0-6.14,3.31l-1-5.33a10.23,10.23,0,0,1,7.75-3.94c7.21,0,9,9.27,9,18.18v16.62c0,3.86.09,7.63.39,10.66Zm-.64-22.69c-4.67-.18-10,1.38-10,10,0,5.24,1.86,7.72,4.05,7.72,3.07,0,5-3.68,5.7-7.44a15,15,0,0,0,.24-2.57Z"/><path d="M466.19,691.24c0-5.23-.05-9.73-.2-13.87h3.76l.14,8.73h.2c1.07-6,3.65-9.73,6.53-9.73a2.7,2.7,0,0,1,1.22.27v7.62a3.67,3.67,0,0,0-1.47-.27c-3,0-5.16,4.31-5.75,10.38-.09,1.1-.19,2.38-.19,3.76v23.7h-4.24Z"/><path d="M482.32,689.41c0-4.6-.05-8.36-.2-12h3.81l.24,7.35h.1c1.17-4.22,3.9-8.35,7.79-8.35,3.27,0,8.34,3.67,8.34,18.91v26.55h-4.29V696.2c0-7.16-1.41-13.13-5.46-13.13-2.83,0-5,3.76-5.75,8.26a21.9,21.9,0,0,0-.29,3.77v26.73h-4.29Z"/><path d="M540.07,656.62v53.73c0,3.95,0,8.45.2,11.48h-3.85l-.2-7.72h-.1c-1.31,5-4.19,8.73-8,8.73-5.7,0-10.09-9.09-10.09-22.6,0-14.78,4.83-23.87,10.58-23.87,3.61,0,6,3.21,7.12,6.79h.09V656.62Zm-4.29,38.85a27.68,27.68,0,0,0-.19-3.4c-.64-5.14-3-9.37-6.19-9.37-4.44,0-7.07,7.35-7.07,17.18,0,9,2.34,16.44,7,16.44,2.88,0,5.51-3.59,6.29-9.65a27.11,27.11,0,0,0,.19-3.49Z"/><path d="M549.58,701.07c.09,10.93,3.8,15.43,8.09,15.43a9.61,9.61,0,0,0,6.53-2.3l.73,5.79a11.89,11.89,0,0,1-7.85,2.76c-7.26,0-11.6-9-11.6-22.41s4.19-24,11.06-24c7.71,0,9.75,12.76,9.75,20.93,0,1.66-.1,2.94-.14,3.77Zm12.57-5.79c.05-5.14-1.12-13.13-5.95-13.13-4.33,0-6.23,7.53-6.58,13.13Z"/><path d="M571.6,691.24c0-5.23,0-9.73-.19-13.87h3.75l.15,8.73h.19c1.08-6,3.66-9.73,6.53-9.73a2.67,2.67,0,0,1,1.22.27v7.62a3.66,3.66,0,0,0-1.46-.27c-3,0-5.17,4.31-5.75,10.38-.1,1.1-.2,2.38-.2,3.76v23.7H571.6Z"/><path d="M597.87,656.62h4.29v65.21h-4.29Z"/><path d="M622.44,721.83l-.35-5.61H622c-1.32,3.49-3.85,6.62-7.21,6.62-4.78,0-7.22-6.34-7.22-12.77,0-10.74,5.07-16.62,14.18-16.53v-.92c0-3.67-.53-10.29-5.36-10.29a8.35,8.35,0,0,0-6.14,3.31l-1-5.33a10.22,10.22,0,0,1,7.75-3.94c7.21,0,9,9.27,9,18.18v16.62c0,3.86.1,7.63.39,10.66Zm-.64-22.69c-4.68-.18-10,1.38-10,10,0,5.24,1.85,7.72,4.05,7.72,3.07,0,5-3.68,5.7-7.44a16.06,16.06,0,0,0,.24-2.57Z"/><path d="M632.86,691.24c0-5.23,0-9.73-.19-13.87h3.75l.15,8.73h.19c1.08-6,3.66-9.73,6.53-9.73a2.67,2.67,0,0,1,1.22.27v7.62a3.62,3.62,0,0,0-1.46-.27c-3,0-5.17,4.31-5.75,10.38-.1,1.1-.2,2.38-.2,3.76v23.7h-4.24Z"/><path d="M649,689.41c0-4.6,0-8.36-.2-12h3.75l.2,7.17h.15c1.31-4.23,3.5-8.17,7.4-8.17,3.22,0,5.66,3.67,6.68,8.9h.1a19.59,19.59,0,0,1,2.63-5.78c1.41-2,3-3.12,5.21-3.12,3.12,0,7.75,3.85,7.75,19.28v26.18h-4.19V696.66c0-8.54-1.65-13.68-5.11-13.68-2.44,0-4.34,3.4-5.07,7.35a23.73,23.73,0,0,0-.34,4v27.46h-4.2V695.19c0-7.07-1.65-12.21-4.92-12.21-2.68,0-4.63,4-5.31,8.08a20.54,20.54,0,0,0-.34,4v26.82H649Z"/><path d="M692,701.07c.1,10.93,3.8,15.43,8.09,15.43a9.61,9.61,0,0,0,6.53-2.3l.73,5.79a11.86,11.86,0,0,1-7.84,2.76c-7.26,0-11.6-9-11.6-22.41s4.19-24,11.06-24c7.7,0,9.75,12.76,9.75,20.93,0,1.66-.1,2.94-.15,3.77Zm12.58-5.79c0-5.14-1.12-13.13-6-13.13-4.34,0-6.24,7.53-6.58,13.13Z"/><path d="M714.06,691.24c0-5.23,0-9.73-.19-13.87h3.75l.14,8.73h.2c1.07-6,3.65-9.73,6.53-9.73a2.67,2.67,0,0,1,1.22.27v7.62a3.66,3.66,0,0,0-1.46-.27c-3,0-5.17,4.31-5.75,10.38-.1,1.1-.2,2.38-.2,3.76v23.7h-4.24Z"/><path d="M724.64,733.12c1.07-5.41,2.38-15.24,2.92-22l4.78-.92a181,181,0,0,1-4.63,22.32Z"/><path d="M748.27,721.83v-38.3H745v-6.16h3.31v-2.11c0-6.24.73-11.94,2.73-15.52,1.61-2.94,3.75-4.13,5.75-4.13a6.16,6.16,0,0,1,3.66,1.28l-.59,6.25a4,4,0,0,0-2.73-1c-3.65,0-4.58,6.06-4.58,12.86v2.38h5.7v6.16h-5.7v38.3Z"/><path d="M775.13,721.83l-.34-5.61h-.15c-1.32,3.49-3.85,6.62-7.21,6.62-4.78,0-7.22-6.34-7.22-12.77,0-10.74,5.07-16.62,14.18-16.53v-.92c0-3.67-.53-10.29-5.36-10.29a8.35,8.35,0,0,0-6.14,3.31l-1-5.33a10.22,10.22,0,0,1,7.75-3.94c7.21,0,9,9.27,9,18.18v16.62c0,3.86.1,7.63.4,10.66Zm-.64-22.69c-4.68-.18-10,1.38-10,10,0,5.24,1.85,7.72,4,7.72,3.07,0,5-3.68,5.7-7.44a16.06,16.06,0,0,0,.24-2.57Zm-9.21-35c0-4.87,1.9-8.73,5-8.73s4.83,3.77,4.83,8.64-2.1,8.45-4.88,8.45S765.28,668.83,765.28,664.15Zm7.41-.18c0-2.76-1-5.05-2.53-5.05s-2.39,2.38-2.39,5.23c0,2.39,1,5,2.39,5S772.69,666.72,772.69,664Z"/><path d="M785.56,691.24c0-5.23,0-9.73-.2-13.87h3.75l.15,8.73h.2c1.07-6,3.65-9.73,6.53-9.73a2.66,2.66,0,0,1,1.21.27v7.62a3.59,3.59,0,0,0-1.46-.27c-3,0-5.16,4.31-5.75,10.38-.1,1.1-.19,2.38-.19,3.76v23.7h-4.24Z"/><path d="M832.2,656.62v53.73c0,3.95,0,8.45.19,11.48h-3.85l-.19-7.72h-.1c-1.32,5-4.19,8.73-8,8.73-5.71,0-10.09-9.09-10.09-22.6,0-14.78,4.82-23.87,10.57-23.87,3.61,0,6,3.21,7.12,6.79h.1V656.62Zm-4.29,38.85a25.85,25.85,0,0,0-.2-3.4c-.63-5.14-3-9.37-6.19-9.37-4.43,0-7.06,7.35-7.06,17.18,0,9,2.34,16.44,7,16.44,2.87,0,5.5-3.59,6.28-9.65a25.35,25.35,0,0,0,.2-3.49Z"/><path d="M859.05,709.7c0,4.6.05,8.64.2,12.13h-3.81l-.24-7.26h-.1c-1.12,3.58-3.6,8.27-7.8,8.27-3.7,0-8.13-3.86-8.13-19.47v-26h4.28V702c0,8.45,1.37,14.14,5.27,14.14,2.87,0,4.87-3.76,5.65-7.34a21,21,0,0,0,.39-4.14V677.37h4.29Z"/><path d="M878.89,701.07C879,712,882.69,716.5,887,716.5a9.61,9.61,0,0,0,6.53-2.3l.73,5.79a11.89,11.89,0,0,1-7.85,2.76c-7.26,0-11.6-9-11.6-22.41s4.19-24,11.06-24c7.7,0,9.75,12.76,9.75,20.93,0,1.66-.1,2.94-.14,3.77Zm12.57-5.79c0-5.14-1.12-13.13-6-13.13-4.33,0-6.23,7.53-6.58,13.13Z"/><path d="M906.08,664.61v12.76h6.14v6.16h-6.14v24c0,5.51.83,8.63,3.22,8.63a5.32,5.32,0,0,0,2.48-.55l.2,6.06a6.2,6.2,0,0,1-3.8,1.11c-2,0-3.61-1.2-4.63-3.4-1.22-2.39-1.66-6.34-1.66-11.57V683.53h-3.66v-6.16h3.66V666.72Z"/><path d="M927.38,691.89c0-5.7-.1-10.29-.2-14.52H931l.2,7.63h.1c1.75-5.42,4.53-8.63,8.38-8.63,5.7,0,10,9.09,10,22.59,0,16-5.17,23.88-10.72,23.88-3.12,0-5.85-2.57-7.27-7h-.09V740h-4.24Zm4.24,11.84a33.06,33.06,0,0,0,.19,3.31c.78,5.6,3.36,9.46,6.44,9.46,4.53,0,7.16-7,7.16-17.17,0-8.91-2.49-16.54-7-16.54-2.92,0-5.65,4-6.48,10a23.55,23.55,0,0,0-.29,3.31Z"/><path d="M976.45,699.23c0,16.44-6,23.61-11.74,23.61-6.39,0-11.31-8.82-11.31-22.87,0-14.88,5.17-23.6,11.7-23.6C971.87,676.37,976.45,685.64,976.45,699.23Zm-18.71.46c0,9.74,3,17.09,7.16,17.09s7.17-7.26,7.17-17.27c0-7.53-2-17.08-7.07-17.08S957.74,691.24,957.74,699.69Z"/><path d="M986.64,664.88c.05,2.76-1,5-2.73,5-1.51,0-2.58-2.2-2.58-5s1.12-5,2.68-5S986.64,662,986.64,664.88Zm-4.78,57V677.37h4.29v44.46Z"/><path d="M993.27,689.41c0-4.6,0-8.36-.2-12h3.8l.25,7.35h.1c1.17-4.22,3.9-8.35,7.79-8.35,3.27,0,8.34,3.67,8.34,18.91v26.55h-4.29V696.2c0-7.16-1.41-13.13-5.46-13.13-2.83,0-5,3.76-5.75,8.26a21.9,21.9,0,0,0-.29,3.77v26.73h-4.29Z"/><path d="M1025.29,664.61v12.76h6.14v6.16h-6.14v24c0,5.51.83,8.63,3.21,8.63a5.36,5.36,0,0,0,2.49-.55l.2,6.06a6.21,6.21,0,0,1-3.81,1.11c-2,0-3.6-1.2-4.63-3.4-1.21-2.39-1.65-6.34-1.65-11.57V683.53h-3.66v-6.16h3.66V666.72Z"/><path d="M1035.08,717.05c0-3.4,1.22-5.78,2.93-5.78s2.87,2.38,2.87,5.78-1.12,5.79-2.92,5.79S1035.08,720.36,1035.08,717.05Z"/><path d="M35.94,770.14V796H51.83v-25.9h4.29V832H51.83V803H35.94v29H31.7v-61.9Z"/><path d="M65.43,787.59l4.63,25c.78,4,1.41,7.71,1.9,11.39h.15c.53-3.68,1.22-7.35,2-11.39l4.59-25h4.48L73.91,832H69.82l-9-44.45Z"/><path d="M92,775.1c.05,2.75-1,5-2.73,5-1.51,0-2.58-2.21-2.58-5s1.12-5.05,2.68-5.05S92,772.25,92,775.1ZM87.21,832V787.59H91.5V832Z"/><path d="M98,823.77c1.27,1.57,3.51,3.22,5.66,3.22,3.12,0,4.58-2.94,4.58-6.61,0-3.86-1.22-6-4.39-8.18-4.24-2.85-6.24-7.25-6.24-12.58,0-7.16,3.07-13,8.14-13a8,8,0,0,1,5.8,2.75l-1.07,5.88a6.62,6.62,0,0,0-4.82-2.57c-2.54,0-4,2.75-4,6.06,0,3.67,1.41,5.33,4.48,7.53,4.09,2.94,6.19,6.8,6.19,13.41,0,7.81-3.22,13.32-8.82,13.32a9,9,0,0,1-6.63-3Z"/><path d="M148.62,766.83v53.73c0,4,0,8.45.2,11.48H145l-.2-7.71h-.1c-1.31,5-4.19,8.72-8,8.72-5.7,0-10.09-9.09-10.09-22.59,0-14.79,4.83-23.88,10.58-23.88,3.61,0,6,3.21,7.12,6.79h.09V766.83Zm-4.29,38.85a27.68,27.68,0,0,0-.19-3.4c-.64-5.14-3-9.36-6.19-9.36-4.44,0-7.07,7.34-7.07,17.17,0,9,2.34,16.44,7,16.44,2.88,0,5.51-3.58,6.29-9.64a27.32,27.32,0,0,0,.19-3.49Z"/><path d="M175.48,819.92c0,4.59,0,8.63.19,12.12h-3.8l-.24-7.26h-.1c-1.12,3.59-3.61,8.27-7.8,8.27-3.7,0-8.14-3.86-8.14-19.47v-26h4.29V812.2c0,8.45,1.36,14.15,5.26,14.15,2.88,0,4.88-3.77,5.66-7.35a21.79,21.79,0,0,0,.39-4.13V787.59h4.29Z"/><path d="M193.36,832v-38.3h-3.31v-6.15h3.31v-2.11c0-6.25.73-11.94,2.73-15.53,1.61-2.93,3.75-4.13,5.75-4.13a6.1,6.1,0,0,1,3.66,1.29l-.59,6.24a4,4,0,0,0-2.73-1c-3.65,0-4.58,6.06-4.58,12.86v2.39h5.7v6.15h-5.7V832Z"/><path d="M220.21,832l-.34-5.6h-.14c-1.32,3.49-3.85,6.61-7.22,6.61-4.77,0-7.21-6.34-7.21-12.77,0-10.74,5.07-16.62,14.18-16.53v-.92c0-3.67-.53-10.28-5.36-10.28a8.34,8.34,0,0,0-6.14,3.3l-1-5.32a10.2,10.2,0,0,1,7.75-3.95c7.21,0,9,9.27,9,18.18v16.63c0,3.85.1,7.62.39,10.65Zm-.63-22.69c-4.68-.18-10,1.38-10,10,0,5.23,1.85,7.71,4,7.71,3.07,0,5-3.67,5.7-7.44a16,16,0,0,0,.24-2.57Zm-9.21-35c0-4.86,1.9-8.72,5-8.72s4.83,3.76,4.83,8.63-2.1,8.45-4.88,8.45S210.37,779.05,210.37,774.36Zm7.41-.18c0-2.76-1-5-2.54-5s-2.38,2.39-2.38,5.23c0,2.39,1,5,2.38,5C216.8,779.32,217.78,776.93,217.78,774.18Z"/><path d="M230.64,801.46c0-5.24,0-9.74-.19-13.87h3.75l.15,8.72h.19c1.08-6,3.66-9.73,6.53-9.73a2.67,2.67,0,0,1,1.22.27v7.63a3.46,3.46,0,0,0-1.46-.28c-3,0-5.17,4.32-5.75,10.38-.1,1.1-.2,2.39-.2,3.76V832h-4.24Z"/><path d="M266.86,804.21v6h-12v-6Z"/><path d="M289.42,779.14H277.33l-1.21,15.34a8.93,8.93,0,0,1,9.4,2.84c2.49,2.67,4.53,7.81,4.53,15.34,0,11.67-4.92,20.39-11.79,20.39a10.59,10.59,0,0,1-7.9-3.67l1.08-6.16a9.76,9.76,0,0,0,6.77,3.31c4.05,0,7.51-5,7.51-12.95-.05-7.71-2.78-13.23-9.12-13.23a17.59,17.59,0,0,0-4.38.65l2-28.66h15.16Z"/><path d="M307.21,802.1c0-5.69-.1-10.29-.2-14.51h3.85l.2,7.62h.1c1.75-5.42,4.53-8.63,8.38-8.63,5.7,0,10,9.09,10,22.59,0,16-5.17,23.88-10.72,23.88-3.12,0-5.85-2.57-7.26-7h-.1v24.15h-4.24ZM311.45,814c0,1.19.1,2.29.19,3.3.78,5.61,3.37,9.46,6.44,9.46,4.53,0,7.16-7,7.16-17.17,0-8.91-2.49-16.53-7-16.53-2.92,0-5.65,4-6.48,10a23.28,23.28,0,0,0-.29,3.3Z"/><path d="M356.29,809.45c0,16.44-6.05,23.6-11.75,23.6-6.38,0-11.31-8.82-11.31-22.87,0-14.88,5.17-23.6,11.7-23.6C351.7,786.58,356.29,795.85,356.29,809.45Zm-18.72.46c0,9.73,3,17.08,7.16,17.08s7.17-7.26,7.17-17.27c0-7.53-2-17.08-7.07-17.08S337.57,801.46,337.57,809.91Z"/><path d="M366.47,775.1c0,2.75-1,5-2.73,5-1.51,0-2.58-2.21-2.58-5s1.12-5.05,2.68-5.05S366.47,772.25,366.47,775.1ZM361.69,832V787.59H366V832Z"/><path d="M373.1,799.62c0-4.59-.05-8.36-.2-12h3.81l.24,7.35h.1c1.17-4.23,3.9-8.36,7.79-8.36,3.27,0,8.34,3.67,8.34,18.92V832h-4.29V806.42c0-7.17-1.41-13.14-5.46-13.14-2.83,0-5,3.77-5.75,8.27a21.77,21.77,0,0,0-.29,3.76V832H373.1Z"/><path d="M405.12,774.82v12.77h6.14v6.15h-6.14v24c0,5.51.83,8.64,3.22,8.64a5.3,5.3,0,0,0,2.48-.56l.2,6.07a6.28,6.28,0,0,1-3.81,1.1c-2,0-3.6-1.2-4.63-3.4-1.21-2.39-1.65-6.34-1.65-11.57V793.74h-3.66v-6.15h3.66V776.93Z"/><path d="M428.8,811.28c.1,10.93,3.81,15.43,8.09,15.43a9.69,9.69,0,0,0,6.54-2.29l.73,5.78a11.89,11.89,0,0,1-7.85,2.76c-7.26,0-11.6-9-11.6-22.41s4.19-24,11.06-24c7.7,0,9.75,12.76,9.75,20.94,0,1.65-.1,2.94-.15,3.76Zm12.58-5.78c.05-5.15-1.12-13.14-5.95-13.14-4.34,0-6.24,7.54-6.58,13.14Z"/><path d="M450.83,766.83h4.29V832h-4.29Z"/><path d="M462.33,766.83h4.29V832h-4.29Z"/><path d="M476.22,811.28c.1,10.93,3.81,15.43,8.09,15.43a9.69,9.69,0,0,0,6.54-2.29l.73,5.78a11.89,11.89,0,0,1-7.85,2.76c-7.26,0-11.6-9-11.6-22.41s4.19-24,11.06-24c7.7,0,9.75,12.76,9.75,20.94,0,1.65-.1,2.94-.15,3.76Zm12.58-5.78c.05-5.15-1.12-13.14-5.95-13.14-4.34,0-6.24,7.54-6.58,13.14Z"/><path d="M498.25,801.46c0-5.24-.05-9.74-.19-13.87h3.75l.15,8.72h.19c1.07-6,3.66-9.73,6.53-9.73a2.67,2.67,0,0,1,1.22.27v7.63a3.49,3.49,0,0,0-1.46-.28c-3,0-5.17,4.32-5.75,10.38-.1,1.1-.2,2.39-.2,3.76V832h-4.24Z"/><path d="M524.52,766.83h4.29v27.74h.1a14.12,14.12,0,0,1,3.07-5.7,6.2,6.2,0,0,1,4.38-2.29c3.17,0,8.24,3.67,8.24,19V832h-4.29V806.51c0-7.17-1.41-13.23-5.46-13.23-2.77,0-5,3.68-5.75,8.08a18.22,18.22,0,0,0-.29,3.86V832h-4.29Z"/><path d="M564.63,832l-.34-5.6h-.15c-1.31,3.49-3.85,6.61-7.21,6.61-4.77,0-7.21-6.34-7.21-12.77,0-10.74,5.07-16.62,14.18-16.53v-.92c0-3.67-.54-10.28-5.36-10.28a8.34,8.34,0,0,0-6.14,3.3l-1-5.32a10.21,10.21,0,0,1,7.75-3.95c7.22,0,9,9.27,9,18.18v16.63c0,3.85.1,7.62.39,10.65ZM564,809.35c-4.68-.18-10,1.38-10,10,0,5.23,1.85,7.71,4,7.71,3.07,0,5-3.67,5.7-7.44a14.91,14.91,0,0,0,.25-2.57Z"/><path d="M575.06,801.46c0-5.24,0-9.74-.19-13.87h3.75l.15,8.72H579c1.07-6,3.66-9.73,6.53-9.73a2.67,2.67,0,0,1,1.22.27v7.63a3.49,3.49,0,0,0-1.46-.28c-3,0-5.17,4.32-5.75,10.38-.1,1.1-.2,2.39-.2,3.76V832h-4.24Z"/><path d="M621.07,819.92c0,4.59,0,8.63.19,12.12h-3.8l-.24-7.26h-.1c-1.12,3.59-3.61,8.27-7.8,8.27-3.7,0-8.14-3.86-8.14-19.47v-26h4.29V812.2c0,8.45,1.37,14.15,5.27,14.15,2.87,0,4.87-3.77,5.65-7.35a21.79,21.79,0,0,0,.39-4.13V787.59h4.29Z"/><path d="M628.18,799.62c0-4.59,0-8.36-.19-12h3.8l.24,7.35h.1c1.17-4.23,3.9-8.36,7.8-8.36,3.26,0,8.33,3.67,8.33,18.92V832H644V806.42c0-7.17-1.41-13.14-5.45-13.14-2.83,0-5,3.77-5.75,8.27a20.75,20.75,0,0,0-.3,3.76V832h-4.29Z"/><path d="M675.6,766.83v53.73c0,4,0,8.45.2,11.48H672l-.2-7.71h-.09c-1.32,5-4.2,8.72-8,8.72-5.71,0-10.09-9.09-10.09-22.59,0-14.79,4.82-23.88,10.57-23.88,3.61,0,6,3.21,7.12,6.79h.1V766.83Zm-4.28,38.85a25.85,25.85,0,0,0-.2-3.4c-.63-5.14-3-9.36-6.19-9.36-4.43,0-7.07,7.34-7.07,17.17,0,9,2.34,16.44,7,16.44,2.88,0,5.51-3.58,6.29-9.64a25.54,25.54,0,0,0,.2-3.49Z"/><path d="M685.11,811.28c.1,10.93,3.8,15.43,8.09,15.43a9.66,9.66,0,0,0,6.53-2.29l.73,5.78a11.87,11.87,0,0,1-7.85,2.76c-7.26,0-11.6-9-11.6-22.41s4.2-24,11.07-24c7.7,0,9.74,12.76,9.74,20.94,0,1.65-.09,2.94-.14,3.76Zm12.57-5.78c.05-5.15-1.12-13.14-5.94-13.14-4.34,0-6.24,7.54-6.58,13.14Z"/><path d="M707.14,801.46c0-5.24,0-9.74-.2-13.87h3.75l.15,8.72h.2c1.07-6,3.65-9.73,6.53-9.73a2.73,2.73,0,0,1,1.22.27v7.63a3.51,3.51,0,0,0-1.47-.28c-3,0-5.16,4.32-5.75,10.38-.1,1.1-.19,2.39-.19,3.76V832h-4.24Z"/><path d="M741.35,779.87h-.1l-5.5,5.61-.83-6.16,6.92-7h3.65V832h-4.14Z"/><path d="M778.1,801.55c0,20.3-4,31.5-11,31.5-6.19,0-10.38-10.93-10.48-30.68,0-20,4.58-31,11-31C774.29,771.33,778.1,782.54,778.1,801.55Zm-17.21.92c0,15.52,2.54,24.33,6.44,24.33,4.38,0,6.48-9.64,6.48-24.88,0-14.7-2-24.34-6.44-24.34C763.62,777.58,760.89,786.21,760.89,802.47Z"/><path d="M793.74,802.1c0-5.69-.1-10.29-.2-14.51h3.85l.2,7.62h.1c1.75-5.42,4.53-8.63,8.38-8.63,5.7,0,10,9.09,10,22.59,0,16-5.17,23.88-10.72,23.88-3.12,0-5.85-2.57-7.26-7H798v24.15h-4.24ZM798,814c0,1.19.1,2.29.19,3.3.78,5.61,3.37,9.46,6.44,9.46,4.53,0,7.16-7,7.16-17.17,0-8.91-2.48-16.53-7-16.53-2.92,0-5.65,4-6.48,10a24.85,24.85,0,0,0-.29,3.3Z"/><path d="M842.82,809.45c0,16.44-6.05,23.6-11.75,23.6-6.38,0-11.31-8.82-11.31-22.87,0-14.88,5.17-23.6,11.7-23.6C838.24,786.58,842.82,795.85,842.82,809.45Zm-18.72.46c0,9.73,3,17.08,7.17,17.08s7.16-7.26,7.16-17.27c0-7.53-2-17.08-7.07-17.08S824.1,801.46,824.1,809.91Z"/><path d="M853,775.1c0,2.75-1,5-2.73,5-1.51,0-2.58-2.21-2.58-5s1.12-5.05,2.68-5.05S853,772.25,853,775.1ZM848.23,832V787.59h4.29V832Z"/><path d="M859.63,799.62c0-4.59,0-8.36-.19-12h3.8l.24,7.35h.1c1.17-4.23,3.9-8.36,7.8-8.36,3.26,0,8.33,3.67,8.33,18.92V832h-4.29V806.42c0-7.17-1.41-13.14-5.46-13.14-2.82,0-5,3.77-5.75,8.27a21.77,21.77,0,0,0-.29,3.76V832h-4.29Z"/><path d="M891.65,774.82v12.77h6.14v6.15h-6.14v24c0,5.51.83,8.64,3.22,8.64a5.3,5.3,0,0,0,2.48-.56l.2,6.07a6.27,6.27,0,0,1-3.8,1.1c-2,0-3.61-1.2-4.63-3.4-1.22-2.39-1.66-6.34-1.66-11.57V793.74H883.8v-6.15h3.66V776.93Z"/><path d="M913,799.62c0-4.59-.05-8.36-.2-12h3.8l.25,7.35h.1c1.17-4.23,3.89-8.36,7.79-8.36,3.27,0,8.34,3.67,8.34,18.92V832h-4.29V806.42c0-7.17-1.41-13.14-5.46-13.14-2.83,0-5,3.77-5.75,8.27a20.82,20.82,0,0,0-.29,3.76V832H913Z"/><path d="M953.06,832l-.34-5.6h-.15c-1.32,3.49-3.85,6.61-7.21,6.61-4.78,0-7.22-6.34-7.22-12.77,0-10.74,5.07-16.62,14.19-16.53v-.92c0-3.67-.54-10.28-5.36-10.28a8.3,8.3,0,0,0-6.14,3.3l-1-5.32a10.21,10.21,0,0,1,7.75-3.95c7.21,0,9,9.27,9,18.18v16.63c0,3.85.09,7.62.39,10.65Zm-.64-22.69c-4.67-.18-10,1.38-10,10,0,5.23,1.86,7.71,4.05,7.71,3.07,0,5-3.67,5.7-7.44a14.9,14.9,0,0,0,.24-2.57Zm-9.21-35c0-4.86,1.9-8.72,5-8.72s4.83,3.76,4.83,8.63-2.1,8.45-4.88,8.45S943.21,779.05,943.21,774.36Zm7.41-.18c0-2.76-1-5-2.53-5s-2.39,2.39-2.39,5.23c0,2.39,1,5,2.39,5S950.62,776.93,950.62,774.18Z"/><path d="M963.49,801.46c0-5.24,0-9.74-.2-13.87H967l.15,8.72h.2c1.07-6,3.65-9.73,6.53-9.73a2.7,2.7,0,0,1,1.22.27v7.63a3.51,3.51,0,0,0-1.47-.28c-3,0-5.16,4.32-5.75,10.38-.09,1.1-.19,2.39-.19,3.76V832h-4.24Z"/><path d="M994.92,774.82v12.77h6.14v6.15h-6.14v24c0,5.51.83,8.64,3.22,8.64a5.3,5.3,0,0,0,2.48-.56l.2,6.07A6.27,6.27,0,0,1,997,833c-2,0-3.61-1.2-4.63-3.4-1.22-2.39-1.66-6.34-1.66-11.57V793.74h-3.65v-6.15h3.65V776.93Z"/><path d="M1010.66,775.1c.05,2.75-1,5-2.73,5-1.51,0-2.58-2.21-2.58-5s1.12-5.05,2.68-5.05S1010.66,772.25,1010.66,775.1ZM1005.89,832V787.59h4.29V832Z"/><path d="M1037.66,766.83v53.73c0,4,0,8.45.2,11.48H1034l-.2-7.71h-.09c-1.32,5-4.19,8.72-8,8.72-5.7,0-10.08-9.09-10.08-22.59-.05-14.79,4.82-23.88,10.57-23.88,3.61,0,6,3.21,7.12,6.79h.09V766.83Zm-4.29,38.85a25.84,25.84,0,0,0-.19-3.4c-.63-5.14-3-9.36-6.19-9.36-4.43,0-7.07,7.34-7.07,17.17,0,9,2.34,16.44,7,16.44,2.88,0,5.51-3.58,6.29-9.64a25.61,25.61,0,0,0,.19-3.49Z"/><path d="M1047.17,811.28c.09,10.93,3.8,15.43,8.09,15.43a9.66,9.66,0,0,0,6.53-2.29l.73,5.78a11.87,11.87,0,0,1-7.85,2.76c-7.26,0-11.6-9-11.6-22.41s4.19-24,11.07-24c7.7,0,9.74,12.76,9.74,20.94,0,1.65-.09,2.94-.14,3.76Zm12.57-5.78c0-5.15-1.12-13.14-5.94-13.14-4.34,0-6.24,7.54-6.58,13.14Z"/><path d="M1069.2,799.62c0-4.59,0-8.36-.2-12h3.8l.25,7.35h.09c1.17-4.23,3.9-8.36,7.8-8.36,3.27,0,8.34,3.67,8.34,18.92V832H1085V806.42c0-7.17-1.42-13.14-5.46-13.14-2.83,0-5,3.77-5.75,8.27a20.82,20.82,0,0,0-.29,3.76V832h-4.29Z"/><path d="M1109,811.28c.1,10.93,3.81,15.43,8.09,15.43a9.64,9.64,0,0,0,6.53-2.29l.74,5.78a11.89,11.89,0,0,1-7.85,2.76c-7.26,0-11.6-9-11.6-22.41s4.19-24,11.06-24c7.7,0,9.75,12.76,9.75,20.94,0,1.65-.1,2.94-.14,3.76Zm12.58-5.78c0-5.15-1.12-13.14-6-13.14-4.34,0-6.24,7.54-6.58,13.14Z"/><path d="M1131,801.46c0-5.24,0-9.74-.19-13.87h3.75l.15,8.72h.19c1.07-6,3.66-9.73,6.53-9.73a2.67,2.67,0,0,1,1.22.27v7.63a3.49,3.49,0,0,0-1.46-.28c-3,0-5.17,4.32-5.75,10.38-.1,1.1-.2,2.39-.2,3.76V832H1131Z"/><path d="M51.88,897.8c-.1,3.21-.19,6.8-.19,12.22v25.8c0,10.2-1.08,16.44-3.37,20.3-2.29,4-5.6,5.33-8.57,5.33a10.27,10.27,0,0,1-7.85-3.68L33,951.62a9.29,9.29,0,0,0,6.92,3.49c4.39,0,7.61-4.32,7.61-15.52v-5h-.1c-1.32,4.13-3.85,7.44-7.51,7.44-5.85,0-10-9.37-10-21.68,0-15.06,5.22-23.6,10.63-23.6,4.09,0,6.33,4,7.36,7.71h.09l.2-6.7Zm-4.43,17.54a20.62,20.62,0,0,0-.25-3.67c-.78-4.69-2.87-8.54-6-8.54-4.1,0-7,6.52-7,16.8,0,8.73,2.34,16,7,16,2.63,0,5-3.13,6-8.27a26.21,26.21,0,0,0,.34-4.32Z"/><path d="M71.86,942.25l-.34-5.6h-.14c-1.32,3.49-3.85,6.61-7.22,6.61-4.77,0-7.21-6.34-7.21-12.76C57,919.75,62,913.87,71.13,914v-.91c0-3.68-.53-10.29-5.36-10.29a8.32,8.32,0,0,0-6.14,3.31l-1-5.33a10.18,10.18,0,0,1,7.74-4c7.22,0,9,9.28,9,18.18V931.6c0,3.86.1,7.62.39,10.65Zm-.63-22.68c-4.68-.19-10,1.37-10,10,0,5.23,1.85,7.71,4,7.71,3.07,0,5-3.67,5.71-7.44a15.85,15.85,0,0,0,.24-2.57Zm-9.21-35c0-4.87,1.9-8.73,5-8.73s4.82,3.77,4.82,8.63-2.09,8.45-4.87,8.45S62,889.26,62,884.58Zm7.41-.19c0-2.75-1-5-2.54-5s-2.39,2.39-2.39,5.24c0,2.38,1,4.95,2.39,4.95C68.45,889.53,69.43,887.15,69.43,884.39Z"/><path d="M84.68,921.5c.1,10.92,3.8,15.42,8.09,15.42a9.61,9.61,0,0,0,6.53-2.29l.73,5.79a11.91,11.91,0,0,1-7.84,2.75c-7.27,0-11.6-9-11.6-22.41s4.19-24,11.06-24c7.7,0,9.75,12.77,9.75,20.94,0,1.65-.1,2.94-.15,3.77Zm12.57-5.79c0-5.14-1.12-13.13-5.94-13.13-4.34,0-6.24,7.53-6.58,13.13Z"/><path d="M111.88,885V897.8H118V904h-6.14v24c0,5.52.82,8.64,3.21,8.64a5.53,5.53,0,0,0,2.49-.55l.19,6.06a6.25,6.25,0,0,1-3.8,1.1c-2,0-3.61-1.19-4.63-3.4-1.22-2.39-1.66-6.33-1.66-11.57V904H104V897.8h3.65V887.15Z"/><path d="M143.12,914.42v6h-12v-6Z"/><path d="M158,932.52c1.9,2.2,4.68,4,7.6,4,4.34,0,6.87-4.32,6.87-10.56,0-5.79-1.75-9.1-6.19-12.31-5.36-3.58-8.67-8.82-8.67-17.54,0-9.65,4.24-16.81,10.62-16.81a9.78,9.78,0,0,1,7.26,3l-1.17,6.52a9,9,0,0,0-6.23-2.94c-4.49,0-6.19,5-6.19,9.28,0,5.78,2,8.63,6.53,11.94,5.55,4,8.38,9.09,8.38,18.18,0,9.55-3.75,17.82-11.5,17.82a11.47,11.47,0,0,1-8.38-3.95Z"/><path d="M188,922.78l-3.41,19.47h-4.39l11.16-61.9h5.12l11.21,61.9h-4.53l-3.51-19.47Zm10.77-6.24-3.21-17.82c-.73-4-1.22-7.72-1.71-11.3h-.1c-.48,3.68-1,7.44-1.65,11.21l-3.22,17.91Zm.05-46.66c0,4.59-2,8.17-4.82,8.17-3,0-4.88-3.67-4.88-8.08,0-4.59,1.86-8.36,4.88-8.36S198.77,865.29,198.77,869.88Zm-7.21.09c0,2.3.92,4.69,2.34,4.69s2.34-2.21,2.34-4.87-.93-4.87-2.34-4.87S191.56,867.31,191.56,870Z"/><path d="M227,887.15h-10v-6.8h24.32v6.8h-10v55.1H227Z"/><path d="M246.68,922.78l-3.41,19.47h-4.39L250,880.35h5.12l11.21,61.9h-4.53l-3.51-19.47Zm10.77-6.24-3.22-17.82c-.73-4-1.21-7.72-1.7-11.3h-.1c-.49,3.68-1,7.44-1.66,11.21l-3.21,17.91Z"/><path d="M271.2,881.18a22.43,22.43,0,0,1,7.74-1.29c4.24,0,7,1.38,9,4.5,1.71,2.39,2.73,6.06,2.73,10.93,0,6-2.1,11.21-5.56,13.59v.19c3.12,1.47,6.78,6.33,6.78,15.52a25.45,25.45,0,0,1-2.78,12.4c-2.29,4-6,5.78-11.36,5.78a26.61,26.61,0,0,1-6.57-.73Zm4.24,25.35h3.85c4.48,0,7.11-4.41,7.11-10.38,0-7.26-2.92-10.11-7.21-10.11a9.82,9.82,0,0,0-3.75.56Zm0,29.66a12,12,0,0,0,3.55.37c4.39,0,8.43-3,8.43-12,0-8.45-3.85-11.94-8.48-11.94h-3.5Z"/><path d="M314.62,913.23H301.85v22.32h14.23v6.7H297.61v-61.9h17.74v6.7h-13.5v19.57h12.77Z"/><path d="M321.59,881.18a24.09,24.09,0,0,1,8.14-1.29c4.53,0,7.45,1.56,9.5,5.05,1.66,2.76,2.58,7,2.58,11.76,0,8.17-2.73,13.59-6.19,15.8v.27c2.54,1.65,4.05,6.06,4.83,12.49,1.07,8.63,1.85,14.6,2.53,17H338.6c-.54-1.74-1.27-7.07-2.2-14.79-1-8.54-2.73-11.75-6.58-12h-4v26.82h-4.24Zm4.24,28.19h4.34c4.53,0,7.4-4.68,7.4-11.75,0-8-3.07-11.48-7.55-11.58a9.63,9.63,0,0,0-4.19.74Z"/><path d="M358.14,881.18a32.83,32.83,0,0,1,9-1.29,14.28,14.28,0,0,1,13.3,7.72c2.93,5,4.63,12.21,4.63,22.22s-1.66,18.37-4.73,24.06-8.13,8.91-14.52,8.91a36.72,36.72,0,0,1-7.7-.73Zm4.24,54.74a14.73,14.73,0,0,0,4.29.45c9.06,0,14-9.55,14-26.26,0-14.61-4.34-23.88-13.31-23.88a13.51,13.51,0,0,0-5,.82Z"/><path d="M394.84,880.35V917c0,13.86,3.26,19.74,7.65,19.74,4.87,0,8-6.06,8-19.74V880.35h4.29v36.09c0,19-5.31,26.82-12.43,26.82-6.72,0-11.79-7.25-11.79-26.45V880.35Z"/><path d="M421.16,937.57c0-3.31,1.21-5.7,2.87-5.7s2.88,2.39,2.88,5.7-1.12,5.69-2.88,5.69S421.16,940.78,421.16,937.57Zm1.21-13.14-.68-44.08h4.68l-.68,44.08Z"/><path class="cls-2" d="M1052.59,360.1c-1,8.56,23.1,34.3,46,37.11s57.71-12.21,58.76-20.77-31.66-29.58-54.52-32.19S1053.64,351.54,1052.59,360.1Z"/><path d="M227.17,105.32a34.52,34.52,0,0,0,20,6.89c11.44,0,18.12-7.35,18.12-18,0-9.85-4.63-15.48-16.32-21-14.13-6.1-22.86-15-22.86-29.87,0-16.43,11.17-28.62,28-28.62,8.86,0,15.29,2.5,19.14,5.16L270.2,31a29.88,29.88,0,0,0-16.45-5c-11.81,0-16.31,8.6-16.31,15.79,0,9.85,5.27,14.7,17.21,20.33,14.65,6.88,22.1,15.48,22.1,31,0,16.26-9.89,30.34-30.32,30.34-8.35,0-17.47-3-22.09-6.73Z"/><path d="M292,17.75a106.39,106.39,0,0,1,21.45-2c11,0,19.13,3.13,24.27,8.76,4.76,5,7.58,12.67,7.58,22.05,0,9.54-2.31,17-6.68,22.52-5.91,7.67-15.54,11.58-26.46,11.58a31.88,31.88,0,0,1-9-.94V121.9H292Zm11.17,50.82a30.77,30.77,0,0,0,9.25,1.1c13.49,0,21.71-8,21.71-22.52,0-13.92-8.1-20.64-20.43-20.64a38.68,38.68,0,0,0-10.53,1.09Z"/><path d="M371.55,16.5V121.9H360.37V16.5Z"/><path d="M391.07,16.5h11.18v94h37V121.9H391.07Z"/><path d="M451.7,16.5h11.18v94h37V121.9H451.7Z"/><path d="M557.16,72.48H523.51v38H561V121.9H512.33V16.5h46.76V27.91H523.51V61.22h33.65Z"/><path d="M575.53,17.9A96.61,96.61,0,0,1,597,15.71c11.95,0,19.65,2.66,25,8.61,4.36,4.69,6.8,11.88,6.8,20,0,13.92-7.19,23.15-16.31,26.9v.47C619.2,74.52,623.18,82,625.24,93c2.82,14.7,4.88,24.87,6.68,28.93H620.36c-1.42-3-3.34-12-5.78-25.18-2.57-14.54-7.2-20-17.34-20.48H586.7V121.9H575.53Zm11.17,48h11.44c11.94,0,19.52-8,19.52-20,0-13.61-8.09-19.55-19.91-19.71a38.39,38.39,0,0,0-11,1.25Z"/><path d="M689.46,72.48H655.81v38h37.51V121.9H644.64V16.5h46.75V27.91H655.81V61.22h33.65Z"/><path d="M773.73,117.21A68.09,68.09,0,0,1,747.14,123c-13.1,0-23.89-4.07-32.37-13.92-7.45-8.76-12.07-22.83-12.07-39.26.13-31.43,17.85-54.42,46.88-54.42,10,0,17.85,2.66,21.58,4.85l-2.7,11.1c-4.62-2.5-10.4-4.53-19.14-4.53-21.06,0-34.81,16-34.81,42.38,0,26.74,13.23,42.54,33.4,42.54,7.32,0,12.33-1.25,14.9-2.82V77.49h-17.6V66.54h28.52Z"/><path d="M790.82,16.5H802v94h37V121.9H790.82Z"/><path d="M896.27,72.48H862.62v38h37.51V121.9H851.44V16.5H898.2V27.91H862.62V61.22h33.65Z"/><path d="M914.64,17.9a96.68,96.68,0,0,1,21.45-2.19c11.95,0,19.66,2.66,25,8.61C965.51,29,968,36.2,968,44.33c0,13.92-7.19,23.15-16.31,26.9v.47C958.32,74.52,962.3,82,964.35,93c2.83,14.7,4.88,24.87,6.68,28.93H959.47c-1.41-3-3.34-12-5.78-25.18-2.57-14.54-7.19-20-17.34-20.48H925.82V121.9H914.64Zm11.18,48h11.43c12,0,19.52-8,19.52-20,0-13.61-8.09-19.55-19.91-19.71a38.31,38.31,0,0,0-11,1.25Z"/><line class="cls-3" y1="131" x2="1205" y2="131"/></svg>
