<svg id="Layer_1" data-name="Layer 1" xmlns="http://www.w3.org/2000/svg" width="240" height="99" viewBox="0 0 240 99"><defs><style>.cls-1{fill:#1b1464;}.cls-1,.cls-2{stroke:#fff;stroke-miterlimit:10;stroke-width:3px;}.cls-2,.cls-3{fill:#fff;}</style></defs><title>knap-seetings</title><rect class="cls-1" x="16" y="22" width="211" height="67" rx="12" ry="12"/><rect class="cls-2" x="26" y="32" width="100" height="47" rx="12" ry="12"/><path class="cls-3" d="M176.18,55.73c0,10.45-8.79,16-19.51,16-11.09,0-18.88-6.22-18.88-15.42,0-9.64,8.29-16,19.51-16C168.77,40.36,176.18,46.71,176.18,55.73Zm-32.6.49c0,6.49,4.87,12.31,13.41,12.31s13.46-5.73,13.46-12.62c0-6-4.36-12.35-13.4-12.35S143.58,49.55,143.58,56.22Z"/><path class="cls-3" d="M183.22,71.23V40.85h5.93l13.46,15.37a82.1,82.1,0,0,1,7.54,9.87l.13,0a97.74,97.74,0,0,1-.63-12.49V40.85h5.11V71.23h-5.48L195.94,55.82a93.71,93.71,0,0,1-7.85-10.15l-.19,0c.31,3.83.44,7.48.44,12.53v13Z"/></svg>
