<svg id="Layer_1" data-name="Layer 1" xmlns="http://www.w3.org/2000/svg" width="452" height="188" viewBox="0 0 452 188"><defs><style>.cls-1{fill:#c7b299;}.cls-2{fill:#ffe89f;opacity:0.54;}</style></defs><title>Artboard 4</title><rect class="cls-1" x="11" y="30" width="427" height="148" rx="54.85" ry="54.85"/><rect class="cls-2" x="18" y="9" width="420" height="152" rx="57.28" ry="57.28"/><path d="M57,57.38a2.78,2.78,0,0,1,2.32-2.74,65,65,0,0,1,11.32-.94c7,0,12.16,2.14,15.43,6,3,3.42,4.82,8.66,4.82,15.07s-1.47,11.65-4.25,15.39c-3.76,5.24-9.88,7.91-16.82,7.91-.92,0-1.82,0-2.66-.09a2.81,2.81,0,0,0-3.06,2.77V123.5a2.78,2.78,0,0,1-2.78,2.78H59.81A2.79,2.79,0,0,1,57,123.5Zm7.1,30.24a2.8,2.8,0,0,0,2.44,2.76,25.82,25.82,0,0,0,3.44.2c8.58,0,13.8-5.45,13.8-15.39,0-9.52-5.14-14.11-13-14.11a34.65,34.65,0,0,0-4.29.24,2.78,2.78,0,0,0-2.41,2.76Z"/><path d="M100.47,57.42a2.77,2.77,0,0,1,2.26-2.73,62.85,62.85,0,0,1,11.37-1c7.6,0,12.49,1.82,15.92,5.88,2.78,3.21,4.33,8.12,4.33,13.68,0,9.51-4.57,15.82-10.37,18.39V92c4.25,1.92,6.78,7,8.08,14.53,1.28,7.14,2.31,12.72,3.21,16.35a2.78,2.78,0,0,1-2.7,3.43H131a2.79,2.79,0,0,1-2.69-2.07c-.8-3-1.8-8.24-3-15.14-1.64-9.94-4.58-13.68-11-14h-3.91a2.77,2.77,0,0,0-2.78,2.78V123.5a2.79,2.79,0,0,1-2.78,2.78h-1.54a2.78,2.78,0,0,1-2.78-2.78Zm7.1,27.81A2.77,2.77,0,0,0,110.35,88h4.49c7.59,0,12.41-5.45,12.41-13.68,0-9.3-5.15-13.36-12.66-13.47a32.56,32.56,0,0,0-4.66.31,2.78,2.78,0,0,0-2.36,2.75Z"/><path d="M144.53,124.92l3.31-6.15a2.75,2.75,0,0,0-.08-2.77c-4-6.36-6.39-15.33-6.39-25.32,0-22.76,11-37.62,25.39-37.62A19.23,19.23,0,0,1,178,56.69a2.79,2.79,0,0,0,4.07-.88l1.51-2.71a2.78,2.78,0,0,1,4.28-.73l.08.07a2.77,2.77,0,0,1,.58,3.42l-3.18,5.78a2.74,2.74,0,0,0,.06,2.78c4,6.44,6.24,15.3,6.24,25.2,0,25.11-11.84,37.83-25,37.83a19.56,19.56,0,0,1-11.51-3.74,2.8,2.8,0,0,0-4.08.88l-1.68,3a2.78,2.78,0,0,1-4.43.57h0A2.79,2.79,0,0,1,144.53,124.92ZM176,67.4a2.8,2.8,0,0,0-.63-3.47,13,13,0,0,0-8.64-3.39c-12,0-18,14.54-18,29.61a45.19,45.19,0,0,0,4.08,19.35l.08-.11Zm-18.76,45.7a2.82,2.82,0,0,0,.56,3.4,12.07,12.07,0,0,0,8.77,3.47c11.51,0,17.88-13.79,17.88-30a43.88,43.88,0,0,0-3.84-18.71h-.24Z"/><path d="M212.45,124.17,195.87,57.69a2.78,2.78,0,0,1,2.7-3.45h1.93a2.78,2.78,0,0,1,2.7,2.12l8.06,33.36c2.36,9.73,4.41,18.49,5.88,26.94h.16c1.55-8.34,3.84-17.42,6.29-26.83l8.76-33.52A2.78,2.78,0,0,1,235,54.24h1.81a2.78,2.78,0,0,1,2.68,3.51l-18.16,66.48a2.78,2.78,0,0,1-2.68,2h-3.55A2.78,2.78,0,0,1,212.45,124.17Z"/><path d="M270.86,57V123.5a2.79,2.79,0,0,1-2.78,2.78h-1.55a2.79,2.79,0,0,1-2.78-2.78V57a2.78,2.78,0,0,1,2.78-2.78h1.55A2.78,2.78,0,0,1,270.86,57Z"/><path d="M325.15,121.26a2.78,2.78,0,0,1-1.7,2.57,40.23,40.23,0,0,1-15.2,3.2c-8.33,0-15.19-2.78-20.57-9.52-4.74-6-7.68-15.6-7.68-26.83.08-21.48,11.35-37.19,29.8-37.19a29.75,29.75,0,0,1,11.67,2.25,2.77,2.77,0,0,1,1.58,3.15L322.58,61a2.79,2.79,0,0,1-3.77,2,24.06,24.06,0,0,0-9.17-1.63c-13.39,0-22.13,10.9-22.13,29,0,18.28,8.41,29.07,21.23,29.07a23.56,23.56,0,0,0,7.62-1,2.76,2.76,0,0,0,1.85-2.62v-17a2.78,2.78,0,0,0-2.78-2.78h-5.62A2.77,2.77,0,0,1,307,93.14V91.22a2.77,2.77,0,0,1,2.78-2.78h12.56a2.77,2.77,0,0,1,2.78,2.78Z"/><path d="M361.72,92.5H345.89a2.79,2.79,0,0,0-2.78,2.78V115.7a2.79,2.79,0,0,0,2.78,2.78h18.28a2.77,2.77,0,0,1,2.78,2.78v2.24a2.78,2.78,0,0,1-2.78,2.78H338.79A2.78,2.78,0,0,1,336,123.5V57a2.77,2.77,0,0,1,2.78-2.78H363A2.78,2.78,0,0,1,365.73,57v2.24A2.79,2.79,0,0,1,363,62H345.89a2.78,2.78,0,0,0-2.78,2.78V82a2.79,2.79,0,0,0,2.78,2.78h15.83a2.77,2.77,0,0,1,2.78,2.78v2.13A2.77,2.77,0,0,1,361.72,92.5Z"/><path d="M376.18,123.5V57A2.77,2.77,0,0,1,379,54.24h3.23a2.77,2.77,0,0,1,2.5,1.57l16.88,34.87a230,230,0,0,1,9.88,23.41l.16-.1c-.65-9.62-.81-18.39-.81-29.61V57a2.77,2.77,0,0,1,2.78-2.78h1.13A2.77,2.77,0,0,1,417.49,57V123.5a2.78,2.78,0,0,1-2.78,2.78h-2.65a2.79,2.79,0,0,1-2.51-1.58l-16.72-35a254.56,254.56,0,0,1-10.28-24l-.25.11c.41,9.09.57,17.74.57,29.71v28a2.78,2.78,0,0,1-2.78,2.78H379A2.78,2.78,0,0,1,376.18,123.5Z"/></svg>
