<svg id="Layer_1" data-name="Layer 1" xmlns="http://www.w3.org/2000/svg" width="1064" height="623" viewBox="0 0 1064 623"><defs><style>.cls-1{fill:#1b1464;}.cls-1,.cls-3{stroke:#fff;stroke-miterlimit:10;stroke-width:3px;}.cls-2,.cls-3{fill:#fff;}</style></defs><title>settings</title><rect class="cls-1" x="20.5" y="28" width="1020" height="570" rx="127.39" ry="127.39"/><path class="cls-2" d="M298.59,135.77a32.36,32.36,0,0,0,17.56,5.46c10,0,15.87-5.84,15.87-14.28,0-7.83-4-12.31-14.29-16.66-12.38-4.84-20-11.92-20-23.73,0-13,9.8-22.74,24.54-22.74,7.77,0,13.39,2,16.77,4.1l-2.7,8.83a28.06,28.06,0,0,0-14.41-4c-10.35,0-14.29,6.83-14.29,12.55,0,7.83,4.61,11.68,15.08,16.15,12.83,5.47,19.36,12.3,19.36,24.61,0,12.92-8.67,24.1-26.56,24.1-7.32,0-15.31-2.36-19.36-5.34Z"/><path class="cls-2" d="M394.71,109.67H365.22v30.2h32.87v9.07H355.43V65.19h41v9.07H365.22v26.47h29.49Z"/><path class="cls-2" d="M427,74.39H403.94v-9.2H460.1v9.2H436.91v74.55H427Z"/><path class="cls-2" d="M487.22,74.39H464.15v-9.2h56.16v9.2H497.12v74.55h-9.9Z"/><path class="cls-2" d="M538.54,65.19v83.75h-9.79V65.19Z"/><path class="cls-2" d="M555.65,148.94V65.19h10.69l24.31,42.37a245.39,245.39,0,0,1,13.62,27.21l.22-.12c-.9-11.18-1.12-21.37-1.12-34.42v-35h9.23v83.75h-9.91l-24.08-42.5a273.45,273.45,0,0,1-14.18-27.95l-.34.12c.56,10.56.79,20.63.79,34.54v35.79Z"/><path class="cls-2" d="M687.44,145.21a64.84,64.84,0,0,1-23.3,4.6c-11.48,0-20.93-3.23-28.36-11.06-6.53-7-10.58-18.14-10.58-31.19.11-25,15.64-43.24,41.08-43.24,8.78,0,15.64,2.11,18.91,3.85L682.83,77a36.18,36.18,0,0,0-16.77-3.61c-18.46,0-30.51,12.68-30.51,33.67,0,21.25,11.6,33.8,29.27,33.8,6.41,0,10.8-1,13-2.24v-25H662.45V105h25Z"/><path class="cls-2" d="M701.06,135.77a32.32,32.32,0,0,0,17.55,5.46c10,0,15.87-5.84,15.87-14.28,0-7.83-4.05-12.31-14.29-16.66-12.38-4.84-20-11.92-20-23.73,0-13,9.79-22.74,24.53-22.74,7.77,0,13.39,2,16.77,4.1l-2.7,8.83a28.06,28.06,0,0,0-14.41-4c-10.35,0-14.29,6.83-14.29,12.55,0,7.83,4.61,11.68,15.08,16.15,12.83,5.47,19.36,12.3,19.36,24.61,0,12.92-8.67,24.1-26.56,24.1-7.32,0-15.31-2.36-19.36-5.34Z"/><path class="cls-2" d="M88.56,253.43c-.36-5.09-.78-11.21-.71-15.76h-.22C86,242,84,246.5,81.61,251.54l-8.44,17.7H68.49l-7.73-17.38a137.24,137.24,0,0,1-5.54-14.19h-.14c-.14,4.55-.5,10.67-.92,16.14l-1.28,15.65H47L50.33,233H58.2l8.16,17.65a124.25,124.25,0,0,1,4.82,12.3h.21a116.77,116.77,0,0,1,5-12.3L84.94,233h7.87l3,36.5h-6Z"/><path class="cls-2" d="M111.46,233v21.61c0,8.18,4.75,11.64,11.13,11.64,7.1,0,11.63-3.57,11.63-11.64V233h6.25v21.28c0,11.21-7.73,15.82-18.09,15.82-9.79,0-17.16-4.28-17.16-15.6V233Z"/><path class="cls-2" d="M150.32,263.72a27.06,27.06,0,0,0,11.06,2.38c6.32,0,10-2.54,10-6.22,0-3.42-2.55-5.37-9-7.26-7.81-2.11-12.63-5.2-12.63-10.34,0-5.69,6.17-9.91,15.46-9.91a27.37,27.37,0,0,1,10.57,1.78l-1.7,3.85a23.71,23.71,0,0,0-9.08-1.74c-6.52,0-9,3-9,5.47,0,3.42,2.91,5.09,9.51,7,8.08,2.39,12.2,5.36,12.2,10.73,0,5.63-5.47,10.5-16.74,10.5-4.61,0-9.65-1-12.2-2.33Z"/><path class="cls-2" d="M192.3,233v36.5h-6.17V233Z"/><path class="cls-2" d="M236.49,268.27A39.26,39.26,0,0,1,223.86,270c-13.47,0-23.62-6.5-23.62-18.46,0-11.43,10.15-19.17,25-19.17,6,0,9.72,1,11.35,1.62l-1.49,3.84a28.71,28.71,0,0,0-9.65-1.51c-11.2,0-18.65,5.47-18.65,15.05,0,8.94,6.74,14.68,18.37,14.68a31.4,31.4,0,0,0,10.07-1.52Z"/><path class="cls-2" d="M242.51,247.58c0-2,1.77-3.41,4.25-3.41s4.12,1.41,4.19,3.41-1.63,3.36-4.26,3.36C244.21,250.94,242.51,249.48,242.51,247.58Zm0,19.12c0-2,1.77-3.41,4.25-3.41s4.12,1.4,4.19,3.41-1.63,3.36-4.26,3.36C244.21,270.06,242.51,268.59,242.51,266.7Z"/><rect class="cls-1" x="792" y="224.5" width="211" height="67" rx="12" ry="12"/><rect class="cls-3" x="802" y="234.5" width="100" height="47" rx="12" ry="12"/><path class="cls-2" d="M952.18,258.23c0,10.45-8.79,16-19.51,16-11.09,0-18.88-6.22-18.88-15.42,0-9.64,8.29-15.95,19.51-15.95C944.77,242.86,952.18,249.21,952.18,258.23Zm-32.6.49c0,6.49,4.87,12.31,13.41,12.31s13.46-5.73,13.46-12.62c0-6-4.36-12.35-13.4-12.35S919.58,252.05,919.58,258.72Z"/><path class="cls-2" d="M959.22,273.73V243.35h5.93l13.46,15.37a82.1,82.1,0,0,1,7.54,9.87l.13,0a97.74,97.74,0,0,1-.63-12.49V243.35h5.11v30.38h-5.48l-13.34-15.41a93.71,93.71,0,0,1-7.85-10.15l-.19.05c.31,3.83.44,7.48.44,12.53v13Z"/><path class="cls-2" d="M47.42,413.72a27.11,27.11,0,0,0,11.07,2.38c6.31,0,10-2.54,10-6.22,0-3.42-2.56-5.37-9-7.26-7.8-2.11-12.63-5.2-12.63-10.34,0-5.69,6.17-9.91,15.47-9.91a27.31,27.31,0,0,1,10.56,1.78L71.18,388a23.71,23.71,0,0,0-9.08-1.74c-6.52,0-9,3-9,5.47,0,3.42,2.9,5.09,9.5,7,8.08,2.39,12.2,5.36,12.2,10.73,0,5.63-5.46,10.5-16.74,10.5-4.61,0-9.64-1-12.2-2.33Z"/><path class="cls-2" d="M124.09,400.83c0,12.56-10,19.23-22.2,19.23-12.63,0-21.49-7.48-21.49-18.52,0-11.59,9.43-19.17,22.2-19.17C115.65,382.37,124.09,390,124.09,400.83Zm-37.1.6c0,7.79,5.54,14.78,15.25,14.78s15.32-6.88,15.32-15.16c0-7.26-5-14.84-15.25-14.84S87,393.41,87,401.43Z"/><path class="cls-2" d="M138.27,383v21.61c0,8.18,4.75,11.64,11.13,11.64,7.09,0,11.63-3.57,11.63-11.64V383h6.24v21.28c0,11.21-7.73,15.82-18.08,15.82-9.79,0-17.17-4.28-17.17-15.6V383Z"/><path class="cls-2" d="M178,419.46V383h6.74L200,401.43a100,100,0,0,1,8.58,11.86l.14-.06a123.53,123.53,0,0,1-.71-15V383h5.82v36.5h-6.25l-15.17-18.52a110.29,110.29,0,0,1-8.94-12.19l-.21.06c.35,4.6.49,9,.49,15.05v15.6Z"/><path class="cls-2" d="M224.64,383.45a113.73,113.73,0,0,1,13.12-.76c8.87,0,15.18,1.57,19.36,4.55a15.07,15.07,0,0,1,6.74,13.1A17,17,0,0,1,257,414.53c-4.47,3.41-11.84,5.26-21.13,5.26-4.4,0-8.09-.17-11.21-.44Zm6.17,32.27a50.22,50.22,0,0,0,6.24.27c13.19,0,20.36-5.63,20.36-15.48.07-8.61-6.32-14.08-19.37-14.08a45.83,45.83,0,0,0-7.23.48Z"/><path class="cls-2" d="M287.12,403.05v3.52H269.6v-3.52Z"/><path class="cls-2" d="M319.38,402.35H300.8v13.16h20.71v3.95H294.63V383h25.82v4H300.8v11.54h18.58Z"/><path class="cls-2" d="M329.52,383h25.75v4H335.69V399h18.09v3.9H335.69v16.52h-6.17Z"/><path class="cls-2" d="M364.06,383H389.8v4H370.23V399h18.08v3.9H370.23v16.52h-6.17Z"/><path class="cls-2" d="M423.35,402.35H404.77v13.16h20.7v3.95H398.6V383h25.81v4H404.77v11.54h18.58Z"/><path class="cls-2" d="M466.89,418.27A39.23,39.23,0,0,1,454.27,420c-13.48,0-23.62-6.5-23.62-18.46,0-11.43,10.14-19.17,25-19.17,6,0,9.72,1,11.35,1.62l-1.49,3.84a28.64,28.64,0,0,0-9.64-1.51c-11.21,0-18.66,5.47-18.66,15.05,0,8.94,6.74,14.68,18.37,14.68a31.4,31.4,0,0,0,10.07-1.52Z"/><path class="cls-2" d="M485.68,387H471.14v-4h35.39v4H491.92v32.49h-6.24Z"/><path class="cls-2" d="M510.57,413.72a27.06,27.06,0,0,0,11.06,2.38c6.32,0,10-2.54,10-6.22,0-3.42-2.55-5.37-9-7.26-7.81-2.11-12.63-5.2-12.63-10.34,0-5.69,6.17-9.91,15.46-9.91A27.37,27.37,0,0,1,536,384.15l-1.7,3.85a23.71,23.71,0,0,0-9.08-1.74c-6.52,0-9,3-9,5.47,0,3.42,2.91,5.09,9.51,7,8.08,2.39,12.2,5.36,12.2,10.73,0,5.63-5.47,10.5-16.74,10.5-4.61,0-9.65-1-12.2-2.33Z"/><path class="cls-2" d="M544.68,397.58c0-2,1.77-3.41,4.26-3.41s4.11,1.41,4.18,3.41-1.63,3.36-4.26,3.36S544.68,399.48,544.68,397.58Zm0,19.12c0-2,1.77-3.41,4.26-3.41s4.11,1.4,4.18,3.41-1.63,3.36-4.26,3.36S544.68,418.59,544.68,416.7Z"/><rect class="cls-1" x="797" y="352.5" width="211" height="67" rx="12" ry="12"/><rect class="cls-3" x="807" y="362.5" width="100" height="47" rx="12" ry="12"/><path class="cls-2" d="M957.18,386.23c0,10.45-8.79,16-19.51,16-11.09,0-18.88-6.22-18.88-15.42,0-9.64,8.29-15.95,19.51-15.95C949.77,370.86,957.18,377.21,957.18,386.23Zm-32.6.49c0,6.49,4.87,12.31,13.41,12.31s13.46-5.73,13.46-12.62c0-6-4.36-12.35-13.4-12.35S924.58,380.05,924.58,386.72Z"/><path class="cls-2" d="M964.22,401.73V371.35h5.93l13.46,15.37a82.1,82.1,0,0,1,7.54,9.87l.13,0a97.74,97.74,0,0,1-.63-12.49V371.35h5.11v30.38h-5.48l-13.34-15.41a93.71,93.71,0,0,1-7.85-10.15l-.19.05c.31,3.83.44,7.48.44,12.53v13Z"/></svg>
