<svg id="Layer_1" data-name="Layer 1" xmlns="http://www.w3.org/2000/svg" width="1025" height="575" viewBox="0 0 1025 575"><defs><style>.cls-1{fill:#1b1464;stroke:#fff;}.cls-1,.cls-3{stroke-miterlimit:10;stroke-width:3px;}.cls-2{fill:#fff;}.cls-3{fill:none;stroke:#000;}</style></defs><title>Artboard 29</title><rect class="cls-1" x="2.5" y="2.5" width="1020" height="570" rx="127.39" ry="127.39"/><path class="cls-2" d="M280.59,110.27a32.36,32.36,0,0,0,17.56,5.46c10,0,15.87-5.84,15.87-14.28,0-7.83-4-12.31-14.29-16.66-12.38-4.84-20-11.92-20-23.73,0-13,9.8-22.74,24.54-22.74,7.77,0,13.39,2,16.77,4.1l-2.7,8.83a28.06,28.06,0,0,0-14.41-4c-10.35,0-14.29,6.83-14.29,12.55,0,7.83,4.61,11.68,15.08,16.15C317.51,81.44,324,88.27,324,100.58c0,12.92-8.67,24.1-26.56,24.1-7.32,0-15.31-2.36-19.36-5.34Z"/><path class="cls-2" d="M376.71,84.17H347.22v30.2h32.87v9.07H337.43V39.69h41v9.07H347.22V75.23h29.49Z"/><path class="cls-2" d="M409,48.89H385.94v-9.2H442.1v9.2H418.91v74.55H409Z"/><path class="cls-2" d="M469.22,48.89H446.15v-9.2h56.16v9.2H479.12v74.55h-9.9Z"/><path class="cls-2" d="M520.54,39.69v83.75h-9.79V39.69Z"/><path class="cls-2" d="M537.65,123.44V39.69h10.69l24.31,42.37a245.39,245.39,0,0,1,13.62,27.21l.22-.12c-.9-11.18-1.12-21.37-1.12-34.42v-35h9.23v83.75h-9.91l-24.08-42.5A273.45,273.45,0,0,1,546.43,53l-.34.12c.56,10.56.79,20.63.79,34.54v35.79Z"/><path class="cls-2" d="M669.44,119.71a64.84,64.84,0,0,1-23.3,4.6c-11.48,0-20.93-3.23-28.36-11.06-6.53-7-10.58-18.14-10.58-31.19.11-25,15.64-43.24,41.08-43.24,8.78,0,15.64,2.11,18.91,3.85l-2.36,8.83a36.18,36.18,0,0,0-16.77-3.61c-18.46,0-30.51,12.68-30.51,33.67,0,21.25,11.6,33.8,29.27,33.8,6.41,0,10.8-1,13-2.24v-25H644.45v-8.7h25Z"/><path class="cls-2" d="M683.06,110.27a32.32,32.32,0,0,0,17.55,5.46c10,0,15.87-5.84,15.87-14.28,0-7.83-4.05-12.31-14.29-16.66-12.38-4.84-20-11.92-20-23.73,0-13,9.79-22.74,24.53-22.74,7.77,0,13.39,2,16.77,4.1l-2.7,8.83a28.06,28.06,0,0,0-14.41-4c-10.35,0-14.29,6.83-14.29,12.55,0,7.83,4.61,11.68,15.08,16.15,12.83,5.47,19.36,12.3,19.36,24.61,0,12.92-8.67,24.1-26.56,24.1-7.32,0-15.31-2.36-19.36-5.34Z"/><path class="cls-2" d="M70.56,227.93c-.36-5.09-.78-11.21-.71-15.76h-.22C68,216.45,66,221,63.61,226l-8.44,17.7H50.49l-7.73-17.38a137.24,137.24,0,0,1-5.54-14.19h-.14c-.14,4.55-.5,10.67-.92,16.14L34.88,244H29l3.33-36.5H40.2l8.16,17.65a124.25,124.25,0,0,1,4.82,12.3h.21a116.77,116.77,0,0,1,5-12.3l8.51-17.65h7.87l3,36.5h-6Z"/><path class="cls-2" d="M93.46,207.46v21.61c0,8.18,4.75,11.64,11.13,11.64,7.1,0,11.63-3.57,11.63-11.64V207.46h6.25v21.28c0,11.21-7.73,15.82-18.09,15.82-9.79,0-17.16-4.28-17.16-15.6v-21.5Z"/><path class="cls-2" d="M132.32,238.22a27.1,27.1,0,0,0,11.06,2.38c6.32,0,10-2.54,10-6.22,0-3.42-2.55-5.37-9-7.26-7.8-2.11-12.63-5.2-12.63-10.34,0-5.69,6.17-9.91,15.46-9.91a27.37,27.37,0,0,1,10.57,1.78l-1.7,3.85a23.71,23.71,0,0,0-9.08-1.74c-6.52,0-9,3-9,5.47,0,3.42,2.91,5.09,9.51,7,8.08,2.39,12.2,5.36,12.2,10.73,0,5.63-5.46,10.5-16.74,10.5-4.61,0-9.65-1-12.2-2.33Z"/><path class="cls-2" d="M174.3,207.46V244h-6.17v-36.5Z"/><path class="cls-2" d="M218.49,242.77a39.26,39.26,0,0,1-12.63,1.73c-13.47,0-23.62-6.5-23.62-18.46,0-11.43,10.15-19.17,25-19.17,6,0,9.72,1,11.35,1.62l-1.49,3.84a28.71,28.71,0,0,0-9.65-1.51c-11.2,0-18.65,5.47-18.65,15.05,0,8.94,6.74,14.68,18.37,14.68A31.4,31.4,0,0,0,217.21,239Z"/><path class="cls-2" d="M224.51,222.08c0-2,1.77-3.41,4.26-3.41s4.11,1.41,4.18,3.41-1.63,3.36-4.26,3.36C226.21,225.44,224.51,224,224.51,222.08Zm0,19.12c0-2,1.77-3.41,4.26-3.41s4.11,1.4,4.18,3.41-1.63,3.36-4.26,3.36C226.21,244.56,224.51,243.09,224.51,241.2Z"/><path class="cls-2" d="M29.42,388.22a27.11,27.11,0,0,0,11.07,2.38c6.31,0,10-2.54,10-6.22,0-3.42-2.56-5.37-9-7.26-7.8-2.11-12.63-5.2-12.63-10.34,0-5.69,6.17-9.91,15.47-9.91a27.31,27.31,0,0,1,10.56,1.78l-1.7,3.85a23.71,23.71,0,0,0-9.08-1.74c-6.52,0-9,3-9,5.47,0,3.42,2.9,5.09,9.5,7,8.08,2.39,12.2,5.36,12.2,10.73,0,5.63-5.46,10.5-16.74,10.5-4.61,0-9.64-1-12.2-2.33Z"/><path class="cls-2" d="M106.09,375.33c0,12.56-10,19.23-22.2,19.23-12.63,0-21.49-7.48-21.49-18.52,0-11.59,9.43-19.17,22.2-19.17C97.65,356.87,106.09,364.5,106.09,375.33Zm-37.1.6c0,7.79,5.54,14.78,15.25,14.78s15.32-6.88,15.32-15.16c0-7.26-5-14.84-15.25-14.84S69,367.91,69,375.93Z"/><path class="cls-2" d="M120.27,357.46v21.61c0,8.18,4.75,11.64,11.13,11.64,7.09,0,11.63-3.57,11.63-11.64V357.46h6.24v21.28c0,11.21-7.73,15.82-18.08,15.82-9.79,0-17.17-4.28-17.17-15.6v-21.5Z"/><path class="cls-2" d="M160,394v-36.5h6.74L182,375.93a100,100,0,0,1,8.58,11.86l.14-.06a123.53,123.53,0,0,1-.71-15V357.46h5.82V394h-6.25l-15.17-18.52a110.29,110.29,0,0,1-8.94-12.19l-.21.06c.35,4.6.49,9,.49,15.05V394Z"/><path class="cls-2" d="M206.64,358a113.73,113.73,0,0,1,13.12-.76c8.87,0,15.18,1.57,19.36,4.55a15.07,15.07,0,0,1,6.74,13.1A17,17,0,0,1,239,389c-4.47,3.41-11.84,5.26-21.13,5.26-4.4,0-8.09-.17-11.21-.44Zm6.17,32.27a50.22,50.22,0,0,0,6.24.27c13.19,0,20.36-5.63,20.36-15.48.07-8.61-6.32-14.08-19.37-14.08a45.83,45.83,0,0,0-7.23.48Z"/><path class="cls-2" d="M269.12,377.55v3.52H251.6v-3.52Z"/><path class="cls-2" d="M301.38,376.85H282.8V390h20.71V394H276.63v-36.5h25.82v4H282.8V373h18.58Z"/><path class="cls-2" d="M311.52,357.46h25.75v4H317.69v12.13h18.09v3.9H317.69V394h-6.17Z"/><path class="cls-2" d="M346.06,357.46H371.8v4H352.23v12.13h18.08v3.9H352.23V394h-6.17Z"/><path class="cls-2" d="M405.35,376.85H386.77V390h20.7V394H380.6v-36.5h25.81v4H386.77V373h18.58Z"/><path class="cls-2" d="M448.89,392.77a39.23,39.23,0,0,1-12.62,1.73c-13.48,0-23.62-6.5-23.62-18.46,0-11.43,10.14-19.17,25-19.17,6,0,9.72,1,11.35,1.62l-1.49,3.84a28.64,28.64,0,0,0-9.64-1.51c-11.21,0-18.66,5.47-18.66,15.05,0,8.94,6.74,14.68,18.37,14.68A31.4,31.4,0,0,0,447.61,389Z"/><path class="cls-2" d="M467.68,361.47H453.14v-4h35.39v4H473.92V394h-6.24Z"/><path class="cls-2" d="M492.57,388.22a27.1,27.1,0,0,0,11.06,2.38c6.32,0,10-2.54,10-6.22,0-3.42-2.55-5.37-9-7.26-7.8-2.11-12.63-5.2-12.63-10.34,0-5.69,6.17-9.91,15.46-9.91A27.37,27.37,0,0,1,518,358.65l-1.7,3.85a23.71,23.71,0,0,0-9.08-1.74c-6.52,0-9,3-9,5.47,0,3.42,2.91,5.09,9.51,7,8.08,2.39,12.2,5.36,12.2,10.73,0,5.63-5.46,10.5-16.74,10.5-4.61,0-9.65-1-12.2-2.33Z"/><path class="cls-2" d="M526.68,372.08c0-2,1.77-3.41,4.26-3.41s4.11,1.41,4.18,3.41-1.63,3.36-4.25,3.36S526.68,374,526.68,372.08Zm0,19.12c0-2,1.77-3.41,4.26-3.41s4.11,1.4,4.18,3.41-1.63,3.36-4.25,3.36S526.68,393.09,526.68,391.2Z"/><rect class="cls-2" x="902" y="42" width="57" height="57" rx="19.64" ry="19.64"/><path d="M939.36,42.5A19.17,19.17,0,0,1,958.5,61.64V79.36A19.17,19.17,0,0,1,939.36,98.5H921.64A19.17,19.17,0,0,1,902.5,79.36V61.64A19.17,19.17,0,0,1,921.64,42.5h17.72m0-1H921.64A20.2,20.2,0,0,0,901.5,61.64V79.36A20.2,20.2,0,0,0,921.64,99.5h17.72A20.2,20.2,0,0,0,959.5,79.36V61.64A20.2,20.2,0,0,0,939.36,41.5Z"/><line class="cls-3" x1="915" y1="51" x2="948" y2="86"/><line class="cls-3" x1="947" y1="51" x2="913" y2="87"/></svg>
