<svg id="Layer_1" data-name="Layer 1" xmlns="http://www.w3.org/2000/svg" width="1042" height="615" viewBox="0 0 1042 615"><defs><style>.cls-1{fill:#1b1464;stroke:#fff;stroke-miterlimit:10;stroke-width:3px;}.cls-2{fill:#fff;}</style></defs><title>settingsdone</title><rect class="cls-1" x="15.5" y="21.5" width="1020" height="570" rx="127.39" ry="127.39"/><path class="cls-2" d="M311.59,133.27a32.36,32.36,0,0,0,17.56,5.46c10,0,15.87-5.84,15.87-14.28,0-7.83-4-12.31-14.29-16.66-12.38-4.84-20-11.92-20-23.73,0-13,9.8-22.74,24.54-22.74,7.77,0,13.39,2,16.77,4.1l-2.7,8.83a28.06,28.06,0,0,0-14.41-4c-10.35,0-14.29,6.83-14.29,12.55,0,7.83,4.61,11.68,15.08,16.15,12.83,5.47,19.36,12.3,19.36,24.61,0,12.92-8.67,24.1-26.56,24.1-7.32,0-15.31-2.36-19.36-5.34Z"/><path class="cls-2" d="M407.71,107.17H378.22v30.2h32.87v9.07H368.43V62.69h41v9.07H378.22V98.23h29.49Z"/><path class="cls-2" d="M440,71.89H416.94v-9.2H473.1v9.2H449.91v74.55H440Z"/><path class="cls-2" d="M500.22,71.89H477.15v-9.2h56.16v9.2H510.12v74.55h-9.9Z"/><path class="cls-2" d="M551.54,62.69v83.75h-9.79V62.69Z"/><path class="cls-2" d="M568.65,146.44V62.69h10.69l24.31,42.37a245.39,245.39,0,0,1,13.62,27.21l.22-.12c-.9-11.18-1.12-21.37-1.12-34.42v-35h9.23v83.75h-9.91l-24.08-42.5A273.45,273.45,0,0,1,577.43,76l-.34.12c.56,10.56.79,20.63.79,34.54v35.79Z"/><path class="cls-2" d="M700.44,142.71a64.84,64.84,0,0,1-23.3,4.6c-11.48,0-20.93-3.23-28.36-11.06-6.53-7-10.58-18.14-10.58-31.19.11-25,15.64-43.24,41.08-43.24,8.78,0,15.64,2.11,18.91,3.85l-2.36,8.83a36.18,36.18,0,0,0-16.77-3.61c-18.46,0-30.51,12.68-30.51,33.67,0,21.25,11.6,33.8,29.27,33.8,6.41,0,10.8-1,13-2.23v-25H675.45v-8.7h25Z"/><path class="cls-2" d="M714.06,133.27a32.32,32.32,0,0,0,17.55,5.46c10,0,15.87-5.84,15.87-14.28,0-7.83-4.05-12.31-14.29-16.66-12.38-4.84-20-11.92-20-23.73,0-13,9.79-22.74,24.53-22.74,7.77,0,13.39,2,16.77,4.1l-2.7,8.83a28.06,28.06,0,0,0-14.41-4c-10.35,0-14.29,6.83-14.29,12.55,0,7.83,4.61,11.68,15.08,16.15,12.83,5.47,19.36,12.3,19.36,24.61,0,12.92-8.67,24.1-26.56,24.1-7.32,0-15.31-2.36-19.36-5.34Z"/><path class="cls-2" d="M101.56,250.93c-.36-5.09-.78-11.21-.71-15.76h-.22C99,239.45,97,244,94.61,249l-8.44,17.7H81.49l-7.73-17.38a137.24,137.24,0,0,1-5.54-14.19h-.14c-.14,4.55-.5,10.67-.92,16.14L65.88,267H60l3.33-36.5H71.2l8.16,17.65a124.25,124.25,0,0,1,4.82,12.3h.21a116.77,116.77,0,0,1,5-12.3l8.51-17.65h7.87l3,36.5h-6Z"/><path class="cls-2" d="M124.46,230.46v21.61c0,8.18,4.75,11.64,11.13,11.64,7.1,0,11.63-3.57,11.63-11.64V230.46h6.25v21.28c0,11.21-7.73,15.82-18.09,15.82-9.79,0-17.16-4.28-17.16-15.6v-21.5Z"/><path class="cls-2" d="M163.32,261.22a27.1,27.1,0,0,0,11.06,2.38c6.32,0,10-2.54,10-6.22,0-3.42-2.55-5.37-9-7.26-7.8-2.11-12.63-5.2-12.63-10.34,0-5.69,6.17-9.91,15.46-9.91a27.37,27.37,0,0,1,10.57,1.78l-1.7,3.85a23.71,23.71,0,0,0-9.08-1.74c-6.52,0-9,3-9,5.47,0,3.42,2.91,5.09,9.51,7,8.08,2.39,12.2,5.36,12.2,10.73,0,5.63-5.46,10.5-16.74,10.5-4.61,0-9.65-1-12.2-2.33Z"/><path class="cls-2" d="M205.3,230.46V267h-6.17v-36.5Z"/><path class="cls-2" d="M249.49,265.77a39.26,39.26,0,0,1-12.63,1.73c-13.47,0-23.62-6.5-23.62-18.46,0-11.43,10.15-19.17,25-19.17,6,0,9.72,1,11.35,1.62l-1.49,3.84a28.71,28.71,0,0,0-9.65-1.51c-11.2,0-18.65,5.47-18.65,15.05,0,8.94,6.74,14.68,18.37,14.68A31.4,31.4,0,0,0,248.21,262Z"/><path class="cls-2" d="M255.51,245.08c0-2,1.77-3.41,4.26-3.41s4.11,1.41,4.18,3.41-1.63,3.36-4.26,3.36S255.51,247,255.51,245.08Zm0,19.12c0-2,1.77-3.41,4.26-3.41s4.11,1.4,4.18,3.41-1.63,3.36-4.26,3.36S255.51,266.09,255.51,264.2Z"/><rect class="cls-1" x="766.5" y="209.5" width="211" height="67" rx="12" ry="12"/><path class="cls-2" d="M926.68,243.23c0,10.45-8.79,16-19.51,16-11.09,0-18.88-6.22-18.88-15.42,0-9.64,8.29-15.95,19.51-15.95C919.27,227.86,926.68,234.21,926.68,243.23Zm-32.6.49c0,6.49,4.87,12.31,13.41,12.31S921,250.3,921,243.41c0-6-4.36-12.35-13.4-12.35S894.08,237.05,894.08,243.72Z"/><path class="cls-2" d="M933.72,258.73V228.35h5.93l13.46,15.37a82.1,82.1,0,0,1,7.54,9.87l.13,0a97.74,97.74,0,0,1-.63-12.49V228.35h5.11v30.38h-5.48l-13.34-15.41a93.71,93.71,0,0,1-7.85-10.15l-.19.05c.31,3.83.44,7.48.44,12.53v13Z"/><path class="cls-2" d="M806.68,243.23c0,10.45-8.79,16-19.51,16-11.09,0-18.88-6.22-18.88-15.42,0-9.64,8.29-15.95,19.51-15.95C799.27,227.86,806.68,234.21,806.68,243.23Zm-32.6.49c0,6.49,4.87,12.31,13.41,12.31S801,250.3,801,243.41c0-6-4.36-12.35-13.4-12.35S774.08,237.05,774.08,243.72Z"/><path class="cls-2" d="M813.72,228.35h22.63v3.29h-17.2v10.1H835V245H819.15v13.75h-5.43Z"/><path class="cls-2" d="M844.08,228.35h22.63v3.29H849.5v10.1h15.9V245H849.5v13.75h-5.42Z"/><path class="cls-2" d="M806.68,399.23c0,10.45-8.79,16-19.51,16-11.09,0-18.88-6.22-18.88-15.42,0-9.64,8.29-15.95,19.51-15.95C799.27,383.86,806.68,390.21,806.68,399.23Zm-32.6.49c0,6.49,4.87,12.31,13.41,12.31S801,406.3,801,399.41c0-6-4.36-12.35-13.4-12.35S774.08,393.05,774.08,399.72Z"/><path class="cls-2" d="M813.72,384.35h22.63v3.29h-17.2v10.1H835V401H819.15v13.75h-5.43Z"/><path class="cls-2" d="M844.08,384.35h22.63v3.29H849.5v10.1h15.9V401H849.5v13.75h-5.42Z"/><path class="cls-2" d="M60.42,411.22a27.11,27.11,0,0,0,11.07,2.38c6.31,0,10-2.54,10-6.22,0-3.42-2.56-5.37-9-7.26-7.8-2.11-12.63-5.2-12.63-10.34,0-5.69,6.17-9.91,15.47-9.91a27.31,27.31,0,0,1,10.56,1.78l-1.7,3.85a23.71,23.71,0,0,0-9.08-1.74c-6.52,0-9,3-9,5.47,0,3.42,2.9,5.09,9.5,7,8.08,2.39,12.2,5.36,12.2,10.73,0,5.63-5.46,10.5-16.74,10.5-4.61,0-9.64-1-12.2-2.33Z"/><path class="cls-2" d="M137.09,398.33c0,12.56-10,19.23-22.2,19.23-12.63,0-21.49-7.48-21.49-18.52,0-11.59,9.43-19.17,22.2-19.17C128.65,379.87,137.09,387.5,137.09,398.33Zm-37.1.6c0,7.79,5.54,14.78,15.25,14.78s15.32-6.88,15.32-15.16c0-7.26-5-14.84-15.25-14.84S100,390.91,100,398.93Z"/><path class="cls-2" d="M151.27,380.46v21.61c0,8.18,4.75,11.64,11.13,11.64,7.09,0,11.63-3.57,11.63-11.64V380.46h6.24v21.28c0,11.21-7.73,15.82-18.08,15.82-9.79,0-17.17-4.28-17.17-15.6v-21.5Z"/><path class="cls-2" d="M191,417v-36.5h6.74L213,398.93a100,100,0,0,1,8.58,11.86l.14-.06a123.53,123.53,0,0,1-.71-15V380.46h5.82V417h-6.25l-15.17-18.52a110.29,110.29,0,0,1-8.94-12.19l-.21.06c.35,4.6.49,9,.49,15.05V417Z"/><path class="cls-2" d="M237.64,381a113.73,113.73,0,0,1,13.12-.76c8.87,0,15.18,1.57,19.36,4.55a15.07,15.07,0,0,1,6.74,13.1A17,17,0,0,1,270,412c-4.47,3.41-11.84,5.26-21.13,5.26-4.4,0-8.09-.17-11.21-.44Zm6.17,32.27a50.22,50.22,0,0,0,6.24.27c13.19,0,20.36-5.63,20.36-15.48.07-8.61-6.32-14.08-19.37-14.08a45.83,45.83,0,0,0-7.23.48Z"/><path class="cls-2" d="M300.12,400.55v3.52H282.6v-3.52Z"/><path class="cls-2" d="M332.38,399.85H313.8V413h20.71V417H307.63v-36.5h25.82v4H313.8V396h18.58Z"/><path class="cls-2" d="M342.52,380.46h25.75v4H348.69v12.13h18.09v3.9H348.69V417h-6.17Z"/><path class="cls-2" d="M377.06,380.46H402.8v4H383.23v12.13h18.08v3.9H383.23V417h-6.17Z"/><path class="cls-2" d="M436.35,399.85H417.77V413h20.7V417H411.6v-36.5h25.81v4H417.77V396h18.58Z"/><path class="cls-2" d="M479.89,415.77a39.23,39.23,0,0,1-12.62,1.73c-13.48,0-23.62-6.5-23.62-18.46,0-11.43,10.14-19.17,25-19.17,6,0,9.72,1,11.35,1.62l-1.49,3.84a28.64,28.64,0,0,0-9.64-1.51c-11.21,0-18.66,5.47-18.66,15.05,0,8.94,6.74,14.68,18.37,14.68A31.4,31.4,0,0,0,478.61,412Z"/><path class="cls-2" d="M498.68,384.47H484.14v-4h35.39v4H504.92V417h-6.24Z"/><path class="cls-2" d="M523.57,411.22a27.1,27.1,0,0,0,11.06,2.38c6.32,0,10-2.54,10-6.22,0-3.42-2.55-5.37-9-7.26-7.8-2.11-12.63-5.2-12.63-10.34,0-5.69,6.17-9.91,15.46-9.91A27.37,27.37,0,0,1,549,381.65l-1.7,3.85a23.71,23.71,0,0,0-9.08-1.74c-6.52,0-9,3-9,5.47,0,3.42,2.91,5.09,9.51,7,8.08,2.39,12.2,5.36,12.2,10.73,0,5.63-5.46,10.5-16.74,10.5-4.61,0-9.65-1-12.2-2.33Z"/><path class="cls-2" d="M557.68,395.08c0-2,1.77-3.41,4.26-3.41s4.11,1.41,4.18,3.41-1.63,3.36-4.25,3.36S557.68,397,557.68,395.08Zm0,19.12c0-2,1.77-3.41,4.26-3.41s4.11,1.4,4.18,3.41-1.63,3.36-4.25,3.36S557.68,416.09,557.68,414.2Z"/><rect class="cls-1" x="766.5" y="365.5" width="211" height="67" rx="12" ry="12"/><path class="cls-2" d="M926.68,399.23c0,10.45-8.79,16-19.51,16-11.09,0-18.88-6.22-18.88-15.42,0-9.64,8.29-15.95,19.51-15.95C919.27,383.86,926.68,390.21,926.68,399.23Zm-32.6.49c0,6.49,4.87,12.31,13.41,12.31S921,406.3,921,399.41c0-6-4.36-12.35-13.4-12.35S894.08,393.05,894.08,399.72Z"/><path class="cls-2" d="M933.72,414.73V384.35h5.93l13.46,15.37a82.1,82.1,0,0,1,7.54,9.87l.13,0a97.74,97.74,0,0,1-.63-12.49V384.35h5.11v30.38h-5.48l-13.34-15.41a93.71,93.71,0,0,1-7.85-10.15l-.19.05c.31,3.83.44,7.48.44,12.53v13Z"/><path class="cls-2" d="M807.45,397.5c0,10.46-8.79,16-19.51,16-11.1,0-18.89-6.22-18.89-15.42,0-9.64,8.29-15.95,19.51-15.95C800,382.13,807.45,388.48,807.45,397.5Zm-32.6.5c0,6.49,4.86,12.3,13.4,12.3s13.46-5.72,13.46-12.62c0-6-4.36-12.35-13.4-12.35S774.85,391.32,774.85,398Z"/><path class="cls-2" d="M814.49,382.63h22.63v3.29H819.91V396h15.9v3.25h-15.9V413h-5.42Z"/><path class="cls-2" d="M844.84,382.63h22.63v3.29h-17.2V396h15.89v3.25H850.27V413h-5.43Z"/></svg>
