<svg id="Layer_1" data-name="Layer 1" xmlns="http://www.w3.org/2000/svg" width="1920" height="1080" viewBox="0 0 1920 1080"><defs><style>.cls-1{fill:#1b1464;}.cls-1,.cls-3,.cls-4{stroke:#fff;stroke-miterlimit:10;stroke-width:3px;}.cls-2,.cls-3{fill:#fff;}.cls-4{fill:none;}</style></defs><title>Artboard 1</title><rect class="cls-1" x="304.5" y="255.5" width="1020" height="570" rx="127.39" ry="127.39"/><path class="cls-2" d="M582.59,363.27a32.36,32.36,0,0,0,17.56,5.46c10,0,15.87-5.84,15.87-14.28,0-7.83-4-12.31-14.29-16.66-12.38-4.84-20-11.92-20-23.73,0-13,9.8-22.74,24.54-22.74,7.77,0,13.39,2,16.77,4.1l-2.7,8.83a28.06,28.06,0,0,0-14.41-4c-10.35,0-14.29,6.83-14.29,12.55,0,7.83,4.61,11.68,15.08,16.15,12.83,5.47,19.36,12.3,19.36,24.61,0,12.92-8.67,24.1-26.56,24.1-7.32,0-15.31-2.36-19.36-5.34Z"/><path class="cls-2" d="M678.71,337.17H649.22v30.2h32.87v9.07H639.43V292.69h41v9.07H649.22v26.47h29.49Z"/><path class="cls-2" d="M711,301.89H687.94v-9.2H744.1v9.2H720.91v74.55H711Z"/><path class="cls-2" d="M771.22,301.89H748.15v-9.2h56.16v9.2H781.12v74.55h-9.9Z"/><path class="cls-2" d="M822.54,292.69v83.75h-9.79V292.69Z"/><path class="cls-2" d="M839.65,376.44V292.69h10.69l24.31,42.37a245.39,245.39,0,0,1,13.62,27.21l.22-.12c-.9-11.18-1.12-21.37-1.12-34.42v-35h9.23v83.75h-9.91l-24.08-42.5A273.45,273.45,0,0,1,848.43,306l-.34.12c.56,10.56.79,20.63.79,34.54v35.79Z"/><path class="cls-2" d="M971.44,372.71a64.84,64.84,0,0,1-23.3,4.6c-11.48,0-20.93-3.23-28.36-11.06-6.53-7-10.58-18.14-10.58-31.19.11-25,15.64-43.24,41.08-43.24,8.78,0,15.64,2.11,18.91,3.85l-2.36,8.83a36.18,36.18,0,0,0-16.77-3.61c-18.46,0-30.51,12.68-30.51,33.67,0,21.25,11.6,33.8,29.27,33.8,6.41,0,10.8-1,13-2.24v-25H946.45v-8.7h25Z"/><path class="cls-2" d="M985.06,363.27a32.32,32.32,0,0,0,17.55,5.46c10,0,15.87-5.84,15.87-14.28,0-7.83-4.05-12.31-14.29-16.66-12.38-4.84-20-11.92-20-23.73,0-13,9.79-22.74,24.53-22.74,7.77,0,13.39,2,16.77,4.1l-2.7,8.83a28.06,28.06,0,0,0-14.41-4c-10.35,0-14.29,6.83-14.29,12.55,0,7.83,4.61,11.68,15.08,16.15,12.83,5.47,19.36,12.3,19.36,24.61,0,12.92-8.67,24.1-26.56,24.1-7.32,0-15.31-2.36-19.36-5.34Z"/><path class="cls-2" d="M372.56,480.93c-.36-5.09-.78-11.21-.71-15.76h-.22c-1.63,4.28-3.61,8.83-6,13.87l-8.44,17.7h-4.68l-7.73-17.38a137.24,137.24,0,0,1-5.54-14.19h-.14c-.14,4.55-.5,10.67-.92,16.14L336.88,497H331l3.33-36.5h7.87l8.16,17.65a124.25,124.25,0,0,1,4.82,12.3h.21a116.77,116.77,0,0,1,5-12.3l8.51-17.65h7.87l3,36.5h-6Z"/><path class="cls-2" d="M395.46,460.46v21.61c0,8.18,4.75,11.64,11.13,11.64,7.1,0,11.63-3.57,11.63-11.64V460.46h6.25v21.28c0,11.21-7.73,15.82-18.09,15.82-9.79,0-17.16-4.28-17.16-15.6v-21.5Z"/><path class="cls-2" d="M434.32,491.22a27.1,27.1,0,0,0,11.06,2.38c6.32,0,10-2.54,10-6.22,0-3.42-2.55-5.37-9-7.26-7.8-2.11-12.63-5.2-12.63-10.34,0-5.69,6.17-9.91,15.46-9.91a27.37,27.37,0,0,1,10.57,1.78l-1.7,3.85a23.71,23.71,0,0,0-9.08-1.74c-6.52,0-9,3-9,5.47,0,3.42,2.91,5.09,9.51,7,8.08,2.39,12.2,5.36,12.2,10.73,0,5.63-5.46,10.5-16.74,10.5-4.61,0-9.65-1-12.2-2.33Z"/><path class="cls-2" d="M476.3,460.46V497h-6.17v-36.5Z"/><path class="cls-2" d="M520.49,495.77a39.26,39.26,0,0,1-12.63,1.73c-13.47,0-23.62-6.5-23.62-18.46,0-11.43,10.15-19.17,25-19.17,6,0,9.72,1,11.35,1.62l-1.49,3.84a28.71,28.71,0,0,0-9.65-1.51c-11.2,0-18.65,5.47-18.65,15.05,0,8.94,6.74,14.68,18.37,14.68A31.4,31.4,0,0,0,519.21,492Z"/><path class="cls-2" d="M526.51,475.08c0-2,1.77-3.41,4.26-3.41s4.11,1.41,4.18,3.41-1.63,3.36-4.26,3.36S526.51,477,526.51,475.08Zm0,19.12c0-2,1.77-3.41,4.26-3.41s4.11,1.4,4.18,3.41-1.63,3.36-4.26,3.36S526.51,496.09,526.51,494.2Z"/><rect class="cls-1" x="1037.5" y="439.5" width="211" height="67" rx="12" ry="12"/><rect class="cls-3" x="784.5" y="968.5" width="100" height="47" rx="12" ry="12"/><path class="cls-2" d="M1197.68,473.23c0,10.45-8.79,16-19.51,16-11.09,0-18.88-6.22-18.88-15.42,0-9.64,8.29-15.95,19.51-15.95C1190.27,457.86,1197.68,464.21,1197.68,473.23Zm-32.6.49c0,6.49,4.87,12.31,13.41,12.31S1192,480.3,1192,473.41c0-6-4.36-12.35-13.4-12.35S1165.08,467.05,1165.08,473.72Z"/><path class="cls-2" d="M1204.72,488.73V458.35h5.93l13.46,15.37a82.1,82.1,0,0,1,7.54,9.87l.13,0a97.74,97.74,0,0,1-.63-12.49V458.35h5.11v30.38h-5.48l-13.34-15.41a93.71,93.71,0,0,1-7.85-10.15l-.19.05c.31,3.83.44,7.48.44,12.53v13Z"/><path class="cls-2" d="M1077.68,473.23c0,10.45-8.79,16-19.51,16-11.09,0-18.88-6.22-18.88-15.42,0-9.64,8.29-15.95,19.51-15.95C1070.27,457.86,1077.68,464.21,1077.68,473.23Zm-32.6.49c0,6.49,4.87,12.31,13.41,12.31S1072,480.3,1072,473.41c0-6-4.36-12.35-13.4-12.35S1045.08,467.05,1045.08,473.72Z"/><path class="cls-2" d="M1084.72,458.35h22.63v3.29h-17.2v10.1H1106V475h-15.89v13.75h-5.43Z"/><path class="cls-2" d="M1115.08,458.35h22.63v3.29H1120.5v10.1h15.9V475h-15.9v13.75h-5.42Z"/><path class="cls-2" d="M1077.68,629.23c0,10.45-8.79,16-19.51,16-11.09,0-18.88-6.22-18.88-15.42,0-9.64,8.29-15.95,19.51-15.95C1070.27,613.86,1077.68,620.21,1077.68,629.23Zm-32.6.49c0,6.49,4.87,12.31,13.41,12.31S1072,636.3,1072,629.41c0-6-4.36-12.35-13.4-12.35S1045.08,623.05,1045.08,629.72Z"/><path class="cls-2" d="M1084.72,614.35h22.63v3.29h-17.2v10.1H1106V631h-15.89v13.75h-5.43Z"/><path class="cls-2" d="M1115.08,614.35h22.63v3.29H1120.5v10.1h15.9V631h-15.9v13.75h-5.42Z"/><path class="cls-2" d="M331.42,641.22a27.11,27.11,0,0,0,11.07,2.38c6.31,0,10-2.54,10-6.22,0-3.42-2.56-5.37-9-7.26-7.8-2.11-12.63-5.2-12.63-10.34,0-5.69,6.17-9.91,15.47-9.91a27.31,27.31,0,0,1,10.56,1.78l-1.7,3.85a23.71,23.71,0,0,0-9.08-1.74c-6.52,0-9,3-9,5.47,0,3.42,2.9,5.09,9.5,7,8.08,2.39,12.2,5.36,12.2,10.73,0,5.63-5.46,10.5-16.74,10.5-4.61,0-9.64-1-12.2-2.33Z"/><path class="cls-2" d="M408.09,628.33c0,12.56-10,19.23-22.2,19.23-12.63,0-21.49-7.48-21.49-18.52,0-11.59,9.43-19.17,22.2-19.17C399.65,609.87,408.09,617.5,408.09,628.33Zm-37.1.6c0,7.79,5.54,14.78,15.25,14.78s15.32-6.88,15.32-15.16c0-7.26-5-14.84-15.25-14.84S371,620.91,371,628.93Z"/><path class="cls-2" d="M422.27,610.46v21.61c0,8.18,4.75,11.64,11.13,11.64,7.09,0,11.63-3.57,11.63-11.64V610.46h6.24v21.28c0,11.21-7.73,15.82-18.08,15.82-9.79,0-17.17-4.28-17.17-15.6v-21.5Z"/><path class="cls-2" d="M462,647v-36.5h6.74L484,628.93a100,100,0,0,1,8.58,11.86l.14-.06a123.53,123.53,0,0,1-.71-15V610.46h5.82V647h-6.25l-15.17-18.52a110.29,110.29,0,0,1-8.94-12.19l-.21.06c.35,4.6.49,9,.49,15.05V647Z"/><path class="cls-2" d="M508.64,611a113.73,113.73,0,0,1,13.12-.76c8.87,0,15.18,1.57,19.36,4.55a15.07,15.07,0,0,1,6.74,13.1A17,17,0,0,1,541,642c-4.47,3.41-11.84,5.26-21.13,5.26-4.4,0-8.09-.17-11.21-.44Zm6.17,32.27a50.22,50.22,0,0,0,6.24.27c13.19,0,20.36-5.63,20.36-15.48.07-8.61-6.32-14.08-19.37-14.08a45.83,45.83,0,0,0-7.23.48Z"/><path class="cls-2" d="M571.12,630.55v3.52H553.6v-3.52Z"/><path class="cls-2" d="M603.38,629.85H584.8V643h20.71v4H578.63v-36.5h25.82v3.95H584.8V626h18.58Z"/><path class="cls-2" d="M613.52,610.46h25.75v3.95H619.69v12.13h18.09v3.9H619.69V647h-6.17Z"/><path class="cls-2" d="M648.06,610.46H673.8v3.95H654.23v12.13h18.08v3.9H654.23V647h-6.17Z"/><path class="cls-2" d="M707.35,629.85H688.77V643h20.7v4H682.6v-36.5h25.81v3.95H688.77V626h18.58Z"/><path class="cls-2" d="M750.89,645.77a39.23,39.23,0,0,1-12.62,1.73c-13.48,0-23.62-6.5-23.62-18.46,0-11.43,10.14-19.17,25-19.17,6,0,9.72,1,11.35,1.62l-1.49,3.84a28.64,28.64,0,0,0-9.64-1.51c-11.21,0-18.66,5.47-18.66,15,0,8.94,6.74,14.68,18.37,14.68A31.4,31.4,0,0,0,749.61,642Z"/><path class="cls-2" d="M769.68,614.47H755.14v-4h35.39v4H775.92V647h-6.24Z"/><path class="cls-2" d="M794.57,641.22a27.1,27.1,0,0,0,11.06,2.38c6.32,0,10-2.54,10-6.22,0-3.42-2.55-5.37-9-7.26-7.8-2.11-12.63-5.2-12.63-10.34,0-5.69,6.17-9.91,15.46-9.91A27.37,27.37,0,0,1,820,611.65l-1.7,3.85a23.71,23.71,0,0,0-9.08-1.74c-6.52,0-9,3-9,5.47,0,3.42,2.91,5.09,9.51,7,8.08,2.39,12.2,5.36,12.2,10.73,0,5.63-5.46,10.5-16.74,10.5-4.61,0-9.65-1-12.2-2.33Z"/><path class="cls-2" d="M828.68,625.08c0-2,1.77-3.41,4.26-3.41s4.11,1.41,4.18,3.41-1.63,3.36-4.25,3.36S828.68,627,828.68,625.08Zm0,19.12c0-2,1.77-3.41,4.26-3.41s4.11,1.4,4.18,3.41-1.63,3.36-4.25,3.36S828.68,646.09,828.68,644.2Z"/><rect class="cls-1" x="1037.5" y="595.5" width="211" height="67" rx="12" ry="12"/><path class="cls-2" d="M1197.68,629.23c0,10.45-8.79,16-19.51,16-11.09,0-18.88-6.22-18.88-15.42,0-9.64,8.29-15.95,19.51-15.95C1190.27,613.86,1197.68,620.21,1197.68,629.23Zm-32.6.49c0,6.49,4.87,12.31,13.41,12.31S1192,636.3,1192,629.41c0-6-4.36-12.35-13.4-12.35S1165.08,623.05,1165.08,629.72Z"/><path class="cls-2" d="M1204.72,644.73V614.35h5.93l13.46,15.37a82.1,82.1,0,0,1,7.54,9.87l.13,0a97.74,97.74,0,0,1-.63-12.49V614.35h5.11v30.38h-5.48l-13.34-15.41a93.71,93.71,0,0,1-7.85-10.15l-.19.05c.31,3.83.44,7.48.44,12.53v13Z"/><rect class="cls-1" x="1192.5" y="289.5" width="56" height="56" rx="12" ry="12"/><line class="cls-4" x1="1205.5" y1="301.5" x2="1235.5" y2="328.5"/><line class="cls-4" x1="1232.5" y1="301.5" x2="1205.5" y2="332.5"/><path class="cls-2" d="M1077.68,629.23c0,10.45-8.79,16-19.51,16-11.09,0-18.88-6.22-18.88-15.42,0-9.64,8.29-15.95,19.51-15.95C1070.27,613.86,1077.68,620.21,1077.68,629.23Zm-32.6.49c0,6.49,4.87,12.31,13.41,12.31S1072,636.3,1072,629.41c0-6-4.36-12.35-13.4-12.35S1045.08,623.05,1045.08,629.72Z"/><path class="cls-2" d="M1084.72,614.35h22.63v3.29h-17.2v10.1H1106V631h-15.89v13.75h-5.43Z"/><path class="cls-2" d="M1115.08,614.35h22.63v3.29H1120.5v10.1h15.9V631h-15.9v13.75h-5.42Z"/></svg>
