<svg id="Layer_1" data-name="Layer 1" xmlns="http://www.w3.org/2000/svg" width="371" height="144" viewBox="0 0 371 144"><defs><style>.cls-1{fill:#a67c52;}.cls-2{fill:#1b1464;}</style></defs><title>settingknap</title><rect class="cls-1" x="33" y="38" width="338.5" height="80.5" rx="22.42" ry="22.42"/><path class="cls-2" d="M51.29,97.61a2.12,2.12,0,0,1,2.88-1.5,23.71,23.71,0,0,0,9.58,2.11c6.66,0,10.54-3.41,10.54-8.35,0-4.57-2.69-7.18-9.49-9.72-8.22-2.83-13.31-7-13.31-13.87C51.49,58.66,58,53,67.79,53a26.43,26.43,0,0,1,8.92,1.4,2.66,2.66,0,0,1,1.39,3.38L78,58.2a2.12,2.12,0,0,1-2.74,1.47,20.74,20.74,0,0,0-7.64-1.44c-6.88,0-9.5,4-9.5,7.33,0,4.57,3.07,6.82,10,9.43C76.61,78.19,81,82.18,81,89.36c0,7.55-5.76,14.09-17.65,14.09a29.73,29.73,0,0,1-10.85-2.09,2.66,2.66,0,0,1-1.32-3.24Z"/><path class="cls-2" d="M113.73,79.78H98.55a2.39,2.39,0,0,0-2.2,2.54V94.88a2.39,2.39,0,0,0,2.2,2.54H116a2.39,2.39,0,0,1,2.21,2.54v.22a2.39,2.39,0,0,1-2.21,2.54H92.05a2.39,2.39,0,0,1-2.21-2.54V56.34a2.39,2.39,0,0,1,2.21-2.54h22.8a2.39,2.39,0,0,1,2.2,2.54v.22a2.39,2.39,0,0,1-2.2,2.54H98.55a2.38,2.38,0,0,0-2.2,2.54V72a2.39,2.39,0,0,0,2.2,2.54h15.18a2.38,2.38,0,0,1,2.2,2.54v.14A2.38,2.38,0,0,1,113.73,79.78Z"/><path class="cls-2" d="M135.18,59.17H124.27a2.39,2.39,0,0,1-2.21-2.54v-.29a2.39,2.39,0,0,1,2.21-2.54h32.89a2.39,2.39,0,0,1,2.21,2.54v.29a2.39,2.39,0,0,1-2.21,2.54h-11A2.39,2.39,0,0,0,144,61.71v38.47a2.39,2.39,0,0,1-2.2,2.54h-2.17a2.39,2.39,0,0,1-2.2-2.54V61.71A2.39,2.39,0,0,0,135.18,59.17Z"/><path class="cls-2" d="M175.17,59.17H164.26a2.39,2.39,0,0,1-2.21-2.54v-.29a2.39,2.39,0,0,1,2.21-2.54h32.89a2.39,2.39,0,0,1,2.21,2.54v.29a2.39,2.39,0,0,1-2.21,2.54h-11a2.39,2.39,0,0,0-2.2,2.54v38.47a2.39,2.39,0,0,1-2.21,2.54h-2.16a2.39,2.39,0,0,1-2.21-2.54V61.71A2.39,2.39,0,0,0,175.17,59.17Z"/><path class="cls-2" d="M211.47,56.34v43.84a2.39,2.39,0,0,1-2.21,2.54h-2.09a2.39,2.39,0,0,1-2.21-2.54V56.34a2.39,2.39,0,0,1,2.21-2.54h2.09A2.39,2.39,0,0,1,211.47,56.34Z"/><path class="cls-2" d="M222.83,100.18V56.34A2.39,2.39,0,0,1,225,53.8h3.79a2.12,2.12,0,0,1,1.77,1l15.48,23.74a137.07,137.07,0,0,1,9,15.89l.15-.07c-.6-6.53-.75-12.48-.75-20.1V56.34a2.39,2.39,0,0,1,2.21-2.54h1.72a2.39,2.39,0,0,1,2.2,2.54v43.84a2.39,2.39,0,0,1-2.2,2.54h-3.27a2.12,2.12,0,0,1-1.77-1L238.08,77.9a156.74,156.74,0,0,1-9.42-16.34l-.22.08c.37,6.17.52,12,.52,20.18v18.36a2.39,2.39,0,0,1-2.2,2.54H225A2.39,2.39,0,0,1,222.83,100.18Z"/><path class="cls-2" d="M310.37,98.62a2.51,2.51,0,0,1-1.62,2.46,48.18,48.18,0,0,1-13.85,2.15c-7.63,0-13.91-1.89-18.84-6.46-4.34-4.07-7-10.6-7-18.22.07-14.59,10.39-25.26,27.29-25.26a36.59,36.59,0,0,1,10.29,1.4A2.62,2.62,0,0,1,308.13,58l-.1.34a2.16,2.16,0,0,1-2.71,1.59,28.42,28.42,0,0,0-9.15-1.34c-12.26,0-20.26,7.4-20.26,19.67S283.61,98,295.35,98a28.44,28.44,0,0,0,7-.71A2.49,2.49,0,0,0,304,94.81V84.65a2.39,2.39,0,0,0-2.21-2.54H296a2.39,2.39,0,0,1-2.2-2.54h0A2.39,2.39,0,0,1,296,77h12.19a2.39,2.39,0,0,1,2.2,2.55Z"/><path class="cls-2" d="M318.61,97.61a2.13,2.13,0,0,1,2.89-1.5,23.71,23.71,0,0,0,9.58,2.11c6.65,0,10.54-3.41,10.54-8.35,0-4.57-2.69-7.18-9.49-9.72-8.23-2.83-13.31-7-13.31-13.87,0-7.62,6.5-13.28,16.3-13.28A26.32,26.32,0,0,1,344,54.4a2.66,2.66,0,0,1,1.4,3.38l-.15.42a2.13,2.13,0,0,1-2.74,1.47,20.75,20.75,0,0,0-7.65-1.44c-6.88,0-9.49,4-9.49,7.33,0,4.57,3.06,6.82,10,9.43,8.52,3.2,12.85,7.19,12.85,14.37,0,7.55-5.75,14.09-17.64,14.09a29.73,29.73,0,0,1-10.85-2.09,2.66,2.66,0,0,1-1.32-3.24Z"/></svg>
