<svg id="Layer_1" data-name="Layer 1" xmlns="http://www.w3.org/2000/svg" width="492" height="336" viewBox="0 0 492 336"><defs><style>.cls-1{fill:#1b1464;stroke:#fff;stroke-miterlimit:10;stroke-width:3px;}.cls-2{fill:#fff;}</style></defs><title>settingsdone1</title><rect class="cls-1" x="0.5" y="15.04" width="482.9" height="305.55" rx="127.39" ry="127.39"/><path class="cls-2" d="M140.68,75A14.11,14.11,0,0,0,149,77.89c4.74,0,7.52-3.13,7.52-7.66,0-4.2-1.92-6.6-6.77-8.93-5.86-2.59-9.49-6.39-9.49-12.72,0-7,4.64-12.19,11.62-12.19a13.75,13.75,0,0,1,7.94,2.2l-1.28,4.73a12.16,12.16,0,0,0-6.82-2.13c-4.9,0-6.77,3.66-6.77,6.73,0,4.19,2.19,6.26,7.14,8.65,6.08,2.94,9.17,6.6,9.17,13.19,0,6.93-4.1,12.92-12.58,12.92-3.46,0-7.24-1.26-9.16-2.86Z"/><path class="cls-2" d="M186.18,61h-14V77.16h15.56V82H167.59V37.13H187V42H172.22V56.17h14Z"/><path class="cls-2" d="M201.48,42.05H190.55V37.13h26.59v4.92h-11V82h-4.68Z"/><path class="cls-2" d="M230,42.05H219.06V37.13h26.59v4.92h-11V82H230Z"/><path class="cls-2" d="M254.28,37.13V82h-4.64V37.13Z"/><path class="cls-2" d="M262.38,82V37.13h5.06L279,59.84a141.55,141.55,0,0,1,6.45,14.58l.1-.06c-.42-6-.53-11.46-.53-18.45V37.13h4.37V82h-4.69l-11.4-22.78a154.75,154.75,0,0,1-6.72-15l-.16.07c.27,5.66.38,11.06.38,18.52V82Z"/><path class="cls-2" d="M324.77,80a27.7,27.7,0,0,1-11,2.46c-5.43,0-9.91-1.73-13.43-5.92-3.09-3.73-5-9.73-5-16.72.05-13.39,7.4-23.18,19.44-23.18a18.51,18.51,0,0,1,9,2.06l-1.12,4.73a15.57,15.57,0,0,0-7.94-1.93c-8.74,0-14.44,6.8-14.44,18s5.49,18.12,13.85,18.12c3,0,5.12-.53,6.18-1.2V63.1h-7.3V58.44h11.83Z"/><path class="cls-2" d="M331.22,75a14.08,14.08,0,0,0,8.31,2.93c4.74,0,7.51-3.13,7.51-7.66,0-4.2-1.91-6.6-6.76-8.93-5.86-2.59-9.49-6.39-9.49-12.72,0-7,4.64-12.19,11.62-12.19a13.78,13.78,0,0,1,7.94,2.2l-1.28,4.73a12.16,12.16,0,0,0-6.82-2.13c-4.9,0-6.77,3.66-6.77,6.73,0,4.19,2.19,6.26,7.14,8.65,6.08,2.94,9.17,6.6,9.17,13.19,0,6.93-4.11,12.92-12.58,12.92-3.46,0-7.25-1.26-9.16-2.86Z"/><path class="cls-2" d="M41.24,138c-.17-2.73-.37-6-.34-8.45h-.1C40,131.87,39.09,134.31,38,137l-4,9.5H31.74l-3.66-9.32a79,79,0,0,1-2.62-7.61h-.07c-.06,2.44-.23,5.72-.43,8.65l-.61,8.39H21.57l1.57-19.57h3.73l3.86,9.47c.94,2.41,1.71,4.56,2.28,6.59h.1a66.19,66.19,0,0,1,2.39-6.59l4-9.47h3.72l1.41,19.57H41.81Z"/><path class="cls-2" d="M52.08,127.05v11.59c0,4.38,2.25,6.24,5.27,6.24,3.36,0,5.51-1.92,5.51-6.24V127.05h3v11.41c0,6-3.66,8.48-8.56,8.48-4.63,0-8.12-2.29-8.12-8.36V127.05Z"/><path class="cls-2" d="M70.48,143.54a11.56,11.56,0,0,0,5.24,1.28c3,0,4.73-1.36,4.73-3.34,0-1.83-1.21-2.87-4.26-3.89-3.69-1.13-6-2.79-6-5.54,0-3.05,2.92-5.32,7.32-5.32a11.61,11.61,0,0,1,5,1l-.8,2.06a10.11,10.11,0,0,0-4.3-.93c-3.09,0-4.26,1.6-4.26,2.94,0,1.83,1.37,2.73,4.5,3.77,3.82,1.28,5.77,2.88,5.77,5.75,0,3-2.58,5.63-7.92,5.63a13.3,13.3,0,0,1-5.78-1.24Z"/><path class="cls-2" d="M90.36,127.05v19.57H87.44V127.05Z"/><path class="cls-2" d="M111.27,146a16.32,16.32,0,0,1-6,.93c-6.38,0-11.18-3.48-11.18-9.9,0-6.13,4.8-10.28,11.81-10.28a13.83,13.83,0,0,1,5.38.87l-.71,2.07a11.92,11.92,0,0,0-4.56-.82c-5.31,0-8.83,2.93-8.83,8.07,0,4.8,3.19,7.87,8.69,7.87a13.4,13.4,0,0,0,4.77-.81Z"/><path class="cls-2" d="M114.13,134.89a2,2,0,0,1,4,0,2,2,0,0,1-4,0Zm0,10.25a2,2,0,0,1,4,0,2,2,0,0,1-4,0Z"/><rect class="cls-1" x="356.05" y="115.82" width="99.89" height="35.92" rx="12" ry="12"/><path class="cls-2" d="M431.88,133.9c0,5.61-4.16,8.58-9.23,8.58-5.26,0-8.94-3.34-8.94-8.27,0-5.17,3.92-8.55,9.23-8.55S431.88,129.06,431.88,133.9Zm-15.43.26c0,3.48,2.3,6.6,6.34,6.6s6.38-3.07,6.38-6.76c0-3.24-2.07-6.63-6.35-6.63S416.45,130.59,416.45,134.16Z"/><path class="cls-2" d="M435.22,142.21V125.92H438l6.37,8.24a44.63,44.63,0,0,1,3.58,5.3l0,0a60.75,60.75,0,0,1-.29-6.69v-6.82h2.42v16.29h-2.6L441.24,134a50.26,50.26,0,0,1-3.72-5.44l-.09,0c.15,2.06.21,4,.21,6.72v7Z"/><path class="cls-2" d="M375.07,133.9c0,5.61-4.16,8.58-9.24,8.58-5.25,0-8.94-3.34-8.94-8.27,0-5.17,3.93-8.55,9.24-8.55S375.07,129.06,375.07,133.9Zm-15.43.26c0,3.48,2.3,6.6,6.34,6.6s6.38-3.07,6.38-6.76c0-3.24-2.07-6.63-6.35-6.63S359.64,130.59,359.64,134.16Z"/><path class="cls-2" d="M378.4,125.92h10.72v1.77H381v5.41h7.53v1.74H381v7.37H378.4Z"/><path class="cls-2" d="M392.78,125.92h10.71v1.77h-8.15v5.41h7.53v1.74h-7.53v7.37h-2.56Z"/><path class="cls-2" d="M375.07,217.52c0,5.61-4.16,8.58-9.24,8.58-5.25,0-8.94-3.33-8.94-8.26,0-5.18,3.93-8.56,9.24-8.56S375.07,212.69,375.07,217.52Zm-15.43.27c0,3.48,2.3,6.6,6.34,6.6s6.38-3.07,6.38-6.77c0-3.24-2.07-6.62-6.35-6.62S359.64,214.21,359.64,217.79Z"/><path class="cls-2" d="M378.4,209.55h10.72v1.76H381v5.41h7.53v1.74H381v7.38H378.4Z"/><path class="cls-2" d="M392.78,209.55h10.71v1.76h-8.15v5.41h7.53v1.74h-7.53v7.38h-2.56Z"/><path class="cls-2" d="M21.77,224A11.52,11.52,0,0,0,27,225.23c3,0,4.74-1.36,4.74-3.34,0-1.83-1.21-2.87-4.27-3.89-3.69-1.13-6-2.79-6-5.55,0-3,2.92-5.31,7.32-5.31a11.53,11.53,0,0,1,5,1L33,210.16a10.09,10.09,0,0,0-4.29-.93c-3.09,0-4.27,1.6-4.27,2.93,0,1.83,1.38,2.73,4.5,3.78,3.83,1.28,5.77,2.87,5.77,5.75s-2.58,5.63-7.92,5.63A13.1,13.1,0,0,1,21,226.07Z"/><path class="cls-2" d="M58.06,217c0,6.74-4.74,10.31-10.51,10.31-6,0-10.17-4-10.17-9.93,0-6.21,4.46-10.28,10.51-10.28S58.06,211.23,58.06,217Zm-17.56.32c0,4.18,2.62,7.93,7.22,7.93S55,221.6,55,217.16c0-3.89-2.35-8-7.22-8S40.5,213.06,40.5,217.36Z"/><path class="cls-2" d="M64.77,207.46v11.59c0,4.38,2.25,6.24,5.27,6.24,3.36,0,5.51-1.92,5.51-6.24V207.46h3v11.41c0,6-3.65,8.48-8.56,8.48-4.63,0-8.12-2.29-8.12-8.36V207.46Z"/><path class="cls-2" d="M83.58,227V207.46h3.19l7.25,9.9a56.38,56.38,0,0,1,4.06,6.36l.07,0a74.79,74.79,0,0,1-.34-8v-8.19h2.75V227h-3l-7.19-9.93a63.09,63.09,0,0,1-4.23-6.53l-.1,0c.17,2.46.24,4.82.24,8.07V227Z"/><path class="cls-2" d="M105.67,207.72a48.56,48.56,0,0,1,6.21-.41c4.19,0,7.18.85,9.16,2.44a8.44,8.44,0,0,1,3.19,7,9.62,9.62,0,0,1-3.25,7.61c-2.12,1.83-5.61,2.82-10,2.82a52.53,52.53,0,0,1-5.3-.24ZM108.59,225a22.36,22.36,0,0,0,3,.14c6.25,0,9.64-3,9.64-8.3,0-4.62-3-7.55-9.17-7.55a18.63,18.63,0,0,0-3.42.26Z"/><path class="cls-2" d="M135.24,218.23v1.89H127v-1.89Z"/><path class="cls-2" d="M150.52,217.86h-8.8v7h9.81V227H138.8V207.46H151v2.12h-9.3v6.18h8.8Z"/><path class="cls-2" d="M155.32,207.46h12.19v2.12h-9.27v6.5h8.56v2.09h-8.56V227h-2.92Z"/><path class="cls-2" d="M171.67,207.46h12.19v2.12h-9.27v6.5h8.56v2.09h-8.56V227h-2.92Z"/><path class="cls-2" d="M199.74,217.86h-8.8v7h9.81V227H188V207.46h12.22v2.12h-9.3v6.18h8.8Z"/><path class="cls-2" d="M220.35,226.39a16.32,16.32,0,0,1-6,.93c-6.38,0-11.18-3.48-11.18-9.9,0-6.13,4.8-10.28,11.82-10.28a13.8,13.8,0,0,1,5.37.87l-.71,2.06a12.13,12.13,0,0,0-4.56-.81c-5.31,0-8.83,2.93-8.83,8.07,0,4.79,3.19,7.87,8.69,7.87a13.4,13.4,0,0,0,4.77-.81Z"/><path class="cls-2" d="M229.25,209.61h-6.88v-2.15h16.75v2.15h-6.91V227h-3Z"/><path class="cls-2" d="M241,224a11.52,11.52,0,0,0,5.23,1.28c3,0,4.74-1.36,4.74-3.34,0-1.83-1.21-2.87-4.27-3.89-3.69-1.13-6-2.79-6-5.55,0-3,2.92-5.31,7.32-5.31a11.53,11.53,0,0,1,5,1l-.81,2.06a10.11,10.11,0,0,0-4.3-.93c-3.08,0-4.26,1.6-4.26,2.93,0,1.83,1.38,2.73,4.5,3.78,3.83,1.28,5.77,2.87,5.77,5.75s-2.58,5.63-7.92,5.63a13.1,13.1,0,0,1-5.77-1.25Z"/><path class="cls-2" d="M257.19,215.3a2,2,0,0,1,4,0,2,2,0,0,1-4,0Zm0,10.25a2,2,0,0,1,4,0,2,2,0,0,1-4,0Z"/><rect class="cls-1" x="356.05" y="199.45" width="99.89" height="35.92" rx="12" ry="12"/><path class="cls-2" d="M431.88,217.52c0,5.61-4.16,8.58-9.23,8.58-5.26,0-8.94-3.33-8.94-8.26,0-5.18,3.92-8.56,9.23-8.56S431.88,212.69,431.88,217.52Zm-15.43.27c0,3.48,2.3,6.6,6.34,6.6s6.38-3.07,6.38-6.77c0-3.24-2.07-6.62-6.35-6.62S416.45,214.21,416.45,217.79Z"/><path class="cls-2" d="M435.22,225.84V209.55H438l6.37,8.24a44.58,44.58,0,0,1,3.58,5.29l0,0a61.05,61.05,0,0,1-.29-6.7v-6.81h2.42v16.29h-2.6l-6.31-8.27a48.38,48.38,0,0,1-3.72-5.44l-.09,0c.15,2.05.21,4,.21,6.72v7Z"/><path class="cls-2" d="M376.54,217.42c0,5.33-4.48,8.16-10,8.16-5.66,0-9.64-3.17-9.64-7.86,0-4.92,4.23-8.14,9.95-8.14S376.54,212.82,376.54,217.42Zm-16.63.25c0,3.31,2.48,6.28,6.84,6.28s6.86-2.92,6.86-6.44c0-3.08-2.22-6.3-6.83-6.3S359.91,214.27,359.91,217.67Z"/><path class="cls-2" d="M380.14,209.83h11.54v1.68H382.9v5.15H391v1.66H382.9v7h-2.76Z"/><path class="cls-2" d="M395.62,209.83h11.55v1.68h-8.78v5.15h8.11v1.66h-8.11v7h-2.77Z"/></svg>
