<svg id="Layer_1" data-name="Layer 1" xmlns="http://www.w3.org/2000/svg" width="232" height="420" viewBox="0 0 232 420"><defs><style>.cls-1{fill:#999;opacity:0.58;}.cls-2{fill:#39b54a;}.cls-3{fill:#8c6239;}.cls-4{fill:#603813;}.cls-10,.cls-5{stroke:#000;}.cls-10,.cls-11,.cls-5{stroke-miterlimit:10;}.cls-6{fill:#006837;}.cls-7{fill:#223c4f;}.cls-8{fill:#fbb03b;}.cls-9{fill:#fff;}.cls-10,.cls-11{fill:none;}.cls-11{stroke:#ff1f32;stroke-linecap:round;stroke-width:3px;}.cls-12{fill:#f7931e;}.cls-13{fill:#f15a24;}</style></defs><title>smiler2</title><ellipse class="cls-1" cx="116" cy="374" rx="93" ry="34.5"/><path class="cls-2" d="M83.31,217.14c-8.86,16.21-13.22,23-19.85,19.42s-7.79-16.44,1.07-32.65,16.19-26.3,22.82-22.68S92.17,200.93,83.31,217.14Z"/><path class="cls-2" d="M56.34,264.25c-1.23-18.74.76-48.26,8.2-48.75s15.7,26.35,12.89,49"/><path class="cls-3" d="M77.2,261a11.41,11.41,0,0,1-10.82,12c-6.6.51-9.8-5.61-10.28-11.67"/><path d="M114.54,381.5c0,9.11,35.33,3,53,3s12-23.89,12-33-17.33,3-35,3c-4.16,0-7.52-7.64-11-6C122.25,353.81,114.54,374.53,114.54,381.5Z"/><path d="M67.71,385c2.51,8.76,34.79-6.83,51.79-11.69s5-26.27,2.46-35-15.83,7.65-32.83,12.51c-4,1.14-9.33-5.27-12.22-2.74C67.51,356.26,65.8,378.31,67.71,385Z"/><rect class="cls-4" x="132.54" y="254.5" width="47" height="100" rx="12" ry="12" transform="translate(312.08 609) rotate(-180)"/><rect class="cls-4" x="70.75" y="287.42" width="42.67" height="66.05" rx="12" ry="12" transform="translate(268.13 603.59) rotate(164.16)"/><rect class="cls-4" x="69.54" y="254.5" width="46" height="61" rx="12" ry="12" transform="translate(114.16 583.87) rotate(-166.15)"/><rect class="cls-5" x="63.04" y="94" width="123" height="82" rx="12" ry="12" transform="translate(249.08 270) rotate(-180)"/><path class="cls-6" d="M179.54,263.5c0-23.82-10.19-87.26-26-96-9.49-5.24-16.57-2-29-2-9.93,0-19-1.68-28,1a67.59,67.59,0,0,0-7,3c-17,8.52-20,69.4-20,94"/><rect class="cls-7" x="108.54" y="190.5" width="49" height="80" transform="translate(352.42 381.18) rotate(154.48)"/><circle class="cls-8" cx="133.04" cy="235" r="18.5"/><path class="cls-2" d="M145.54,215.5c0,18.78.55,27,8,27s19-8.22,19-27-6-34-13.5-34S145.54,196.72,145.54,215.5Z"/><path class="cls-2" d="M132.54,260.5c16.73-8.54,38.39-24.36,35-31s-28-1-46,13"/><path class="cls-3" d="M121.54,242.5a11.41,11.41,0,0,0-4.36,15.58c3.11,5.85,10,5.27,15.36,2.42"/><path class="cls-3" d="M67.54,112.5c0,13.18-2.56,35.73,6,45,10.45,11.32,33.69,8,51,8,19.68,0,39.76,3.1,50-11,6.15-8.46,7-31,7-42,0-29.27-25.52-53-57-53S67.54,83.23,67.54,112.5Z"/><circle class="cls-9" cx="147.54" cy="129.5" r="10"/><circle class="cls-9" cx="97.54" cy="129.5" r="10"/><circle cx="147.04" cy="130" r="4.5"/><circle cx="98.04" cy="129" r="4.5"/><path class="cls-10" d="M112.54,143.5c0,.67,5.2,2.72,10.5,2.5,3.45-.14,6.17-2,9-2"/><path class="cls-10" d="M159.54,119.5c0-4.42-6.71-8-15-8"/><path class="cls-10" d="M79.54,119.5c0-4.42,6.71-8,15-8"/><path class="cls-11" d="M107,150.23c.55,7.83,21.84,14.05,30,1.54"/><path class="cls-12" d="M185.54,100.5c0-26.41-27.55-63-61.54-63s-60.46,36.59-60.46,63"/><rect class="cls-13" x="57.54" y="82.5" width="136" height="27" rx="8.5" ry="8.5" transform="translate(251.08 192) rotate(180)"/></svg>
