<svg id="Layer_1" data-name="Layer 1" xmlns="http://www.w3.org/2000/svg" width="235" height="417" viewBox="0 0 235 417"><defs><style>.cls-1{fill:#999;opacity:0.58;}.cls-2{fill:#c1272d;}.cls-3{fill:#ffe09f;}.cls-4{fill:#42210b;}.cls-5{fill:#fff;}.cls-6,.cls-7{fill:none;stroke-miterlimit:10;}.cls-6{stroke:#000;}.cls-7{stroke:#ff1f32;stroke-linecap:round;stroke-width:3px;}.cls-8{fill:#754c24;}.cls-9{fill:#78272d;}.cls-10{fill:#009245;}.cls-11{fill:#39b54a;}.cls-12{fill:#b49400;}.cls-13{fill:#29abe2;}</style></defs><title>smiler1</title><ellipse class="cls-1" cx="117.5" cy="361.5" rx="93" ry="34.5"/><path class="cls-2" d="M150.84,188.64c8.85,16.21,13.22,23,19.85,19.42s7.79-16.44-1.07-32.65-16.19-26.3-22.82-22.68S142,172.43,150.84,188.64Z"/><path class="cls-2" d="M177.81,235.75c1.23-18.74-.76-48.26-8.2-48.75s-15.7,26.35-12.89,49"/><path class="cls-3" d="M157,232.5a11.41,11.41,0,0,0,10.82,12c6.6.51,9.8-5.61,10.27-11.67"/><path d="M173.17,371.51c-2.5,8.76-34.79-6.83-51.78-11.69s-5-26.27-2.46-35,15.83,7.65,32.82,12.51c4,1.14,9.33-5.27,12.23-2.74C173.37,342.76,175.09,364.81,173.17,371.51Z"/><rect class="cls-4" x="61.35" y="241" width="47" height="100" rx="12" ry="12"/><rect class="cls-4" x="127.47" y="273.92" width="42.67" height="66.05" rx="12" ry="12" transform="translate(89.43 -28.96) rotate(15.84)"/><rect class="cls-4" x="125.35" y="241" width="46" height="61" rx="12" ry="12" transform="translate(-60.68 43.41) rotate(-13.85)"/><path class="cls-3" d="M53.35,77c0,13.18-2.56,35.73,6,45,10.45,11.32,33.69,8,51,8,19.67,0,39.75,3.1,50-11,6.14-8.46,7-31,7-42,0-29.27-25.52-53-57-53S53.35,47.73,53.35,77Z"/><circle class="cls-5" cx="133.35" cy="95" r="10"/><circle class="cls-5" cx="83.35" cy="95" r="10"/><circle cx="132.85" cy="95.5" r="4.5"/><circle cx="83.85" cy="94.5" r="4.5"/><path class="cls-6" d="M98.35,109c0,.67,5.19,2.72,10.5,2.5,3.45-.14,6.16-2,9-2"/><path class="cls-6" d="M145.35,85c0-4.42-6.71-8-15-8"/><path class="cls-6" d="M65.35,85c0-4.42,6.7-8,15-8"/><path class="cls-7" d="M93.5,117c.55,10.19,21.84,18.28,30,2"/><path class="cls-8" d="M53.35,76c0,4.35,8.53-18.09,26-29,8.05-5,23.15,0,31,0,8.76,0,18.31-5.58,27,0,15.94,10.23,30,33.11,30,29a47.87,47.87,0,0,0-2-15c-2.24-7.21-6.94-15.47-13-21-10.52-9.59-30.44-17-42-17-10.51,0-29.87,4.14-40,13-8.1,7.09-13.71,18.16-16,27A41.69,41.69,0,0,0,53.35,76Z"/><path class="cls-9" d="M172.86,251.94C172,223,159.08,146.12,142.31,136c-10.06-6.08-17.31-1.92-30.24-1.53-10.33.31-19.87-1.45-29.09,2.09a66.59,66.59,0,0,0-7.17,3.87c-17.37,10.9-18.27,85-17.37,115"/><rect class="cls-10" x="73.35" y="148" width="31" height="55" rx="12" ry="12" transform="translate(177.69 351) rotate(-180)"/><path class="cls-11" d="M80.35,155h54c6.6,0,16-6.47,16-11l-2-8c0-4.53-1.4-5-8-5h-68c-6.63-.31-4.34,1-4,8.92v6.87C68.35,151.29,73.75,155,80.35,155Z"/><path d="M126.35,368c0,9.11-35.33,3-53,3s-12-23.89-12-33,17.32,3,35,3c4.16,0,7.52-7.64,11-6C118.64,340.31,126.35,361,126.35,368Z"/><rect class="cls-12" x="48.24" y="177.82" width="63.36" height="87.19" transform="translate(-20.13 434.49) rotate(-135)"/><rect class="cls-13" x="62.96" y="207.13" width="32.57" height="32.66" transform="translate(143.78 451.61) rotate(-176.27)"/><path class="cls-2" d="M66.78,199c-7.41,17.25-11.16,24.59-18,21.65S34.56,205.57,42,188.32s19-28.85,25.83-25.91S74.19,181.73,66.78,199Z"/><path class="cls-2" d="M61,245.45C49,231,35.3,207.92,41,203.15s26.12,10.14,37.13,30.11"/><path class="cls-3" d="M78.17,233.26a11.4,11.4,0,0,1-2.15,16c-5.17,4.15-11.26.9-15.06-3.84"/></svg>
