<svg id="Layer_1" data-name="Layer 1" xmlns="http://www.w3.org/2000/svg" width="235" height="420" viewBox="0 0 235 420"><defs><style>.cls-1{fill:#999;opacity:0.58;}.cls-2{fill:#fff;}.cls-3{fill:#fbb03b;}.cls-4{fill:#ffaf74;}.cls-5,.cls-6{fill:none;stroke-miterlimit:10;}.cls-5{stroke:#000;}.cls-6{stroke:#ff1f32;stroke-linecap:round;stroke-width:3px;}.cls-7{fill:#d4145a;}.cls-8{fill:#860000;}.cls-9{fill:#f7931e;}.cls-10{fill:#8cc63f;}</style></defs><title>smiler</title><ellipse class="cls-1" cx="124" cy="377.5" rx="97.5" ry="38"/><path class="cls-2" d="M146.78,362c-.47,4.17-2.14,21.07,3.65,24.32,4.93,2.77,26.91-1.38,34.37-.54,16.21,1.83,30.07-2.94,30.94-10.67S204.18,359.66,188,357.82,147.65,354.29,146.78,362Z"/><path class="cls-2" d="M109.66,360c1.1,4.06,5.3,20.51.07,24.6-4.46,3.48-26.81,2.7-34.06,4.66-15.75,4.26-30.16,1.64-32.19-5.87s9.09-17,24.84-21.3S107.63,352.49,109.66,360Z"/><polygon points="120.46 370.47 50.02 366.43 61.47 313.05 69.73 228.65 117.58 232.42 111.52 311.07 120.46 370.47"/><polygon points="202.34 357.9 132.19 365.48 134.72 310.94 129 226.34 176.82 222.19 183.76 300.77 202.34 357.9"/><path class="cls-3" d="M66.15,252.42c-.4-29,9.15-106.31,25.46-117.17,9.79-6.51,17.21-2.67,30.14-2.84,10.34-.14,19.79-2.32,29.15.82a63.71,63.71,0,0,1,7.34,3.55c17.83,10.13,22,84.15,22.37,114.08"/><path class="cls-4" d="M176.4,84.43c.17,13.17,3,35.69-5.42,45.07-10.31,11.46-33.59,8.43-50.9,8.65-19.67.26-39.71,3.61-50.13-10.36-6.26-8.38-7.4-30.93-7.54-41.9C62,56.62,87.25,32.56,118.73,32.16S176,55.16,176.4,84.43Z"/><circle class="cls-2" cx="96.63" cy="102.45" r="10"/><circle class="cls-2" cx="146.62" cy="101.81" r="10"/><circle cx="97.13" cy="102.94" r="4.5"/><circle cx="146.11" cy="101.32" r="4.5"/><path class="cls-5" d="M131.8,116c0,.67-5.16,2.78-10.47,2.64-3.45-.1-6.19-1.93-9-1.89"/><path class="cls-5" d="M84.5,92.61c-.06-4.43,6.6-8.09,14.89-8.2"/><path class="cls-5" d="M164.49,91.58c-.05-4.42-6.81-7.91-15.1-7.81"/><path class="cls-6" d="M107.5,123.5c.55,10.19,21.84,18.28,30,2"/><path d="M62.42,86C66,90.21,77.17,72.41,90.79,60.73c8.4-7.21,21.68-6,27.21-10.48,3.45-2.76,4.66-16.89,3.28-18.5-3.6-4.19-28.32,1.74-41.95,13.43S58.82,81.83,62.42,86Z"/><path d="M176,88.42c-3.54,4.24-8.64-17.63-22.4-29.16-8.48-7.1-23.69-4.28-29.27-8.65-3.48-2.71-2.06-16.26-.7-17.89,3.55-4.23,28.35,1.42,42.11,12.94S179.54,84.19,176,88.42Z"/><rect class="cls-7" x="75.43" y="35.52" width="12.79" height="8.58" rx="3" ry="3" transform="translate(-5.41 65.68) rotate(-42.46)"/><rect class="cls-7" x="146.11" y="30.53" width="14" height="8" rx="3" ry="3" transform="matrix(0.94, 0.34, -0.34, 0.94, 21.15, -50.45)"/><circle cx="72.35" cy="28.94" r="15.5"/><circle cx="159.46" cy="17.79" r="15.5"/><rect class="cls-8" x="94.69" y="173.69" width="63.36" height="87.19" transform="translate(2.63 -1.51) rotate(0.69)"/><path class="cls-9" d="M90.53,187.17c-2.65,18.59-4.35,26.65-11.73,25.6S61.15,202,63.8,183.36,74.58,150.55,82,151.61,93.18,168.58,90.53,187.17Z"/><path class="cls-9" d="M97.06,233.55C81.7,222.74,62.48,204,66.78,197.93s27.86,2.95,43.7,19.35"/><path class="cls-4" d="M110.48,217.28a11.41,11.41,0,0,1,2.12,16c-3.9,5.36-10.64,3.81-15.54.23"/><polygon class="cls-10" points="151.62 221.76 128.01 251.54 108.52 187.6 151.62 221.76"/><path class="cls-9" d="M159.85,178.78c4.91,18.13,7.59,25.92,14.78,24s16.19-12.9,11.29-31S171.2,140.49,164,142.43,155,160.66,159.85,178.78Z"/><path class="cls-9" d="M159.07,225.61C173,213,189.76,192.07,184.75,186.54s-27.29,6.36-41,24.58"/><path class="cls-4" d="M143.74,211.12a11.4,11.4,0,0,0-.13,16.17c4.53,4.84,11,2.48,15.46-1.68"/></svg>
