<svg id="Layer_1" data-name="Layer 1" xmlns="http://www.w3.org/2000/svg" width="235" height="417" viewBox="0 0 235 417"><defs><style>.cls-1{fill:#999;opacity:0.58;}.cls-2{fill:#fff;}.cls-3{fill:#fbb03b;}.cls-4{fill:#ffaf74;}.cls-5{fill:none;stroke:#000;stroke-miterlimit:10;}.cls-6{fill:#c1272d;}.cls-7{fill:#d4145a;}.cls-8{fill:#860000;}.cls-9{fill:#f7931e;}.cls-10{fill:#8cc63f;}</style></defs><title>snakker</title><ellipse class="cls-1" cx="108.5" cy="369" rx="100" ry="41"/><path class="cls-2" d="M130.5,356.91c-1,4.07-5,20.59.35,24.59,4.52,3.41,26.85,2.25,34.13,4.09,15.82,4,30.19,1.13,32.09-6.41s-9.37-16.89-25.19-20.89S132.41,349.37,130.5,356.91Z"/><path class="cls-2" d="M94,349.92c.54,4.16,2.49,21-3.24,24.38-4.89,2.85-26.94-.93-34.38,0-16.18,2.11-30.11-2.43-31.12-10.14s11.3-15.67,27.48-17.78S93,342.21,94,349.92Z"/><polygon points="103.28 361.75 34.02 348.28 52.55 296.92 72.08 214.4 118.99 224.56 102.41 301.68 103.28 361.75"/><polygon points="186.11 360.3 115.58 358.39 125.41 304.68 131.12 220.07 179.07 222.4 175.38 301.19 186.11 360.3"/><path class="cls-3" d="M65.34,237.48c3.5-28.77,23.35-104.13,41-112.69,10.58-5.14,17.42-.33,30.26,1.23,10.26,1.25,19.92.36,28.77,4.73a66.08,66.08,0,0,1,6.79,4.51c16.31,12.43,10.45,86.34,6.83,116.05"/><path class="cls-4" d="M197.17,85.82c-1.61,13.08-1.81,35.78-11.44,43.94-11.75,10-34.41,3.84-51.59,1.73-19.53-2.39-39.84-1.76-48.29-17C80.78,105.34,82.68,82.84,84,72c3.56-29.06,31.78-49.5,63-45.67S200.73,56.77,197.17,85.82Z"/><circle class="cls-2" cx="115.69" cy="92.96" r="10"/><circle class="cls-2" cx="165.32" cy="99.05" r="10"/><circle cx="116.13" cy="93.52" r="4.5"/><circle cx="164.89" cy="98.49" r="4.5"/><path class="cls-5" d="M148.34,108.14c.4.61-4.85,2.37-10.73,1.2-4.24-.84-6.58-3.07-8.68-3.08"/><path class="cls-6" d="M119.84,116.64c-.3,2.47,8.55,10.12,16.77,11.12s20.52-3,20.83-5.5-11.57-8.83-19.76-9.78S120.14,114.17,119.84,116.64Z"/><path class="cls-5" d="M105,81.57c.54-4.39,7.63-7.12,15.86-6.11"/><path class="cls-5" d="M184.4,91.31c.54-4.39-5.68-8.76-13.91-9.76"/><path d="M84,72.08c3,4.64,16.44-11.5,31.51-21.25,9.29-6,22.29-3.08,28.37-6.72,3.79-2.27,6.89-16.11,5.74-17.89-3-4.64-28.3-2.08-43.37,7.67S81,67.44,84,72.08Z"/><path d="M196.23,89.73C192.14,93.45,190,71.09,178,57.82c-7.45-8.18-22.9-7.43-27.85-12.5-3.08-3.16.15-16.4,1.72-17.82,4.08-3.72,27.9,5.2,40,18.48S200.31,86,196.23,89.73Z"/><rect class="cls-7" x="103.06" y="24.6" width="12.79" height="8.58" rx="3" ry="3" transform="translate(3.04 67.51) rotate(-34.74)"/><rect class="cls-7" x="173.8" y="29.25" width="14" height="8" rx="3" ry="3" transform="translate(36.36 -80.47) rotate(27.79)"/><circle cx="101.52" cy="16.86" r="15.5"/><circle cx="189.34" cy="17.51" r="15.5"/><rect class="cls-8" x="98.06" y="167.16" width="63.36" height="87.19" transform="translate(32.24 -16.72) rotate(8.41)"/><path class="cls-9" d="M98.26,176.09c-5.12,18.06-7.88,25.83-15.06,23.79s-16-13.09-10.91-31.16,15.09-31.06,22.26-29S103.39,158,98.26,176.09Z"/><path class="cls-9" d="M98.5,222.93C84.74,210.15,68.21,189,73.28,183.56s27.21,6.67,40.71,25.05"/><path class="cls-4" d="M114,208.61a11.41,11.41,0,0,1-.06,16.18c-4.59,4.78-11.05,2.34-15.43-1.86"/><polygon class="cls-10" points="154.15 218.58 126.75 244.91 116.03 178.93 154.15 218.58"/><path class="cls-9" d="M168.09,177.1c2.42,18.62,4,26.7,11.42,25.74s17.78-10.61,15.35-29.23-10.39-32.94-17.78-32S165.66,158.48,168.09,177.1Z"/><path class="cls-9" d="M161,223.4c15.48-10.63,34.92-29.12,30.7-35.26s-27.89,2.62-43.93,18.83"/><path class="cls-4" d="M147.78,207a11.4,11.4,0,0,0-2.31,16c3.84,5.41,10.59,3.94,15.54.42"/></svg>
