<svg id="Layer_1" data-name="Layer 1" xmlns="http://www.w3.org/2000/svg" width="235" height="420" viewBox="0 0 235 420"><defs><style>.cls-1{fill:#999;opacity:0.58;}.cls-2{fill:#c1272d;}.cls-3{fill:#ffe09f;}.cls-4{fill:#42210b;}.cls-5{fill:#fff;}.cls-6{fill:none;stroke:#000;stroke-miterlimit:10;}.cls-7{fill:#754c24;}.cls-8{fill:#78272d;}.cls-9{fill:#009245;}.cls-10{fill:#39b54a;}.cls-11{fill:#b49400;}.cls-12{fill:#29abe2;}</style></defs><title>snakker2</title><ellipse class="cls-1" cx="117.5" cy="371" rx="93" ry="34.5"/><path class="cls-2" d="M82,204.14c-8.86,16.21-13.22,23-19.85,19.42s-7.8-16.44,1.06-32.65,16.2-26.3,22.83-22.68S90.87,187.93,82,204.14Z"/><path class="cls-2" d="M55,251.25c-1.22-18.74.77-48.26,8.21-48.75s15.7,26.35,12.89,49"/><path class="cls-3" d="M75.89,248a11.41,11.41,0,0,1-10.81,12c-6.61.51-9.81-5.61-10.28-11.67"/><path d="M59.67,387c2.51,8.76,34.79-6.83,51.78-11.69s5-26.27,2.47-35-15.84,7.65-32.83,12.51c-4,1.14-9.33-5.27-12.22-2.74C59.47,358.26,57.76,380.31,59.67,387Z"/><rect class="cls-4" x="124.5" y="256.5" width="47" height="100" rx="12" ry="12" transform="translate(296 613) rotate(-180)"/><rect class="cls-4" x="62.7" y="289.42" width="42.67" height="66.05" rx="12" ry="12" transform="matrix(-0.96, 0.27, -0.27, -0.96, 252.9, 609.71)"/><rect class="cls-4" x="61.5" y="256.5" width="46" height="61" rx="12" ry="12" transform="translate(97.83 585.88) rotate(-166.15)"/><path class="cls-3" d="M179.5,93.5c0,13.18,2.56,35.73-6,45-10.45,11.32-33.69,8-51,8-19.68,0-39.76,3.1-50-11-6.15-8.46-7-31-7-42,0-29.27,25.52-53,57-53S179.5,64.23,179.5,93.5Z"/><circle class="cls-5" cx="99.5" cy="110.5" r="10"/><circle class="cls-5" cx="149.5" cy="110.5" r="10"/><circle cx="100" cy="111" r="4.5"/><circle cx="149" cy="110" r="4.5"/><path class="cls-6" d="M134.5,124.5c0,.67-5.2,2.72-10.5,2.5-3.45-.14-6.17-2-9-2"/><path class="cls-2" d="M106.5,133.5c0,2.49,9.72,9,18,9s20-5.51,20-8-10.72-4-19-4S106.5,131,106.5,133.5Z"/><path class="cls-6" d="M87.5,100.5c0-4.42,6.71-8,15-8"/><path class="cls-6" d="M167.5,100.5c0-4.42-6.71-8-15-8"/><path class="cls-7" d="M179.5,93.5c0,4.35-8.53-18.09-26-29-8.06-5-23.15,0-31,0-8.77,0-18.31-5.58-27,0-16,10.23-30,33.11-30,29a47.87,47.87,0,0,1,2-15c2.24-7.21,6.94-17.47,13-23,10.52-9.59,30.44-15,42-15,10.5,0,29.87,4.14,40,13,8.1,7.09,13.71,18.16,16,27A42,42,0,0,1,179.5,93.5Z"/><path class="cls-8" d="M60,267.44c.87-29,13.79-105.82,30.56-115.95,10.06-6.08,17.31-1.92,30.23-1.53,10.34.31,19.87-1.45,29.09,2.09a65.66,65.66,0,0,1,7.17,3.87c17.38,10.9,18.27,85,17.37,115"/><rect class="cls-9" x="128.5" y="163.5" width="31" height="55" rx="12" ry="12"/><path class="cls-10" d="M152.5,170.5h-54c-6.6,0-16-6.47-16-11l2-8c0-4.53,1.4-5,8-5h68c6.63-.31,4.33,1,4,8.92v6.87C164.5,166.79,159.1,170.5,152.5,170.5Z"/><path d="M106.5,383.5c0,9.11,35.33,3,53,3s12-23.89,12-33-17.33,3-35,3c-4.16,0-7.52-7.64-11-6C114.21,355.81,106.5,376.53,106.5,383.5Z"/><rect class="cls-11" x="121.25" y="193.32" width="63.36" height="87.19" transform="translate(-122.73 177.52) rotate(-45)"/><rect class="cls-12" x="137.32" y="222.63" width="32.57" height="32.66" transform="translate(-15.21 10.49) rotate(-3.73)"/><path class="cls-2" d="M166.06,214.48c7.42,17.25,11.17,24.59,18,21.65s14.21-15.06,6.79-32.31S171.89,175,165,177.91,158.65,197.23,166.06,214.48Z"/><path class="cls-2" d="M171.89,261c12-14.44,25.65-37.53,19.92-42.3s-26.12,10.14-37.13,30.11"/><path class="cls-3" d="M154.68,248.76a11.4,11.4,0,0,0,2.14,16c5.17,4.15,11.26.9,15.07-3.84"/></svg>
