<svg id="Layer_1" data-name="Layer 1" xmlns="http://www.w3.org/2000/svg" width="232" height="420" viewBox="0 0 232 420"><defs><style>.cls-1{fill:#999;opacity:0.58;}.cls-2{fill:#39b54a;}.cls-3{fill:#8c6239;}.cls-4{fill:#603813;}.cls-10,.cls-5{stroke:#000;stroke-miterlimit:10;}.cls-6{fill:#006837;}.cls-7{fill:#223c4f;}.cls-8{fill:#fbb03b;}.cls-9{fill:#fff;}.cls-10{fill:none;}.cls-11{fill:#c1272d;}.cls-12{fill:#f7931e;}.cls-13{fill:#f15a24;}</style></defs><title>snakker1</title><ellipse class="cls-1" cx="116" cy="383" rx="93" ry="34.5"/><path class="cls-2" d="M158.23,227.14c8.86,16.21,13.22,23,19.85,19.42s7.79-16.44-1.07-32.65-16.19-26.3-22.82-22.68S149.37,210.93,158.23,227.14Z"/><path class="cls-2" d="M185.2,274.25c1.23-18.74-.76-48.26-8.2-48.75s-15.7,26.35-12.89,49"/><path class="cls-3" d="M164.34,271a11.41,11.41,0,0,0,10.82,12c6.61.51,9.8-5.61,10.28-11.67"/><path d="M127,391.5c0,9.11-35.33,3-53,3s-12-23.89-12-33,17.33,3,35,3c4.16,0,7.52-7.64,11-6C119.29,363.81,127,384.53,127,391.5Z"/><path d="M173.83,395c-2.51,8.76-34.79-6.83-51.78-11.69s-5-26.27-2.47-35,15.84,7.65,32.83,12.51c4,1.14,9.33-5.27,12.22-2.74C174,366.26,175.74,388.31,173.83,395Z"/><rect class="cls-4" x="62" y="264.5" width="47" height="100" rx="12" ry="12"/><rect class="cls-4" x="128.12" y="297.42" width="42.67" height="66.05" rx="12" ry="12" transform="translate(95.87 -28.25) rotate(15.84)"/><rect class="cls-4" x="126" y="264.5" width="46" height="61" rx="12" ry="12" transform="translate(-66.29 44.25) rotate(-13.85)"/><rect class="cls-5" x="55.5" y="104" width="123" height="82" rx="12" ry="12"/><path class="cls-6" d="M62,273.5c0-23.82,10.19-87.26,26-96,9.49-5.24,16.57-2,29-2,9.94,0,19-1.68,28,1a67.59,67.59,0,0,1,7,3c17,8.52,20,69.4,20,94"/><rect class="cls-7" x="84" y="200.5" width="49" height="80" transform="translate(114.22 -23.28) rotate(25.52)"/><circle class="cls-8" cx="108.5" cy="245" r="18.5"/><path class="cls-2" d="M96,225.5c0,18.78-.54,27-8,27s-19-8.22-19-27,6-34,13.5-34S96,206.72,96,225.5Z"/><path class="cls-2" d="M109,270.5c-16.72-8.54-38.39-24.36-35-31s28-1,46,13"/><path class="cls-3" d="M120,252.5a11.4,11.4,0,0,1,4.36,15.58c-3.11,5.85-10,5.27-15.36,2.42"/><path class="cls-3" d="M174,122.5c0,13.18,2.56,35.73-6,45-10.45,11.32-33.69,8-51,8-19.68,0-39.76,3.1-50-11-6.15-8.46-7-31-7-42,0-29.27,25.52-53,57-53S174,93.23,174,122.5Z"/><circle class="cls-9" cx="94" cy="139.5" r="10"/><circle class="cls-9" cx="144" cy="139.5" r="10"/><circle cx="94.5" cy="140" r="4.5"/><circle cx="143.5" cy="139" r="4.5"/><path class="cls-10" d="M129,150.5c0,.67-5.2,2.72-10.5,2.5-3.45-.14-6.17-2-9-2"/><path class="cls-11" d="M101,162.5c0,2.49,9.72,9,18,9s20-5.51,20-8-10.72-5-19-5S101,160,101,162.5Z"/><path class="cls-10" d="M82,129.5c0-4.42,6.71-8,15-8"/><path class="cls-10" d="M162,129.5c0-4.42-6.71-8-15-8"/><path class="cls-12" d="M56,110.5c0-26.41,27.55-63,61.54-63S178,84.09,178,110.5"/><rect class="cls-13" x="48" y="92.5" width="136" height="27" rx="8.5" ry="8.5"/></svg>
