<svg id="Layer_1" data-name="Layer 1" xmlns="http://www.w3.org/2000/svg" width="388.85" height="279.39" viewBox="0 0 388.85 279.39"><defs><style>.cls-1{fill:#ffe89f;}.cls-2{fill:none;stroke:#000;stroke-linecap:round;stroke-miterlimit:10;stroke-width:3px;}</style></defs><title>start</title><rect class="cls-1" x="11.93" y="18.19" width="360" height="240" rx="43.6" ry="43.6" transform="translate(14.7 -18.41) rotate(5.71)"/><path d="M12.07,177.52a5.78,5.78,0,0,1,9.09-2.72,27.1,27.1,0,0,0,13.07,5.73c11.68,1.49,19.8-7.6,21.66-22,1.72-13.35-2-21.58-13-30.52-13.37-10.1-20.73-23.31-18.13-43.45C27.62,62.3,40.73,41,57.93,43.2c6.95.88,16.37,2.94,20,6,1.8,1.52-1.31,10.87-2.09,13.11l-1.12,3.22A5.78,5.78,0,0,1,66,68.39a23.71,23.71,0,0,0-10-3.77C43.93,63.09,37.83,74.16,36.57,83.9c-1.72,13.35,2.81,20.61,14,29.79,13.76,11.23,19.87,23.85,17.16,44.83-2.85,22-15.42,39.82-36.29,37.17a34.89,34.89,0,0,1-18.94-9.15,5.76,5.76,0,0,1-1.46-5.9Z"/><path d="M105.85,73.76l-15.47-2a5.76,5.76,0,0,1-5-6.45L86,61.08c.4-3.14.83-12.29,4-11.88l28,3,33,5c3.15.41.92,9.09.52,12.25l-.55,4.26a5.77,5.77,0,0,1-6.44,5l-15.64-2a5.76,5.76,0,0,0-6.44,5L107.43,197.41a5.74,5.74,0,0,1-6.43,5l-.13,0a5.76,5.76,0,0,1-5-6.44l15-115.71A5.76,5.76,0,0,0,105.85,73.76Z"/><path d="M152.32,167.88l-11.95,34.88a5.76,5.76,0,0,1-6.17,3.85l-.11,0a5.75,5.75,0,0,1-4.71-7.6l42.55-127.8c.89-2.56,3.3-8.34,6-8h10c2.7.35,3.78,6.29,4,9l8.58,135.86a5.76,5.76,0,0,1-6.47,6.17l-.53-.07a5.74,5.74,0,0,1-5-5.26l-2.91-36.79a5.77,5.77,0,0,0-5-5.26L158.5,164A5.77,5.77,0,0,0,152.32,167.88Zm25.37-16a5.77,5.77,0,0,0,6.47-6.17l-2.8-35.15c-.76-9.57-1-18.22-1.23-26.65l-.26,0c-2.41,8.31-5,16.81-7.8,25.28L160.4,142.63a5.76,5.76,0,0,0,4.71,7.6Z"/><path d="M231.7,80.21c.35-2.66.55-9.77,3.23-10a107.69,107.69,0,0,1,20,0c12.2,1.56,21.52,10.25,26,19,3.64,6.93,2.61,18.38,1.19,29.4-2.44,18.86-11.4,30.43-21.38,34.33l-.08.63c6.33,4.69,9.08,15.38,9.27,30.48.22,14.42.45,25.68,1,33.05a5.75,5.75,0,0,1-6.47,6.09h-.14a5.76,5.76,0,0,1-5-5.21c-.5-6.15-.76-16.61-.9-30.22-.08-19.88-3.79-27.93-13.89-30l-.49-.08-4.82-.61a5.76,5.76,0,0,0-6.44,5l-6.52,50.48a5.74,5.74,0,0,1-6.43,5h0a5.76,5.76,0,0,1-5-6.44ZM236,136.64a5.76,5.76,0,0,0,5,6.44l6,.76c12.21,1.56,21.35-8.27,23.45-24.58,2.38-18.44-4.84-27.54-16.89-29.29a44.16,44.16,0,0,0-6.52-.38,5.74,5.74,0,0,0-5.56,5Z"/><path d="M314.85,105.78l-15.47-2a5.75,5.75,0,0,1-5-6.44L295,93.1c.4-3.15.83-12.29,4-11.89l28,3,33,5c3.15.4.92,9.09.52,12.25l-.55,4.26a5.75,5.75,0,0,1-6.44,5l-15.64-2a5.77,5.77,0,0,0-6.44,5L316.43,229.43a5.75,5.75,0,0,1-6.43,5l-.13,0a5.77,5.77,0,0,1-5-6.45l14.95-115.7A5.76,5.76,0,0,0,314.85,105.78Z"/><path class="cls-2" d="M27.93,46.19a31,31,0,0,1,31-31"/><path class="cls-2" d="M320.52,251.76a31,31,0,0,0,29.82-32.13"/></svg>
