<svg id="Layer_1" data-name="Layer 1" xmlns="http://www.w3.org/2000/svg" width="1030" height="910" viewBox="0 0 1030 910"><defs><style>.cls-1{fill:#b49400;}.cls-2{fill:#fff;}.cls-3{fill:#c7b299;}.cls-4{fill:#ffe89f;opacity:0.54;}</style></defs><title>tabte</title><rect class="cls-1" x="32" y="17" width="976" height="861"/><rect class="cls-2" x="523" y="31" width="474" height="833"/><rect class="cls-2" x="43" y="31" width="474" height="833"/><path d="M56.26,386.61a29,29,0,0,1,7.94-1.14,12.58,12.58,0,0,1,11.72,6.81C78.5,396.74,80,403.06,80,411.89s-1.46,16.21-4.17,21.23A13.86,13.86,0,0,1,63,441a32,32,0,0,1-6.78-.65ZM60,434.91a12.8,12.8,0,0,0,3.77.4c8,0,12.32-8.43,12.32-23.18,0-12.88-3.82-21.07-11.71-21.07a11.74,11.74,0,0,0-4.38.73Z"/><path d="M88.58,385.88v32.33c0,12.24,2.88,17.42,6.74,17.42,4.29,0,7-5.34,7-17.42V385.88h3.77v31.84c0,16.78-4.67,23.67-10.94,23.67-5.92,0-10.39-6.4-10.39-23.34V385.88Z"/><path d="M121.2,431.91c1.67,1.94,4.12,3.56,6.69,3.56,3.82,0,6-3.81,6-9.32,0-5.1-1.54-8-5.45-10.86-4.72-3.16-7.64-7.78-7.64-15.47,0-8.51,3.74-14.84,9.36-14.84a8.59,8.59,0,0,1,6.39,2.68l-1,5.75a7.87,7.87,0,0,0-5.49-2.59c-4,0-5.45,4.46-5.45,8.18,0,5.11,1.76,7.62,5.75,10.54,4.89,3.57,7.38,8,7.38,16,0,8.42-3.3,15.72-10.13,15.72a10.11,10.11,0,0,1-7.38-3.49Z"/><path d="M142.87,385.88h3.73v48.7H159v5.92H142.87Z"/><path d="M186.18,412.62c0,18.8-6.06,28.77-13.44,28.77-7.64,0-13-11.18-13-27.72,0-17.34,5.71-28.69,13.44-28.69C181.07,385,186.18,396.41,186.18,412.62Zm-22.45.89c0,11.67,3.34,22.12,9.23,22.12s9.27-10.29,9.27-22.69c0-10.86-3-22.2-9.23-22.2S163.73,401.52,163.73,413.51Z"/><path d="M213,438.07a16.44,16.44,0,0,1-8.88,3c-4.38,0-8-2.1-10.82-7.21-2.49-4.54-4-11.83-4-20.34,0-16.29,6-28.2,15.67-28.2a11.1,11.1,0,0,1,7.21,2.51l-.9,5.76a9.38,9.38,0,0,0-6.39-2.36c-7,0-11.64,8.27-11.64,22,0,13.85,4.42,22,11.16,22,2.45,0,4.12-.65,5-1.46V417.48h-5.88v-5.67H213Z"/><path d="M231.58,385.88V440.5h-3.74V385.88Z"/><path d="M238.1,385.88h3.74v26.33H242c.78-2.1,1.55-4,2.28-5.83l8.84-20.5h4.64l-10.48,23.17,11.29,31.45h-4.42l-9.53-26.83-2.74,6V440.5H238.1Z"/><path d="M261.36,385.88h3.74v26.33h.13c.77-2.1,1.54-4,2.27-5.83l8.84-20.5H281l-10.47,23.17,11.28,31.45h-4.42l-9.53-26.83-2.74,6V440.5h-3.74Z"/><path d="M299.6,414.89H288.36v19.69h12.53v5.92H284.62V385.88h15.63v5.91H288.36v17.26H299.6Z"/><path d="M314.84,440.5V385.88h4.07l9.28,27.63c2.14,6.4,3.82,12.16,5.19,17.75l.08-.08c-.34-7.3-.42-13.94-.42-22.45V385.88h3.52V440.5h-3.78l-9.19-27.72c-2-6.08-3.95-12.32-5.4-18.23l-.13.08c.21,6.89.3,13.45.3,22.53V440.5Z"/><path d="M367.8,412.62c0,18.8-6.05,28.77-13.43,28.77-7.65,0-13-11.18-13-27.72,0-17.34,5.71-28.69,13.43-28.69C362.69,385,367.8,396.41,367.8,412.62Zm-22.45.89c0,11.67,3.35,22.12,9.23,22.12s9.27-10.29,9.27-22.69c0-10.86-3-22.2-9.23-22.2S345.35,401.52,345.35,413.51Z"/><path d="M372.65,385.88h3.73v26.33h.13c.77-2.1,1.54-4,2.27-5.83l8.85-20.5h4.63l-10.47,23.17,11.29,31.45h-4.42l-9.53-26.83-2.75,6V440.5h-3.73Z"/><path d="M405,386.61a19.79,19.79,0,0,1,6.82-1.14c3.73,0,6.14,1.22,7.94,4,1.5,2.11,2.4,5.35,2.4,9.65,0,5.26-1.84,9.88-4.89,12v.16c2.75,1.3,6,5.59,6,13.7a22.53,22.53,0,0,1-2.45,10.94c-2,3.48-5.28,5.1-10,5.1a23.14,23.14,0,0,1-5.79-.65ZM408.74,409h3.39c3.95,0,6.27-3.89,6.27-9.15,0-6.41-2.58-8.92-6.36-8.92a8.61,8.61,0,0,0-3.3.49Zm0,26.18a10.86,10.86,0,0,0,3.13.32c3.87,0,7.43-2.67,7.43-10.61,0-7.46-3.39-10.54-7.47-10.54h-3.09Z"/><path d="M427.71,440.82l2.66-7.13c-2.4-4.86-3.82-12.07-3.82-20.18,0-17.26,5.79-28.53,13.35-28.53,2.66,0,5.15,1.46,7.21,4.3l2.53-6.56,2.28,2.91-2.66,7c2.4,4.95,3.73,12.08,3.73,20.1,0,19-6.22,28.69-13.13,28.69-2.75,0-5.28-1.54-7.34-4.38l-2.71,7Zm17.55-46.35c-1.46-2.35-3.26-3.81-5.4-3.81-6.31,0-9.49,11-9.49,22.45a47.29,47.29,0,0,0,2.15,14.66l0-.08Zm-10.9,37.36c1.42,2.51,3.09,3.89,5.41,3.89,6.05,0,9.4-10.46,9.4-22.78a46.32,46.32,0,0,0-2-14.18H447Z"/><path d="M457.84,386.61a21.21,21.21,0,0,1,7.16-1.14c4,0,6.57,1.38,8.38,4.46,1.45,2.43,2.27,6.16,2.27,10.37,0,7.21-2.4,12-5.45,13.94v.24c2.23,1.46,3.56,5.35,4.25,11,.94,7.62,1.63,12.89,2.23,15h-3.86c-.48-1.54-1.12-6.24-1.94-13.05-.85-7.54-2.4-10.37-5.79-10.62h-3.52V440.5h-3.73Zm3.73,24.87h3.82c4,0,6.53-4.13,6.53-10.37,0-7.05-2.71-10.13-6.66-10.21a8.44,8.44,0,0,0-3.69.65Z"/><path d="M480.93,440.5V385.88H485l9.28,27.63c2.14,6.4,3.82,12.16,5.19,17.75l.08-.08c-.34-7.3-.43-13.94-.43-22.45V385.88h3.52V440.5h-3.77l-9.19-27.72c-2-6.08-3.95-12.32-5.41-18.23l-.12.08c.21,6.89.3,13.45.3,22.53V440.5Z"/><path d="M172.87,483.85a29,29,0,0,1,7.94-1.14,12.62,12.62,0,0,1,11.72,6.81c2.57,4.46,4.07,10.78,4.07,19.61s-1.46,16.21-4.16,21.24a13.89,13.89,0,0,1-12.79,7.86,32.66,32.66,0,0,1-6.78-.65Zm3.73,48.3a12.91,12.91,0,0,0,3.78.4c8,0,12.32-8.42,12.32-23.17,0-12.89-3.82-21.07-11.72-21.07a11.62,11.62,0,0,0-4.38.73Z"/><path d="M205.18,483.12v32.34c0,12.23,2.88,17.42,6.74,17.42,4.3,0,7-5.35,7-17.42V483.12h3.78V515c0,16.77-4.68,23.66-11,23.66-5.92,0-10.38-6.4-10.38-23.34V483.12Z"/><path d="M253.29,512.13H242.05v19.7h12.53v5.91H238.32V483.12h15.62V489H242.05V506.3h11.24Z"/><path d="M259.43,483.85a21.27,21.27,0,0,1,7.17-1.14c4,0,6.57,1.38,8.37,4.46,1.46,2.43,2.27,6.16,2.27,10.38,0,7.21-2.4,12-5.45,13.93v.25c2.23,1.46,3.57,5.35,4.25,11,.95,7.62,1.63,12.88,2.23,15h-3.86c-.47-1.54-1.12-6.24-1.93-13-.86-7.53-2.4-10.37-5.8-10.61h-3.51v23.66h-3.74Zm3.74,24.88H267c4,0,6.53-4.13,6.53-10.37,0-7.05-2.71-10.13-6.65-10.22a8.56,8.56,0,0,0-3.69.65Z"/><path d="M291.62,483.12H307.2V489H295.35v18.15H306.3V513H295.35v24.72h-3.73Z"/><path d="M319,537.74V514.56l-9.15-31.44h4.25l4.08,15.07c1.12,4.14,2,7.46,2.88,11.27h.08c.82-3.57,1.81-7.13,2.92-11.27l4.17-15.07h4.25l-9.71,31.36v23.26Z"/><path d="M335.44,483.85a21.27,21.27,0,0,1,7.17-1.14c4,0,6.56,1.38,8.36,4.46,1.46,2.43,2.28,6.16,2.28,10.38,0,7.21-2.4,12-5.45,13.93v.25c2.23,1.46,3.56,5.35,4.25,11,.94,7.62,1.63,12.88,2.23,15h-3.86c-.47-1.54-1.12-6.24-1.93-13-.86-7.53-2.41-10.37-5.8-10.61h-3.52v23.66h-3.73Zm3.73,24.88H343c4,0,6.53-4.13,6.53-10.37,0-7.05-2.71-10.13-6.66-10.22a8.6,8.6,0,0,0-3.69.65Z"/><path d="M373.51,512.13H362.26v19.7h12.53v5.91H358.53V483.12h15.62V489H362.26V506.3h11.25Z"/><path d="M385.82,489.12H377v-6h21.42v6H389.6v48.62h-3.78Z"/><rect class="cls-3" x="536.5" y="389" width="427" height="148" rx="54.85" ry="54.85"/><rect class="cls-4" x="543.5" y="367" width="420" height="152" rx="57.28" ry="57.28"/><path d="M584,411.38a2.78,2.78,0,0,1,2.32-2.74,65,65,0,0,1,11.32-.94c7,0,12.16,2.14,15.43,6,3,3.42,4.82,8.66,4.82,15.07s-1.47,11.65-4.25,15.39c-3.76,5.24-9.88,7.91-16.82,7.91-.92,0-1.82,0-2.66-.09a2.81,2.81,0,0,0-3.06,2.77V477.5a2.78,2.78,0,0,1-2.78,2.78h-1.54A2.79,2.79,0,0,1,584,477.5Zm7.1,30.24a2.8,2.8,0,0,0,2.44,2.76,25.82,25.82,0,0,0,3.44.2c8.58,0,13.8-5.45,13.8-15.39,0-9.52-5.14-14.11-13-14.11a34.65,34.65,0,0,0-4.29.24,2.78,2.78,0,0,0-2.41,2.76Z"/><path d="M627.47,411.42a2.77,2.77,0,0,1,2.26-2.73,62.85,62.85,0,0,1,11.37-1c7.6,0,12.49,1.82,15.92,5.88,2.78,3.21,4.33,8.12,4.33,13.68,0,9.51-4.57,15.82-10.37,18.39V446c4.25,1.92,6.78,7,8.08,14.53,1.28,7.14,2.31,12.72,3.21,16.35a2.78,2.78,0,0,1-2.7,3.43H658a2.79,2.79,0,0,1-2.69-2.07c-.8-3-1.8-8.24-3-15.14-1.64-9.94-4.58-13.68-11-14h-3.91a2.77,2.77,0,0,0-2.78,2.78V477.5a2.79,2.79,0,0,1-2.78,2.78h-1.54a2.78,2.78,0,0,1-2.78-2.78Zm7.1,27.81a2.77,2.77,0,0,0,2.78,2.78h4.49c7.59,0,12.41-5.45,12.41-13.68,0-9.3-5.15-13.36-12.66-13.47a32.56,32.56,0,0,0-4.66.31,2.78,2.78,0,0,0-2.36,2.75Z"/><path d="M671.53,478.92l3.31-6.15a2.75,2.75,0,0,0-.08-2.77c-4-6.36-6.39-15.33-6.39-25.32,0-22.76,11-37.62,25.39-37.62A19.23,19.23,0,0,1,705,410.69a2.79,2.79,0,0,0,4.07-.88l1.51-2.71a2.78,2.78,0,0,1,4.28-.73l.08.07a2.77,2.77,0,0,1,.58,3.42l-3.18,5.78a2.74,2.74,0,0,0,.06,2.78c4,6.44,6.24,15.3,6.24,25.2,0,25.11-11.84,37.83-25,37.83a19.56,19.56,0,0,1-11.51-3.74,2.8,2.8,0,0,0-4.08.88l-1.68,3a2.78,2.78,0,0,1-4.43.57h0A2.79,2.79,0,0,1,671.53,478.92ZM703,421.4a2.8,2.8,0,0,0-.63-3.47,13,13,0,0,0-8.64-3.39c-12,0-18,14.54-18,29.61a45.19,45.19,0,0,0,4.08,19.35l.08-.11Zm-18.76,45.7a2.82,2.82,0,0,0,.56,3.4,12.07,12.07,0,0,0,8.77,3.47c11.51,0,17.88-13.79,17.88-30a43.88,43.88,0,0,0-3.84-18.71h-.24Z"/><path d="M739.45,478.17l-16.58-66.48a2.78,2.78,0,0,1,2.7-3.45h1.93a2.78,2.78,0,0,1,2.7,2.12l8.06,33.36c2.36,9.73,4.41,18.49,5.88,26.94h.16c1.55-8.34,3.84-17.42,6.29-26.83l8.76-33.52a2.78,2.78,0,0,1,2.69-2.07h1.81a2.78,2.78,0,0,1,2.68,3.51l-18.16,66.48a2.78,2.78,0,0,1-2.68,2h-3.55A2.78,2.78,0,0,1,739.45,478.17Z"/><path d="M797.86,411V477.5a2.79,2.79,0,0,1-2.78,2.78h-1.55a2.79,2.79,0,0,1-2.78-2.78V411a2.78,2.78,0,0,1,2.78-2.78h1.55A2.78,2.78,0,0,1,797.86,411Z"/><path d="M852.15,475.26a2.78,2.78,0,0,1-1.7,2.57,40.23,40.23,0,0,1-15.2,3.2c-8.33,0-15.19-2.78-20.57-9.52-4.74-6-7.68-15.6-7.68-26.83.08-21.48,11.35-37.19,29.8-37.19a29.75,29.75,0,0,1,11.67,2.25,2.77,2.77,0,0,1,1.58,3.15l-.47,2.07a2.79,2.79,0,0,1-3.77,2,24.06,24.06,0,0,0-9.17-1.63c-13.39,0-22.13,10.9-22.13,29,0,18.28,8.41,29.07,21.23,29.07a23.56,23.56,0,0,0,7.62-1.05,2.76,2.76,0,0,0,1.85-2.62v-17a2.78,2.78,0,0,0-2.78-2.78h-5.62a2.77,2.77,0,0,1-2.78-2.78v-1.92a2.77,2.77,0,0,1,2.78-2.78h12.56a2.77,2.77,0,0,1,2.78,2.78Z"/><path d="M888.72,446.5H872.89a2.79,2.79,0,0,0-2.78,2.78V469.7a2.79,2.79,0,0,0,2.78,2.78h18.28a2.77,2.77,0,0,1,2.78,2.78v2.24a2.78,2.78,0,0,1-2.78,2.78H865.79A2.78,2.78,0,0,1,863,477.5V411a2.77,2.77,0,0,1,2.78-2.78H890a2.78,2.78,0,0,1,2.78,2.78v2.24A2.79,2.79,0,0,1,890,416H872.89a2.78,2.78,0,0,0-2.78,2.78V436a2.79,2.79,0,0,0,2.78,2.78h15.83a2.77,2.77,0,0,1,2.78,2.78v2.13A2.77,2.77,0,0,1,888.72,446.5Z"/><path d="M903.18,477.5V411a2.77,2.77,0,0,1,2.78-2.78h3.23a2.77,2.77,0,0,1,2.5,1.57l16.88,34.87a230,230,0,0,1,9.88,23.41l.16-.1c-.65-9.62-.81-18.39-.81-29.61V411a2.77,2.77,0,0,1,2.78-2.78h1.13a2.77,2.77,0,0,1,2.78,2.78V477.5a2.78,2.78,0,0,1-2.78,2.78h-2.65a2.79,2.79,0,0,1-2.51-1.58l-16.72-35a254.56,254.56,0,0,1-10.28-24.05l-.25.11c.41,9.09.57,17.74.57,29.71v28a2.78,2.78,0,0,1-2.78,2.78H906A2.78,2.78,0,0,1,903.18,477.5Z"/></svg>
