<svg id="Layer_1" data-name="Layer 1" xmlns="http://www.w3.org/2000/svg" width="400" height="64" viewBox="0 0 400 64"><title>TEKST MED RAM </title><path d="M13.77,41.62a1.05,1.05,0,0,1,1.59-.76,2.34,2.34,0,0,0,1.2.37c1.44,0,2.28-1.77,2.28-4.34a6,6,0,0,0-2.05-5.05c-1.78-1.47-2.88-3.62-2.88-7.21,0-4,1.4-6.9,3.53-6.9a2.9,2.9,0,0,1,2,.84,1,1,0,0,1,.3.89l-.06.39a1,1,0,0,1-1.46.8,2.06,2.06,0,0,0-.87-.2c-1.49,0-2.06,2.07-2.06,3.81a5.7,5.7,0,0,0,2.17,4.9c1.85,1.66,2.79,3.74,2.79,7.47C20.29,40.55,19,44,16.46,44A3.51,3.51,0,0,1,14,42.74a1,1,0,0,1-.26-.84Z"/><path d="M22.21,18.15l.92-.08a.78.78,0,0,1,.84.8l-.35,11.54h.05c.29-1,.58-1.89.86-2.72l3.14-9a.81.81,0,0,1,.76-.53h0a.8.8,0,0,1,.76,1.07l-3.47,9.47a.78.78,0,0,0,0,.5l3.89,13.36a.8.8,0,0,1-.77,1h0a.8.8,0,0,1-.77-.58L25,31l-1.33,2.74-.05.22v9.61h0A1.28,1.28,0,0,1,22,42.33Z"/><path d="M33.3,42.86v-10a.88.88,0,0,0,0-.17L30,19l.4-.85a1.32,1.32,0,0,1,1.28,1l1.31,6c.42,1.93.75,3.47,1.09,5.25L34,30c.31-1.66.79-2.91,1.21-4.84l1.44-6.46a.73.73,0,0,1,.7-.55h1L34.74,32.66a1,1,0,0,0,0,.17v10a.71.71,0,0,1-.71.71h0A.71.71,0,0,1,33.3,42.86Z"/><path d="M39.51,43.57V19a.8.8,0,0,1,.81-.8h.12a.79.79,0,0,1,.77.59L44.55,31c.81,3,1.44,5.66,2,8.26l0,0c-.13-3.39-.16-6.49-.16-10.45V18.15h0A1.47,1.47,0,0,1,48,19.63l-.27,23.13a.81.81,0,0,1-.81.81h0a.79.79,0,0,1-.78-.6l-3.3-12.3c-.76-2.83-1.49-5.73-2-8.49l-.05,0c.08,3.21.11,6.26.11,10.49V43.57Z"/><path d="M50.16,19.57a1.41,1.41,0,0,1,1.09-1.39A8.27,8.27,0,0,1,53.16,18c2,0,3.46,1.09,4.42,3.17s1.54,5,1.54,9.13a25.73,25.73,0,0,1-1.57,9.88c-1,2.37-2.71,3.66-4.83,3.66a12.06,12.06,0,0,1-1.25-.07,1.45,1.45,0,0,1-1.31-1.43Zm1.41,20.15A1.43,1.43,0,0,0,53,41.16h0c3,0,4.64-3.93,4.64-10.79,0-6-1.44-9.81-4.42-9.81H53A1.45,1.45,0,0,0,51.57,22Z"/><path d="M64.38,19.57a1.41,1.41,0,0,1,1.08-1.39A8.27,8.27,0,0,1,67.37,18c2,0,3.46,1.09,4.42,3.17s1.54,5,1.54,9.13a25.73,25.73,0,0,1-1.57,9.88c-1,2.37-2.71,3.66-4.83,3.66a12.06,12.06,0,0,1-1.25-.07,1.44,1.44,0,0,1-1.3-1.43Zm1.4,20.15a1.43,1.43,0,0,0,1.41,1.44h0c3,0,4.64-3.93,4.64-10.79,0-6-1.44-9.81-4.41-9.81h-.28A1.45,1.45,0,0,0,65.78,22Z"/><path d="M77,19.85l-.38,22.31a1.44,1.44,0,0,1-1.43,1.41h0V18.15h0A1.68,1.68,0,0,1,77,19.85Z"/><path d="M87.33,41.89a1.1,1.1,0,0,1-.45.9,5.14,5.14,0,0,1-2.9,1c-1.65,0-3-1-4.08-3.35A24.91,24.91,0,0,1,78.38,31c0-7.58,2.25-13.13,5.91-13.13a3.74,3.74,0,0,1,2.17.7,1.11,1.11,0,0,1,.47,1.05l0,.32a1.1,1.1,0,0,1-1.46.91,3.07,3.07,0,0,0-1.18-.22c-2.65,0-4.38,3.84-4.38,10.22s1.66,10.26,4.21,10.26a3,3,0,0,0,1.25-.24,1.07,1.07,0,0,0,.62-1V34a1.1,1.1,0,0,0-1.11-1.11h0a1.11,1.11,0,0,1-1.11-1.11v-.42a1.11,1.11,0,0,1,1.11-1.11h1.38a1.11,1.11,0,0,1,1.11,1.11Z"/><path d="M94.56,36.42l-.9,6.31a1,1,0,0,1-1,.84h-.6L95.67,19a1,1,0,0,1,1-.84h0a1,1,0,0,1,1,.84l3.6,24.58h-.66a1,1,0,0,1-1-.84l-.92-6.31a1,1,0,0,0-1-.85H95.53A1,1,0,0,0,94.56,36.42ZM97.12,33a1,1,0,0,0,1-1.13l-.9-6.19c-.25-1.66-.41-3.17-.57-4.64h0c-.17,1.51-.34,3.06-.55,4.6l-.91,6.23a1,1,0,0,0,1,1.13Z"/><path d="M102.93,20.94H101a.71.71,0,0,1-.72-.71V18.86a.71.71,0,0,1,.72-.71h6.65a.71.71,0,0,1,.71.71v1.37a.71.71,0,0,1-.71.71h-1.91a.71.71,0,0,0-.71.71V42.86a.71.71,0,0,1-.71.71h0a.71.71,0,0,1-.72-.71V21.65A.71.71,0,0,0,102.93,20.94Z"/><path d="M113.05,19.53a1.44,1.44,0,0,1,1.11-1.41,8.41,8.41,0,0,1,1.59-.16A3.19,3.19,0,0,1,118.91,20a11.7,11.7,0,0,1,.86,4.83c0,3.36-.91,5.58-2.06,6.49v.11c.84.68,1.34,2.49,1.6,5.13.36,3.55.62,6,.84,7h-.24a1.43,1.43,0,0,1-1.42-1.25c-.15-1.09-.32-2.75-.52-4.82-.32-3.51-.91-4.83-2.19-4.94h-1.32v11h-1.41Zm1.41,9.1a1.44,1.44,0,0,0,1.43,1.44h0c1.5,0,2.46-1.93,2.46-4.83,0-3.28-1-4.72-2.51-4.75h0a1.4,1.4,0,0,0-1.37,1.43Z"/><path d="M123.48,36.42l-.89,6.31a1,1,0,0,1-1,.84H121L124.6,19a1,1,0,0,1,1-.84h0a1,1,0,0,1,1,.84l3.6,24.58h-.65a1,1,0,0,1-1-.84l-.92-6.31a1,1,0,0,0-1-.85h-2.17A1,1,0,0,0,123.48,36.42ZM126,33a1,1,0,0,0,1-1.13l-.9-6.19c-.24-1.66-.4-3.17-.57-4.64h0c-.16,1.51-.34,3.06-.55,4.6l-.9,6.23A1,1,0,0,0,125,33Z"/><path d="M140.87,32.41c-.08-3.55-.17-7.81-.16-11h-.05c-.37,3-.82,6.15-1.37,9.65l-1.93,12.34h-1.07l-1.76-12.11c-.52-3.58-1-6.86-1.27-9.88h0c0,3.17-.11,7.43-.21,11.24l-.29,10.9h-1.34l.73-24.47a1,1,0,0,1,1-1h0a1,1,0,0,1,1,.83l1.74,11.46c.45,3.13.82,5.93,1.1,8.57H137c.27-2.57.66-5.36,1.14-8.57L139.92,19a1,1,0,0,1,1-.83h0a1,1,0,0,1,1,1l.65,24.47h-1.37Z"/><path d="M171.77,36.42l-.9,6.31a1,1,0,0,1-1,.84h-.6L172.88,19a1,1,0,0,1,1-.84h0a1,1,0,0,1,1,.84l3.6,24.58h-.66a1,1,0,0,1-1-.84l-.92-6.31a1,1,0,0,0-1-.85h-2.17A1,1,0,0,0,171.77,36.42ZM174.33,33a1,1,0,0,0,1-1.13l-.9-6.19c-.25-1.66-.41-3.17-.57-4.64h0c-.16,1.51-.34,3.06-.55,4.6l-.91,6.23a1,1,0,0,0,1,1.13Z"/><path d="M179,18.15h1.41V39.44a1.37,1.37,0,0,0,1.37,1.38h1.91a1.37,1.37,0,0,1,1.38,1.37h0a1.38,1.38,0,0,1-1.38,1.38h-3.31A1.38,1.38,0,0,1,179,42.19Z"/><path d="M186.67,18.15h1.41V39.44a1.37,1.37,0,0,0,1.37,1.38h1.91a1.37,1.37,0,0,1,1.38,1.37h0a1.38,1.38,0,0,1-1.38,1.38h-3.31a1.38,1.38,0,0,1-1.38-1.38Z"/><path d="M224.6,31.65h-1.53A1.35,1.35,0,0,0,221.72,33v6.45a1.35,1.35,0,0,0,1.35,1.36h2a1.34,1.34,0,0,1,1.35,1.35v0a1.35,1.35,0,0,1-1.35,1.36h-3.42a1.36,1.36,0,0,1-1.36-1.36V19.51a1.36,1.36,0,0,1,1.36-1.36h3.17a1.36,1.36,0,0,1,1.36,1.36v0a1.36,1.36,0,0,1-1.36,1.36h-1.77a1.35,1.35,0,0,0-1.35,1.36v5.32a1.35,1.35,0,0,0,1.35,1.36h1.53A1.35,1.35,0,0,1,226,30.29h0A1.36,1.36,0,0,1,224.6,31.65Z"/><path d="M207.7,19.57a1.41,1.41,0,0,1,1.08-1.39A8.42,8.42,0,0,1,210.7,18c2,0,3.46,1.09,4.42,3.17s1.54,5,1.54,9.13a25.73,25.73,0,0,1-1.57,9.88c-1,2.37-2.71,3.66-4.83,3.66a12.06,12.06,0,0,1-1.25-.07,1.45,1.45,0,0,1-1.31-1.43Zm1.41,20.15a1.43,1.43,0,0,0,1.41,1.44h0c3,0,4.64-3.93,4.64-10.79,0-6-1.44-9.81-4.42-9.81h-.27A1.45,1.45,0,0,0,209.11,22Z"/><path d="M198.77,31.65h-1.52A1.36,1.36,0,0,0,195.89,33v6.45a1.36,1.36,0,0,0,1.36,1.36h2a1.35,1.35,0,0,1,1.36,1.35v0a1.36,1.36,0,0,1-1.36,1.36h-3.42a1.36,1.36,0,0,1-1.36-1.36V19.51a1.36,1.36,0,0,1,1.36-1.36H199a1.36,1.36,0,0,1,1.36,1.36v0A1.36,1.36,0,0,1,199,20.9h-1.77a1.36,1.36,0,0,0-1.36,1.36v5.32a1.36,1.36,0,0,0,1.36,1.36h1.52a1.35,1.35,0,0,1,1.36,1.35h0A1.36,1.36,0,0,1,198.77,31.65Z"/><path d="M233.88,19.19a2.2,2.2,0,0,1,2-2.2l.6,0a3.07,3.07,0,0,1,3,1.85,9.27,9.27,0,0,1,.9,4.49c0,2.45-.69,4.6-1.84,5.58V29c1,.61,2.25,2.61,2.25,6.38a12.51,12.51,0,0,1-.92,5.09,3.84,3.84,0,0,1-3.78,2.38h0a2.2,2.2,0,0,1-2.14-2.22Zm1.41,8.71h1.28c1.48,0,2.36-1.81,2.36-4.27,0-3-1-4.14-2.4-4.14a2.79,2.79,0,0,0-1.24.22Zm0,12.18a3.38,3.38,0,0,0,1.18.15c1.46,0,2.8-1.24,2.8-4.94,0-3.47-1.28-4.9-2.82-4.9h-1.16Z"/><path d="M243.69,41.77l.56-1.86a2.11,2.11,0,0,0,0-1.29A28.29,28.29,0,0,1,243,29.87c0-8,2.19-13.28,5-13.28a2.25,2.25,0,0,1,.91.19,2,2,0,0,0,2.76-1.25h0l.36.57a2,2,0,0,1,.22,1.69l-.52,1.69a2.11,2.11,0,0,0,0,1.29A28.44,28.44,0,0,1,253,29.49c0,8.86-2.35,13.35-5,13.35a2.23,2.23,0,0,1-1-.21,2,2,0,0,0-2.78,1.24l-.06.18-.39-.73A2,2,0,0,1,243.69,41.77Zm6.1-19.88a2,2,0,0,0-.34-1.86,1.88,1.88,0,0,0-1.43-.8c-2.38,0-3.58,5.13-3.58,10.45a27,27,0,0,0,.81,6.82l0,0Zm-3.58,15.66a2,2,0,0,0,.3,1.82,1.83,1.83,0,0,0,1.48.83c2.28,0,3.55-4.87,3.55-10.6a26.1,26.1,0,0,0-.77-6.6h0Z"/><path d="M255.8,19.53a1.44,1.44,0,0,1,1.12-1.41,8.24,8.24,0,0,1,1.59-.16A3.19,3.19,0,0,1,261.66,20a11.7,11.7,0,0,1,.86,4.83c0,3.36-.9,5.58-2,6.49v.11c.84.68,1.34,2.49,1.6,5.13.35,3.55.61,6,.84,7h-.24a1.43,1.43,0,0,1-1.42-1.25c-.15-1.09-.32-2.75-.53-4.82-.32-3.51-.9-4.83-2.18-4.94h-1.33v11H255.8Zm1.41,9.1a1.44,1.44,0,0,0,1.44,1.44h0c1.51,0,2.46-1.93,2.46-4.83,0-3.28-1-4.72-2.51-4.75h0a1.4,1.4,0,0,0-1.37,1.43Z"/><path d="M265.51,43.57V19a.8.8,0,0,1,.81-.8h.11a.8.8,0,0,1,.78.59L270.55,31c.81,3,1.44,5.66,2,8.26l0,0c-.13-3.39-.16-6.49-.16-10.45V18.15h.08a1.39,1.39,0,0,1,1.52,1.4l-.28,23.22a.8.8,0,0,1-.8.81h0a.79.79,0,0,1-.78-.6l-3.31-12.3c-.76-2.83-1.49-5.73-2-8.49l0,0c.08,3.21.11,6.26.11,10.49V43.57Z"/><path d="M283.59,20.57a1.41,1.41,0,0,1,1.08-1.39,8.42,8.42,0,0,1,1.92-.22c2,0,3.46,1.09,4.42,3.17s1.54,5,1.54,9.13A25.73,25.73,0,0,1,291,41.14c-1,2.37-2.71,3.66-4.83,3.66a12.06,12.06,0,0,1-1.25-.07,1.45,1.45,0,0,1-1.31-1.43ZM285,40.72a1.43,1.43,0,0,0,1.41,1.44h0c3,0,4.64-3.93,4.64-10.79,0-6-1.44-9.81-4.42-9.81h-.27A1.45,1.45,0,0,0,285,23Z"/><path d="M299.67,32.65h-1.53A1.36,1.36,0,0,0,296.78,34v6.45a1.36,1.36,0,0,0,1.36,1.36h2a1.35,1.35,0,0,1,1.36,1.35v0a1.36,1.36,0,0,1-1.36,1.36h-3.42a1.36,1.36,0,0,1-1.36-1.36V20.51a1.36,1.36,0,0,1,1.36-1.36h3.18a1.36,1.36,0,0,1,1.36,1.36v0a1.36,1.36,0,0,1-1.36,1.36h-1.77a1.36,1.36,0,0,0-1.36,1.36v5.32a1.36,1.36,0,0,0,1.36,1.36h1.53A1.35,1.35,0,0,1,301,31.29h0A1.36,1.36,0,0,1,299.67,32.65Z"/><path d="M305.34,21.53a1.44,1.44,0,0,1,1.11-1.41A8.41,8.41,0,0,1,308,20,3.19,3.19,0,0,1,311.2,22a11.7,11.7,0,0,1,.86,4.83c0,3.36-.91,5.58-2.06,6.49v.11c.84.68,1.34,2.49,1.6,5.13.36,3.55.62,6,.84,7h-.24a1.43,1.43,0,0,1-1.42-1.25c-.15-1.09-.32-2.75-.52-4.82-.33-3.51-.91-4.83-2.19-4.94h-1.32v11h-1.41Zm1.41,9.1a1.44,1.44,0,0,0,1.43,1.44h0c1.5,0,2.46-1.93,2.46-4.83,0-3.28-1-4.72-2.51-4.75h0a1.4,1.4,0,0,0-1.37,1.43Z"/><path d="M323,42.62a1,1,0,0,1,1.59-.76,2.31,2.31,0,0,0,1.2.37c1.44,0,2.28-1.77,2.28-4.34a5.93,5.93,0,0,0-2.06-5c-1.78-1.47-2.88-3.62-2.88-7.21,0-4,1.41-6.9,3.53-6.9a2.91,2.91,0,0,1,2.05.84,1,1,0,0,1,.29.89l0,.39a1,1,0,0,1-1.47.8,2.06,2.06,0,0,0-.87-.2c-1.49,0-2.05,2.07-2.05,3.81a5.68,5.68,0,0,0,2.17,4.9c1.84,1.66,2.78,3.74,2.78,7.47,0,3.92-1.25,7.32-3.82,7.32a3.53,3.53,0,0,1-2.47-1.21,1.08,1.08,0,0,1-.26-.84Z"/><path d="M330.46,44.57V20a.8.8,0,0,1,.8-.8h.12a.81.81,0,0,1,.78.59L335.49,32c.81,3,1.44,5.66,2,8.26l0,0c-.13-3.39-.16-6.49-.16-10.45V19.15h0A1.52,1.52,0,0,1,339,20.69l-.33,23.07a.81.81,0,0,1-.81.81h0a.81.81,0,0,1-.78-.6l-3.3-12.3c-.76-2.83-1.49-5.73-2-8.49l-.05,0c.08,3.21.11,6.26.11,10.49V44.57Z"/><path d="M343.75,37.42l-.89,6.31a1,1,0,0,1-1,.84h-.6L344.87,20a1,1,0,0,1,1-.84h0a1,1,0,0,1,1,.84l3.6,24.58h-.65a1,1,0,0,1-1-.84l-.92-6.31a1,1,0,0,0-1-.85h-2.16A1,1,0,0,0,343.75,37.42ZM346.31,34a1,1,0,0,0,1-1.13l-.9-6.19c-.24-1.66-.4-3.17-.57-4.64h0c-.16,1.51-.34,3.06-.55,4.6l-.9,6.23a1,1,0,0,0,1,1.13Z"/><path d="M353,19l1.42.15V31.41h.05c.29-1,.58-1.89.86-2.72l3.15-9a.79.79,0,0,1,.75-.53h0a.8.8,0,0,1,.75,1.07l-3.47,9.47a.85.85,0,0,0,0,.5l3.89,13.36a.8.8,0,0,1-.77,1h0a.81.81,0,0,1-.77-.58l-3.42-11.91-1,2.66a.92.92,0,0,0-.05.28v9.55H353Z"/><path d="M362.79,19.15h1.4V31.41h.05c.29-1,.59-1.89.86-2.72l3.15-9a.79.79,0,0,1,.75-.53h0a.79.79,0,0,1,.75,1.07l-3.47,9.47a.85.85,0,0,0,0,.5l3.88,13.36a.79.79,0,0,1-.76,1h0a.8.8,0,0,1-.77-.58l-3.43-11.91-1,2.66a.92.92,0,0,0-.05.28v9.55h-1.4Z"/><path d="M376.85,32.65h-1.53A1.35,1.35,0,0,0,374,34v6.45a1.35,1.35,0,0,0,1.35,1.36h2a1.34,1.34,0,0,1,1.35,1.35v0a1.35,1.35,0,0,1-1.35,1.36h-3.42a1.36,1.36,0,0,1-1.36-1.36V20.51a1.36,1.36,0,0,1,1.36-1.36h3.17a1.36,1.36,0,0,1,1.36,1.36v0a1.36,1.36,0,0,1-1.36,1.36h-1.77A1.35,1.35,0,0,0,374,23.26v5.32a1.35,1.35,0,0,0,1.35,1.36h1.53a1.35,1.35,0,0,1,1.36,1.35h0A1.36,1.36,0,0,1,376.85,32.65Z"/><path d="M381.52,20.53a1.44,1.44,0,0,1,1.12-1.41,8.24,8.24,0,0,1,1.59-.16A3.19,3.19,0,0,1,387.38,21a11.7,11.7,0,0,1,.86,4.83c0,3.36-.91,5.58-2.06,6.49v.11c.85.68,1.35,2.49,1.61,5.13.35,3.55.61,6,.84,7h-.24A1.44,1.44,0,0,1,387,43.32c-.14-1.09-.32-2.75-.52-4.82-.32-3.51-.9-4.83-2.18-4.94h-1.33v11h-1.41Zm1.41,9.1a1.44,1.44,0,0,0,1.44,1.44h0c1.51,0,2.46-1.93,2.46-4.83,0-3.28-1-4.72-2.51-4.75h0a1.4,1.4,0,0,0-1.37,1.43Z"/><path d="M153.87,32.41c-.08-3.55-.17-7.81-.16-11h-.05c-.37,3-.82,6.15-1.37,9.65l-1.93,12.34h-1.07l-1.76-12.11c-.52-3.58-1-6.86-1.27-9.88h0c0,3.17-.11,7.43-.21,11.24l-.29,10.9h-1.34l.73-24.47a1,1,0,0,1,1-1h0a1,1,0,0,1,1,.83l1.74,11.46c.45,3.13.82,5.93,1.1,8.57H150c.27-2.57.66-5.36,1.14-8.57L152.92,19a1,1,0,0,1,1-.83h0a1,1,0,0,1,1,1l.65,24.47h-1.37Z"/><path d="M161.77,31.65h-1.52A1.36,1.36,0,0,0,158.89,33v6.45a1.36,1.36,0,0,0,1.36,1.36h2a1.35,1.35,0,0,1,1.36,1.35v0a1.36,1.36,0,0,1-1.36,1.36h-3.42a1.36,1.36,0,0,1-1.36-1.36V19.51a1.36,1.36,0,0,1,1.36-1.36H162a1.36,1.36,0,0,1,1.36,1.36v0A1.36,1.36,0,0,1,162,20.9h-1.77a1.36,1.36,0,0,0-1.36,1.36v5.32a1.36,1.36,0,0,0,1.36,1.36h1.52a1.35,1.35,0,0,1,1.36,1.35h0A1.36,1.36,0,0,1,161.77,31.65Z"/></svg>