<svg id="Layer_1" data-name="Layer 1" xmlns="http://www.w3.org/2000/svg" width="1920" height="1080" viewBox="0 0 1920 1080"><defs><style>.cls-1{fill:#c69c6d;}.cls-17,.cls-2,.cls-5,.cls-6,.cls-8{fill:#c7b299;}.cls-16,.cls-18,.cls-19,.cls-2,.cls-22,.cls-23,.cls-31,.cls-33,.cls-6,.cls-9{stroke:#000;}.cls-11,.cls-12,.cls-16,.cls-18,.cls-2,.cls-22,.cls-23,.cls-31,.cls-33,.cls-34,.cls-4,.cls-9{stroke-miterlimit:10;}.cls-3,.cls-4{fill:#1b1464;}.cls-34,.cls-4{stroke:#fff;}.cls-16,.cls-18,.cls-34,.cls-4,.cls-9{stroke-width:3px;}.cls-12,.cls-13,.cls-6,.cls-8{stroke-linecap:round;}.cls-13,.cls-17,.cls-19,.cls-6,.cls-8{stroke-linejoin:round;}.cls-33,.cls-34,.cls-7{fill:#fff;}.cls-17,.cls-8{stroke:#c70020;stroke-width:10px;}.cls-9{fill:#f2f2f2;}.cls-10{fill:#1a1a1a;}.cls-11,.cls-12,.cls-13,.cls-16,.cls-19,.cls-23{fill:none;}.cls-11,.cls-12,.cls-13{stroke:#1a1a1a;}.cls-12,.cls-13{stroke-width:21px;}.cls-14{fill:#fbb03b;}.cls-15{fill:#c1272d;}.cls-20{fill:#87272d;}.cls-21{fill:#fffa8a;}.cls-24{fill:#8c6239;}.cls-25{fill:#860000;}.cls-26{fill:#b49400;}.cls-27{fill:#223c4f;}.cls-28{fill:#006c3b;}.cls-29,.cls-31{fill:#864844;}.cls-30{fill:#935600;}.cls-32{fill:#a67c52;}.cls-33{stroke-width:4px;}</style></defs><title>titelscene</title><rect class="cls-1" x="1" y="1" width="1920" height="1081"/><path class="cls-2" d="M337,847c0-14,1.07-43,10-55,13.44-18.1,51.28-23,75-23,17.9,0,38.46-8.66,51,1,15.12,11.64,19,51.33,19,70.5,0,14,8.67,46,0,56.5-13,15.76-42.31,26-66,26-19.74,0-57.44,14-71,0S337,864.54,337,847Z"/><polygon class="cls-3" points="1070 1078 847 1078 847 974 941 982 1066 972 1070 1078"/><path class="cls-4" d="M372.57,293.83a5.94,5.94,0,0,1,4.2-4.62c14.08-4.1,32.77-11.76,51.73-22.53,30.52-17.32,46.75-35.43,43.73-48.83-2.77-12.24-17.27-13.29-51-2.41-40.48,14-66.79,18.43-72,0-5.71-20.1,20.55-55.24,68.4-80.73,18.88-10,34.44-15.73,46-18.75a5.91,5.91,0,0,1,7.1,7.52c-.54,1.69-1.08,3.39-1.61,5.08a5.91,5.91,0,0,1-4.42,4c-9.36,1.95-25.24,6.35-44.78,16.78-33.31,18-42.76,36.44-40.42,45.24,3.26,12.33,19.11,9.33,53.84-1.5,42.68-13,66.08-11.31,70.15,8,4.37,20.73-19.44,50-73.59,80.78-17.58,10-36.78,19.2-50.59,24.19a5.92,5.92,0,0,1-7.83-6.64Z"/><path class="cls-4" d="M545,210.17a5.9,5.9,0,0,1,5-4.26c14.63-1.65,34.14-6,54.14-13.29,32.36-11.81,50.21-26.81,48.2-40.37-1.85-12.39-16.43-15.78-51.47-10.77-42.17,6.93-69.3,6.81-73.07-12-4.17-20.54,25.37-50.32,75.84-67.27,20.37-6.8,36.83-9.79,48.85-10.77a5.91,5.91,0,0,1,5.91,8.24q-1,2.32-2,4.63a5.9,5.9,0,0,1-5.19,3.57,166.59,166.59,0,0,0-46.39,9c-35.16,12-46.25,28.41-44.58,37.38,2.32,12.55,18.67,12.29,54.72,7.48,44.27-5.65,67.77-.18,70.4,19.33,2.79,20.92-23.5,45.63-80.94,66.63-19,7-39.72,12.81-54.22,15.26a5.92,5.92,0,0,1-6.71-7.43C544,213.72,544.46,211.94,545,210.17Z"/><path class="cls-4" d="M718.83,156.07a5.88,5.88,0,0,1,5.78-3.75A245,245,0,0,0,780,148.1c33.5-6.31,52.55-18.09,51.54-31.65-.94-12.39-15.33-18-51-18.78-43,0-70.38-4.57-72.73-23.54-2.65-20.72,29.47-44.95,81.47-53.38,21.4-3.43,38.39-3.65,50.57-2.61a5.92,5.92,0,0,1,4.7,8.78q-1.12,2-2.23,4a5.94,5.94,0,0,1-5.87,3,169.12,169.12,0,0,0-47.07,1.34c-36.27,6-48.71,20.25-47.7,29.28,1.38,12.62,17.9,15,54.53,16.12,44.95,1.61,68.09,10.7,69.3,30.16,1.26,20.86-26.91,40.8-86.38,52-20.07,3.82-41.84,6.16-56.71,6.11a5.91,5.91,0,0,1-5.48-8.06C717.57,159.28,718.2,157.67,718.83,156.07Z"/><path class="cls-4" d="M912.64,16.08q.75,21.89,1.49,43.76a5.91,5.91,0,0,0,6.12,5.71q57.66-1.95,115.31,1.7a5.91,5.91,0,0,0,6.3-5.82q.27-21.24.53-42.46a5.91,5.91,0,0,1,6.37-5.83q11.63.9,23.23,2a5.91,5.91,0,0,1,5.33,6l-3,119.16a5.92,5.92,0,0,1-6.43,5.74q-10.74-.92-21.5-1.64a5.93,5.93,0,0,1-5.53-6l.63-50.4a5.92,5.92,0,0,0-5.54-6q-57.54-3.6-115.24-1.59a5.92,5.92,0,0,0-5.7,6.12q.86,25.29,1.72,50.59a5.93,5.93,0,0,1-5.63,6.11q-10.57.53-21.15,1.25a5.92,5.92,0,0,1-6.33-5.62Q880.83,78.32,878,17.67a5.92,5.92,0,0,1,5.57-6.19q11.46-.68,22.93-1.12A5.92,5.92,0,0,1,912.64,16.08Z"/><path class="cls-4" d="M1140.27,34.34,1137.72,78a5.92,5.92,0,0,0,4.85,6.16q56.85,10.36,112.73,26.29a5.93,5.93,0,0,0,7.53-5.07q2-19.41,4-38.82a5.92,5.92,0,0,1,7.59-5.06q11.19,3.39,22.32,7a5.93,5.93,0,0,1,4,6.32q-6.63,56.93-13.25,113.83a5.92,5.92,0,0,1-7.65,5q-10.35-3.19-20.74-6.21a5.93,5.93,0,0,1-4.25-6.29q2.58-24.75,5.15-49.49a5.91,5.91,0,0,0-4.25-6.31q-55.8-16-112.71-26.32a5.93,5.93,0,0,0-7,5.49q-1.38,23.7-2.77,47.39a5.91,5.91,0,0,1-6.88,5.49q-10.45-1.72-20.94-3.26a5.91,5.91,0,0,1-5.06-6.12q2.73-59,5.45-118a5.93,5.93,0,0,1,6.83-5.58q11.33,1.8,22.61,3.8A5.92,5.92,0,0,1,1140.27,34.34Z"/><path class="cls-4" d="M1372.69,102.19q-3.17,21.23-6.35,42.44a5.9,5.9,0,0,0,3.57,6.32q53.92,22.61,106,50.75a5.92,5.92,0,0,0,8.64-4q3.32-17,6.62-33.94a5.92,5.92,0,0,1,8.71-4q10.31,5.83,20.53,11.88a5.91,5.91,0,0,1,2.77,6.3q-11,53-22,105.94a5.92,5.92,0,0,1-8.75,3.93q-9.56-5.46-19.18-10.72a5.91,5.91,0,0,1-3-6.32q4.63-23.7,9.26-47.41a5.94,5.94,0,0,0-3-6.34,1174.54,1174.54,0,0,0-106-50.94,5.91,5.91,0,0,0-8.13,4.59q-3.21,21.42-6.41,42.84a5.92,5.92,0,0,1-8.06,4.62q-9.93-4-19.91-7.74a5.91,5.91,0,0,1-3.78-6.33q7.71-56,15.41-112.07a5.91,5.91,0,0,1,8-4.71q10.74,4.22,21.39,8.64A5.94,5.94,0,0,1,1372.69,102.19Z"/><path class="cls-4" d="M447.83,358.7q-26.06,15.72-51.43,33a5.91,5.91,0,0,1-9-3.24l-.65-2.25a5.92,5.92,0,0,1,2.34-6.53,1108.13,1108.13,0,0,1,152.66-87.57,5.92,5.92,0,0,1,8.31,4.17l.55,2.65a5.92,5.92,0,0,1-3.28,6.54q-30.42,14.32-60.11,30.59c-2.34,1.28-3,3.91-2.91,6.57.49,20.3,1.38,41.39,25.93,108.51.9,2.47-.53,5.19-2.81,6.5q-8.2,4.73-16.35,9.61a5.92,5.92,0,0,1-8.77-3.63Q469.46,413,456.61,362.33A5.92,5.92,0,0,0,447.83,358.7Z"/><path class="cls-4" d="M584.11,299.24,606,420.63a5.91,5.91,0,0,1-3.53,6.5q-8.48,3.56-16.89,7.27a5.91,5.91,0,0,1-8.21-4.28L553.9,309.18a5.93,5.93,0,0,1,3.48-6.57q9.32-4,18.69-7.81A5.92,5.92,0,0,1,584.11,299.24Z"/><path class="cls-4" d="M718.87,378.17a5.91,5.91,0,0,1,5.83-4,197.76,197.76,0,0,0,49.57-4.92c30.29-6.81,47.43-19,46.35-32.55-1-12.41-14.16-17.75-46.57-18C735,319.3,710,315,707.57,296c-2.76-20.73,26.07-45.24,73.35-54.49,19.23-3.74,34.57-4.31,45.67-3.55a5.92,5.92,0,0,1,4.89,8.54l-2,4a5.91,5.91,0,0,1-5.91,3.28A143,143,0,0,0,781.21,256c-33,6.62-44.05,21-43,30,1.45,12.6,16.5,14.85,49.83,15.38,40.91.87,62.07,9.43,63.39,28.92,1.37,20.85-24,41.53-77.72,53.65-17.93,4.08-37.37,6.65-50.82,6.8a5.91,5.91,0,0,1-5.65-7.79Z"/><path class="cls-4" d="M911,246.68q-31,1.88-61.93,5.49a5.92,5.92,0,0,1-6.6-5.5l-.18-2.82a5.92,5.92,0,0,1,5.22-6.26A1111.32,1111.32,0,0,1,1018.21,231a5.92,5.92,0,0,1,5.69,6l0,2.62a5.9,5.9,0,0,1-6.14,5.85q-31.41-1.14-62.82-.49a5.91,5.91,0,0,0-5.79,6.05q1.11,53.14,2.23,106.31a5.92,5.92,0,0,1-5.68,6q-9.28.4-18.56,1a5.91,5.91,0,0,1-6.28-5.7L917.27,252.4A5.92,5.92,0,0,0,911,246.68Z"/><path class="cls-4" d="M1066.86,247.89q-1.86,59.44-3.73,118.9a5.91,5.91,0,0,1-6.38,5.71q-9.12-.72-18.24-1.26a5.92,5.92,0,0,1-5.58-6q1.14-59.62,2.27-119.27a5.92,5.92,0,0,1,6.34-5.79q10,.72,20,1.64A5.92,5.92,0,0,1,1066.86,247.89Z"/><path class="cls-4" d="M1098.72,248q9.9,1.53,19.79,3.22a5.93,5.93,0,0,1,4.89,6.23l-6.78,104.38a5.92,5.92,0,0,0,4.92,6.21q44.61,7.59,88.65,19a5.92,5.92,0,0,1,4.39,6.35l-.19,1.81a5.92,5.92,0,0,1-7.37,5.11,1054.72,1054.72,0,0,0-116.2-22.92,5.91,5.91,0,0,1-5.1-6.17q3.09-58.84,6.2-117.69A5.92,5.92,0,0,1,1098.72,248Z"/><path class="cls-4" d="M1254.14,280.86q9.61,3.08,19.18,6.32a5.93,5.93,0,0,1,4,6.38q-6.65,50.78-13.3,101.54a5.93,5.93,0,0,0,4,6.37q43.83,14.75,86.63,33.44a5.92,5.92,0,0,1,3.46,6.43l-.19,1.14a5.93,5.93,0,0,1-8.2,4.43,1055.75,1055.75,0,0,0-112.51-41.21,5.91,5.91,0,0,1-4.16-6.35q6.74-56.78,13.48-113.54A5.92,5.92,0,0,1,1254.14,280.86Z"/><path class="cls-4" d="M1486.32,450.63q-34.18-21.66-69.49-40.51a5.92,5.92,0,0,0-8.58,4.08L1402.19,445a5.9,5.9,0,0,0,3.06,6.38q42.82,22.44,84,49a5.92,5.92,0,0,1,2.54,6.35l-.06.26a5.93,5.93,0,0,1-9,3.61,1063.83,1063.83,0,0,0-107.8-60.3,5.9,5.9,0,0,1-3.24-6.39q10-54,20-108a5.91,5.91,0,0,1,8.47-4.21,1115.12,1115.12,0,0,1,108.78,63,5.94,5.94,0,0,1,2.51,6.32l-.06.23a5.92,5.92,0,0,1-9,3.6q-37.15-24.12-75.67-45a5.91,5.91,0,0,0-8.61,4.07c-1.67,8.49-1.49,8.62-3.16,17.11-.5,2.56-1.13,13.49,1.17,14.72q38.92,20.7,76.52,44.79a5.92,5.92,0,0,1,2.57,6.33l0,.13A5.92,5.92,0,0,1,1486.32,450.63Z"/><rect class="cls-5" x="959" y="1077" width="26" height="3"/><path class="cls-5" d="M652.27,739.11c0,24.58-8.86,43.89,8.43,43.89S692,763.08,692,738.5,678,694,660.7,694,652.27,714.53,652.27,739.11Z"/><polyline class="cls-6" points="670.93 720.82 678.64 737.93 672.62 761.71"/><path class="cls-5" d="M1248.11,704.08c0,23.47,7.36,41.92-7,41.92s-26-19-26-42.5,11.64-42.5,26-42.5S1248.11,680.61,1248.11,704.08Z"/><polyline class="cls-6" points="1232.61 686.62 1226.21 702.96 1231.21 725.66"/><path class="cls-5" d="M681,725.5c-2.3,65,10,159.88,59,202.5s138.3,53,213,53c78.71,0,189.57-15.29,239-62,44.4-42,27.41-132,30-193.5,5.34-126.88-119.62-227.38-270.5-235.5C806.74,482.21,685.76,591.41,681,725.5Z"/><circle class="cls-7" cx="701" cy="677" r="23"/><circle class="cls-7" cx="689.57" cy="646.56" r="30.5"/><circle class="cls-7" cx="719.5" cy="606.5" r="30.5"/><ellipse class="cls-7" cx="737" cy="673.5" rx="13" ry="19.5"/><ellipse class="cls-7" cx="764" cy="582.5" rx="27" ry="39.5"/><circle class="cls-7" cx="729" cy="564" r="21"/><ellipse class="cls-7" cx="739" cy="646.5" rx="40" ry="30.5"/><ellipse class="cls-7" cx="888" cy="509" rx="30" ry="18"/><ellipse class="cls-7" cx="925" cy="486" rx="30" ry="18"/><ellipse class="cls-7" cx="858" cy="533" rx="30" ry="18"/><ellipse class="cls-7" cx="873" cy="486" rx="30" ry="18"/><ellipse class="cls-7" cx="839" cy="504" rx="30" ry="18"/><ellipse class="cls-7" cx="809" cy="579" rx="30" ry="18"/><circle class="cls-7" cx="791" cy="533" r="42"/><ellipse class="cls-7" cx="970" cy="485.5" rx="30.5" ry="30" transform="translate(149.83 1195.38) rotate(-67.47)"/><circle class="cls-7" cx="979.5" cy="491.5" r="4.5"/><ellipse class="cls-7" cx="1039" cy="496.5" rx="17" ry="44.5"/><ellipse class="cls-7" cx="1029" cy="516.5" rx="30" ry="23.5"/><ellipse class="cls-7" cx="1133" cy="552.5" rx="39" ry="50.5"/><ellipse class="cls-7" cx="1172" cy="596.5" rx="43" ry="7.5"/><ellipse class="cls-7" cx="680.5" cy="698.5" rx="8.5" ry="38.5"/><ellipse class="cls-7" cx="1086" cy="522" rx="52" ry="22"/><ellipse class="cls-7" cx="924.5" cy="503.5" rx="14.5" ry="33.5" transform="translate(105.14 1164.46) rotate(-67.47)"/><ellipse class="cls-7" cx="1183" cy="597.5" rx="42" ry="42.5"/><ellipse class="cls-7" cx="1117.5" cy="491.5" rx="15.5" ry="23.5"/><circle class="cls-7" cx="1010" cy="490" r="26"/><circle class="cls-7" cx="1078" cy="490" r="26"/><circle class="cls-7" cx="1218.5" cy="672.5" r="25.5"/><circle class="cls-7" cx="1204" cy="636" r="32"/><circle class="cls-7" cx="1184" cy="535" r="26"/><ellipse class="cls-7" cx="909" cy="465.5" rx="21" ry="24.5"/><circle class="cls-7" cx="824" cy="483" r="15"/><ellipse class="cls-7" cx="948.5" cy="474" rx="12.5" ry="7"/><ellipse class="cls-7" cx="1129.5" cy="558" rx="12.5" ry="7"/><ellipse class="cls-7" cx="943" cy="461.5" rx="18" ry="12.5"/><ellipse class="cls-7" cx="883.5" cy="453.5" rx="25.5" ry="12.5"/><ellipse class="cls-7" cx="1003" cy="469.5" rx="20.5" ry="33" transform="translate(94.9 1103.37) rotate(-60)"/><circle class="cls-7" cx="866.5" cy="472.5" r="23.5"/><circle class="cls-7" cx="1153.5" cy="501.5" r="20.5"/><ellipse class="cls-7" cx="965" cy="464.5" rx="18.5" ry="30" transform="translate(-105.61 436.5) rotate(-24.21)"/><circle class="cls-7" cx="1070.5" cy="452.5" r="28.5"/><circle class="cls-7" cx="1020" cy="462" r="21"/><circle class="cls-7" cx="1136" cy="475" r="34"/><ellipse class="cls-7" cx="930" cy="444.5" rx="24" ry="31.5" transform="translate(-89.46 292.25) rotate(-17.05)"/><ellipse class="cls-7" cx="825.5" cy="442.5" rx="1.5" ry="8.5"/><ellipse class="cls-7" cx="778" cy="473.5" rx="32" ry="18.5"/><ellipse class="cls-7" cx="820.5" cy="483" rx="3.5" ry="49"/><circle class="cls-7" cx="749" cy="509" r="29"/><ellipse class="cls-7" cx="990.5" cy="435" rx="40.5" ry="29"/><ellipse class="cls-7" cx="808.5" cy="468" rx="8.5" ry="29"/><ellipse class="cls-7" cx="710.5" cy="579" rx="35.5" ry="20"/><circle class="cls-7" cx="1207" cy="551" r="14"/><circle class="cls-7" cx="820" cy="441" r="13"/><ellipse class="cls-7" cx="1104" cy="450.5" rx="13" ry="30.5"/><ellipse class="cls-7" cx="1183" cy="665.5" rx="23" ry="16.5"/><ellipse class="cls-7" cx="1174" cy="491.5" rx="25" ry="25.5"/><ellipse class="cls-7" cx="689.5" cy="619.5" rx="29.5" ry="9.5"/><ellipse class="cls-7" cx="1170.5" cy="517.5" rx="29.5" ry="9.5"/><ellipse class="cls-7" cx="1088.5" cy="465.5" rx="29.5" ry="9.5"/><ellipse class="cls-7" cx="857.5" cy="442.5" rx="29.5" ry="9.5"/><ellipse class="cls-7" cx="700.5" cy="603.5" rx="29.5" ry="9.5"/><circle class="cls-7" cx="888" cy="434" r="23"/><circle class="cls-7" cx="791" cy="483" r="23"/><circle class="cls-7" cx="749" cy="541" r="23"/><circle class="cls-7" cx="843" cy="466" r="23"/><circle class="cls-7" cx="1041" cy="430" r="23"/><circle class="cls-7" cx="689" cy="709" r="11"/><ellipse class="cls-7" cx="675.5" cy="693" rx="24.5" ry="16"/><path class="cls-8" d="M761,703c4.35,18.27,55.81,66.5,89.5,66.5S926,746.78,926,728s-50.31-31-84-31S751,661,761,703Z"/><ellipse class="cls-9" cx="846.58" cy="726.5" rx="13.75" ry="35.25" transform="translate(-48.05 1392.94) rotate(-77.32)"/><circle class="cls-10" cx="847" cy="727" r="8"/><path class="cls-11" d="M888,723c1.41,1.69-37.56-12.47-86-21"/><path class="cls-8" d="M1152.85,703c-4.35,18.27-55.82,66.5-89.5,66.5s-75.5-22.72-75.5-41.5,50.31-31,84-31S1162.85,661,1152.85,703Z"/><ellipse class="cls-9" cx="1067.26" cy="726.5" rx="35.25" ry="13.75" transform="translate(-133.46 252.03) rotate(-12.68)"/><circle class="cls-10" cx="1066.85" cy="727" r="8"/><path class="cls-11" d="M1025.85,723c10.3,1.42,44.72-13.08,86-21"/><polyline class="cls-12" points="919.02 703.06 842.02 655.06 784 657"/><polyline class="cls-13" points="995.49 699.14 1094 645 1133.49 654.14"/><ellipse class="cls-14" cx="664.75" cy="800.25" rx="10.25" ry="30.75"/><ellipse class="cls-15" cx="666.5" cy="800.5" rx="5.5" ry="17.5"/><ellipse class="cls-14" cx="1242.75" cy="761.25" rx="10.25" ry="30.75"/><ellipse class="cls-15" cx="1241" cy="761.5" rx="5.5" ry="17.5"/><polyline class="cls-16" points="938.16 750.13 996.54 783.39 1029.6 850.94"/><path class="cls-17" d="M763,705.81c0,.7-27.73,1.27-62,1.27"/><path class="cls-16" d="M1030,850.5s-31.93,23-62.5,14c-24.49-7.18-96.25,6.14-71-14"/><ellipse class="cls-18" cx="937" cy="856.5" rx="18.5" ry="6"/><path class="cls-8" d="M929.5,722.5c0-4.42,29.5-16.5,58.5-3.5"/><path class="cls-17" d="M1203,696.3c0,1.12-20.13,2-45,2"/><path class="cls-19" d="M950.5,700.5c0-21.56-10.73-39-24-39"/><path class="cls-19" d="M975.5,696.5c0-23.21,6.71-42,15-42"/><path class="cls-19" d="M872.5,862.5c0-17.13,6.71-31,15-31"/><path class="cls-19" d="M1041.5,866.5c0-19.35-4.92-35-11-35"/><path class="cls-19" d="M845.5,911.5c0-21,15.65-38,35-38"/><path class="cls-19" d="M1052.5,911.5c0-24.87-13-45-29-45"/><path class="cls-19" d="M858.5,622.5h191"/><path class="cls-19" d="M865.5,589.5c0-5.53,75.59-10,169-10"/><path class="cls-19" d="M902.5,552.5c0,1.66,54.12,3,121,3"/><line class="cls-19" x1="764.5" y1="738.5" x2="728.5" y2="743.5"/><line class="cls-19" x1="750.5" y1="720.5" x2="719.5" y2="726.5"/><line class="cls-19" x1="1157.5" y1="730.5" x2="1193.5" y2="743.5"/><line class="cls-19" x1="1169.5" y1="713.5" x2="1209.5" y2="717.5"/><line class="cls-19" x1="1159.5" y1="682.5" x2="1173.5" y2="679.5"/><line class="cls-19" x1="749.5" y1="697.5" x2="719.5" y2="698.5"/><path class="cls-19" d="M783.5,769.5c0,12.71,43.38,23,97,23"/><path class="cls-19" d="M1141.5,761.5c0,17.13-41.15,31-92,31"/><path class="cls-19" d="M746.5,761.5c0,21.56,14.76,39,33,39"/><path class="cls-19" d="M1183.5,750.5c0,27.64-18.79,50-42,50"/><path class="cls-2" d="M959.5,1057.5c-11.22,0-64,14-67,20-1,2,.76,1.84,1,2,6.47,4.16,50.87-.58,65,0,.8,0,1.42-1,2-1"/><path class="cls-20" d="M1015,926c0,18.23-28.88,33-64.5,33S886,944.23,886,926c0-11.13,10.51-31,27-37,10.52-3.81,23.63,4,37.5,4,11.8,0,24-6.83,33.5-4C1003.21,894.71,1015,913.81,1015,926Z"/><ellipse class="cls-21" cx="953.5" cy="923.5" rx="38.5" ry="9.5"/><path class="cls-22" d="M933.82,1016.29c3.14-.44,9.29,5.61,8.68,1.21s-4.86-17.44-8-17-9.61,9.6-9,14S930.68,1016.73,933.82,1016.29Z"/><path class="cls-2" d="M923.5,1040.5c-4.08-7.11,1.34-33.32,10-35,5.15-1,14,18,9,27"/><path class="cls-2" d="M956,1026c-13.07,0-68.48,33.4-68.48,48.46s58.43-14.13,71.5-14.13"/><rect class="cls-5" x="956" y="1027" width="28" height="51"/><path class="cls-2" d="M955.5,1026.5c-3.63-13.11,0-43,0-67,0-39.49,4-71,15-71s13,32.51,13,72c0,20.19,7.15,75.09,7,104,0,8.64-1.12,13.17-2,16"/><ellipse class="cls-22" cx="975" cy="897" rx="5.5" ry="14.5"/><line class="cls-23" x1="895.5" y1="897.5" x2="886.5" y2="892.5"/><line class="cls-23" x1="883.5" y1="914.5" x2="872.5" y2="911.5"/><line class="cls-23" x1="880.5" y1="938.5" x2="869.5" y2="943.5"/><line class="cls-23" x1="895.5" y1="950.5" x2="886.5" y2="959.5"/><line class="cls-23" x1="918.5" y1="959.5" x2="911.5" y2="974.5"/><line class="cls-23" x1="915.5" y1="882.5" x2="915.5" y2="873.5"/><line class="cls-23" x1="934.5" y1="882.5" x2="934.5" y2="873.5"/><line class="cls-23" x1="958.5" y1="882.5" x2="956.5" y2="866.5"/><line class="cls-23" x1="990.5" y1="882.5" x2="992.5" y2="874.5"/><line class="cls-23" x1="1002.5" y1="892.5" x2="1009.5" y2="887.5"/><line class="cls-23" x1="1015.5" y1="906.5" x2="1023.5" y2="902.5"/><line class="cls-23" x1="942.5" y1="967.5" x2="938.5" y2="975.5"/><line class="cls-23" x1="990.5" y1="959.5" x2="991.5" y2="979.5"/><line class="cls-23" x1="1035.5" y1="914.5" x2="1023.5" y2="923.5"/><line class="cls-23" x1="1029.5" y1="947.5" x2="1015.5" y2="941.5"/><line class="cls-23" x1="1009.5" y1="967.5" x2="1002.5" y2="955.5"/><line class="cls-23" x1="955.5" y1="994.5" x2="960.5" y2="993.5"/><line class="cls-23" x1="955.5" y1="955.5" x2="962.5" y2="949.5"/><line class="cls-23" x1="909.5" y1="1069.5" x2="908.5" y2="1075.5"/><line class="cls-23" x1="913.23" y1="1052.06" x2="916.77" y2="1045.94"/><polygon class="cls-3" points="492 904.29 355.31 923.28 377 1079 516 1077 492 904.29"/><line class="cls-23" x1="361.74" y1="817.82" x2="362.5" y2="800.5"/><line class="cls-23" x1="384.77" y1="817.83" x2="385.5" y2="802.5"/><line class="cls-23" x1="413.92" y1="820.68" x2="414.5" y2="805.5"/><line class="cls-23" x1="915" y1="924" x2="957" y2="924.5"/><polygon class="cls-24" points="1920 1081 1409 1081 1409 645 1920 781 1920 1081"/><polygon class="cls-25" points="1433 756 1409 749 1409 645 1433 651 1433 756"/><polygon class="cls-25" points="1697 1072 1673 1062 1673 965 1697 971 1697 1072"/><polygon class="cls-25" points="1595 1045 1571 1038 1571 934 1595 940 1595 1045"/><polygon class="cls-25" points="1709 951 1685 944 1685 840 1709 846 1709 951"/><polygon class="cls-25" points="1613 923 1589 916 1589 812 1613 818 1613 923"/><polygon class="cls-25" points="1900 1004 1876 997 1876 893 1900 899 1900 1004"/><polygon class="cls-25" points="1876 873 1852 866 1852 762 1876 768 1876 873"/><polygon class="cls-25" points="1457 1080 1433 1080 1433 1025 1457 1031 1457 1080"/><polygon class="cls-25" points="1800 1080 1776 1080 1776 996 1800 1002 1800 1080"/><polygon class="cls-25" points="1507 1025 1483 1018 1483 914 1507 920 1507 1025"/><polygon class="cls-25" points="1776 969 1752 962 1752 858 1776 864 1776 969"/><polygon class="cls-25" points="1509 895 1485 888 1485 784 1509 790 1509 895"/><polygon class="cls-25" points="1769 846 1745 839 1745 735 1769 741 1769 846"/><polygon class="cls-25" points="1677 822 1653 815 1653 711 1677 717 1677 822"/><polygon class="cls-25" points="1570 794 1546 787 1546 683 1570 689 1570 794"/><polygon class="cls-25" points="1595 801 1571 794 1571 690 1595 696 1595 801"/><polygon class="cls-25" points="1497 774 1473 767 1473 663 1497 669 1497 774"/><polygon class="cls-26" points="1473 767 1434 756 1434 653 1473 663 1473 767"/><polygon class="cls-26" points="1634 810 1595 799 1595 696 1634 706 1634 810"/><polygon class="cls-26" points="1745 838 1706 827 1706 724 1745 734 1745 838"/><polygon class="cls-26" points="1871 1081 1832 1081 1832 1008 1871 1018 1871 1081"/><polygon class="cls-26" points="1558 1038 1519 1027 1519 924 1558 934 1558 1038"/><polygon class="cls-26" points="1763 1078 1724 1081 1724 978 1763 988 1763 1078"/><polygon class="cls-26" points="1834 863 1795 852 1795 749 1834 759 1834 863"/><polygon class="cls-26" points="1815 980 1776 969 1776 866 1815 876 1815 980"/><polygon class="cls-26" points="1448 1008 1409 997 1409 894 1448 904 1448 1008"/><polygon class="cls-26" points="1684 945 1645 934 1644.7 827.42 1683.7 837.42 1684 945"/><polygon class="cls-26" points="1484 891 1445 880 1445 777 1484 787 1484 891"/><polygon class="cls-27" points="1512 778 1497 774 1497 669 1512 673 1512 778"/><polygon class="cls-27" points="1915 1008 1900 1004 1900 899 1915 903 1915 1008"/><polygon class="cls-27" points="1888 1080 1871 1081 1873 1026 1888 1030 1888 1080"/><polygon class="cls-27" points="1495 1080 1480 1080 1480 1036 1495 1040 1495 1080"/><polygon class="cls-27" points="1715 1075 1697 1072 1699 971 1714 975 1715 1075"/><polygon class="cls-27" points="1832 982 1817 978 1817 873 1832 877 1832 982"/><polygon class="cls-27" points="1693 826 1678 822 1678 717 1693 721 1693 826"/><polygon class="cls-27" points="1572 1037 1557 1033 1557 928 1572 932 1572 1037"/><polygon class="cls-27" points="1424 872 1409 868 1409 763 1424 767 1424 872"/><polygon class="cls-27" points="1526 901 1511 897 1511 792 1526 796 1526 901"/><polygon class="cls-28" points="1557 910 1526 901 1526 796 1557 803 1557 910"/><polygon class="cls-28" points="1865 992 1834 983 1834 878 1865 885 1865 992"/><polygon class="cls-28" points="1920 1081 1888 1080 1885 1030 1916 1037 1920 1081"/><polygon class="cls-28" points="1832 1081 1800 1080 1799 1004 1830 1011 1832 1081"/><polygon class="cls-28" points="1527 1080 1495 1080 1496 1041 1527 1048 1527 1080"/><polygon class="cls-28" points="1481 1019 1450 1010 1450 905 1481 912 1481 1019"/><polygon class="cls-28" points="1545 787 1514 778 1514 673 1545 680 1545 787"/><polygon class="cls-28" points="1907 883 1876 874 1876 769 1907 776 1907 883"/><polygon class="cls-28" points="1644 935 1613 926 1613 821 1644 828 1644 935"/><polygon class="cls-28" points="1628 1054 1597 1045 1597 940 1628 947 1628 1054"/><polygon class="cls-29" points="1434 877 1424 875 1424 806 1434 808 1434 877"/><polygon class="cls-29" points="1705 824 1695 822 1695 753 1705 755 1705 824"/><polygon class="cls-29" points="1921 1008 1915 1005 1915 936 1920 937 1921 1008"/><polygon class="cls-29" points="1876 993 1866 991 1866 922 1876 924 1876 993"/><polygon class="cls-29" points="1725 1077 1715 1075 1715 1006 1725 1008 1725 1077"/><polygon class="cls-29" points="1776 1080 1763 1078 1765 1025 1775 1027 1776 1080"/><polygon class="cls-29" points="1419 1077.02 1409 1078 1409 1053 1419 1055 1419 1077.02"/><polygon class="cls-29" points="1647 1058 1629 1052 1629 983 1649 987 1647 1058"/><polygon class="cls-29" points="1781 849 1771 847 1771 778 1781 780 1781 849"/><polygon class="cls-29" points="1519 1025 1509 1023 1509 954 1519 956 1519 1025"/><polygon class="cls-29" points="1568 913 1558 911 1558 842 1568 844 1568 913"/><polygon class="cls-29" points="1645 811 1635 809 1635 740 1645 742 1645 811"/><polygon class="cls-30" points="1589 918 1567 913 1567 831 1589 835 1589 918"/><polygon class="cls-30" points="1594 1076 1572 1080 1572 1072 1594 1076 1594 1076"/><polygon class="cls-30" points="1671 1062 1649 1057 1649 975 1671 979 1671 1062"/><polygon class="cls-30" points="1920 886 1907 884 1907 802 1921 805 1920 886"/><polygon class="cls-30" points="1731 956 1709 951 1709 869 1731 873 1731 956"/><polygon class="cls-30" points="1480 1080 1457 1080 1457 1043 1479 1047 1480 1080"/><polygon class="cls-30" points="1549 1080 1527 1080 1527 1061 1549 1067 1549 1080"/><polygon class="cls-28" points="1752 962 1731 956 1731 853 1752 858 1752 962"/><polygon class="cls-28" points="1653 815 1645 811 1645 730 1653 733 1653 815"/><polygon class="cls-28" points="1795 852 1781 849 1781 762 1795 767 1795 852"/><rect class="cls-29" x="1834" y="779" width="18" height="87"/><polygon class="cls-28" points="1445 880 1434 877 1434 791 1445 794 1445 880"/><polygon class="cls-31" points="1578 1080 1549 1080 1549 1067 1578 1072 1578 1080"/><rect class="cls-29" x="1421" y="1039" width="12" height="42"/><polygon class="cls-32" points="1920 903 1409 762 1409 749 1920 886 1920 903"/><polygon class="cls-32" points="1921 1035 1410 891 1410 871 1921 1008 1921 1035"/><polygon class="cls-32" points="1661 1080 1409 1016 1410 997 1720 1078 1661 1080"/><polygon class="cls-32" points="1920 660 1591 584 1409 645 1920 781 1920 660"/><line class="cls-23" x1="929.5" y1="916" x2="929.5" y2="931"/><line class="cls-23" x1="942.5" y1="914.5" x2="942.5" y2="933"/><line class="cls-23" x1="955.5" y1="914" x2="955.5" y2="933"/><line class="cls-23" x1="983.5" y1="917.5" x2="983.5" y2="929.5"/><line class="cls-23" x1="982.5" y1="924.5" x2="992.5" y2="924.5"/><polygon class="cls-26" points="584.42 829.8 163.01 773.96 187.72 451 609.12 506.84 584.42 829.8"/><polygon class="cls-33" points="153.92 466.63 186 448.82 159.75 773 151 773 153.92 466.63"/><line class="cls-23" x1="162.61" y1="481.4" x2="157.54" y2="772.21"/><line class="cls-23" x1="170.23" y1="476.38" x2="160.08" y2="775.55"/><line class="cls-23" x1="175.3" y1="474.71" x2="165.15" y2="773.88"/><path class="cls-2" d="M446.5,849.5c-1.55-.4-9.42,1.21-14-2-5-3.52-6.71-12-7-16-1.07-14.64,9-53,9-64.5,0-27.89,6.27-50.5,14-50.5s16,24.11,16,52c0,15.86,6.17,34.74,3,44"/><ellipse cx="453.5" cy="721" rx="6.5" ry="14"/><path class="cls-34" d="M383,916.14a14,14,0,0,0-27.61,4.61c.6,3.62,7.55,1.66,14.13.75C376.76,920.49,383.65,920.14,383,916.14Z"/><path class="cls-34" d="M493,902.14a14,14,0,0,0-27.61,4.61c.6,3.62,7.55,1.66,14.13.75C486.76,906.49,493.65,906.14,493,902.14Z"/><path class="cls-34" d="M467,905.14a14,14,0,0,0-27.61,4.61c.6,3.62,7.55,1.66,14.13.75C460.76,909.49,467.65,909.14,467,905.14Z"/><path class="cls-34" d="M439,909.14a14,14,0,0,0-27.61,4.61c.6,3.62,7.55,1.66,14.13.75C432.76,913.49,439.65,913.14,439,909.14Z"/><path class="cls-34" d="M411,913.14a14,14,0,0,0-27.61,4.61c.6,3.62,7.55,1.66,14.13.75C404.76,917.49,411.65,917.14,411,913.14Z"/></svg>
