<svg id="Layer_1" data-name="Layer 1" xmlns="http://www.w3.org/2000/svg" width="1030" height="910" viewBox="0 0 1030 910"><defs><style>.cls-1{fill:#b49400;}.cls-2{fill:#fff;}.cls-3{fill:#c7b299;}.cls-4{fill:#ffe89f;opacity:0.54;}</style></defs><title>vandt</title><rect class="cls-1" x="36" y="17" width="976" height="861"/><rect class="cls-2" x="528" y="28" width="474" height="833"/><rect class="cls-2" x="49" y="27" width="474" height="833"/><rect class="cls-3" x="555" y="389" width="427" height="148" rx="54.85" ry="54.85"/><rect class="cls-4" x="570" y="370" width="420" height="152" rx="57.28" ry="57.28"/><path d="M592,421.38a2.78,2.78,0,0,1,2.32-2.74,65,65,0,0,1,11.32-.94c7,0,12.16,2.14,15.43,6,3,3.42,4.82,8.66,4.82,15.07s-1.47,11.65-4.25,15.39c-3.76,5.24-9.88,7.91-16.82,7.91-.92,0-1.82,0-2.66-.09a2.81,2.81,0,0,0-3.06,2.77V487.5a2.78,2.78,0,0,1-2.78,2.78h-1.54A2.79,2.79,0,0,1,592,487.5Zm7.1,30.24a2.8,2.8,0,0,0,2.44,2.76,25.82,25.82,0,0,0,3.44.2c8.58,0,13.8-5.45,13.8-15.39,0-9.52-5.14-14.11-13-14.11a34.65,34.65,0,0,0-4.29.24,2.78,2.78,0,0,0-2.41,2.76Z"/><path d="M635.47,421.42a2.77,2.77,0,0,1,2.26-2.73,62.85,62.85,0,0,1,11.37-1c7.6,0,12.49,1.82,15.92,5.88,2.78,3.21,4.33,8.12,4.33,13.68,0,9.51-4.57,15.82-10.37,18.39V456c4.25,1.92,6.78,7,8.08,14.53,1.28,7.14,2.31,12.72,3.21,16.35a2.78,2.78,0,0,1-2.7,3.43H666a2.79,2.79,0,0,1-2.69-2.07c-.8-3-1.8-8.24-3-15.14-1.64-9.94-4.58-13.68-11-14h-3.91a2.77,2.77,0,0,0-2.78,2.78V487.5a2.79,2.79,0,0,1-2.78,2.78h-1.54a2.78,2.78,0,0,1-2.78-2.78Zm7.1,27.81a2.77,2.77,0,0,0,2.78,2.78h4.49c7.59,0,12.41-5.45,12.41-13.68,0-9.3-5.15-13.36-12.66-13.47a32.56,32.56,0,0,0-4.66.31,2.78,2.78,0,0,0-2.36,2.75Z"/><path d="M679.53,488.92l3.31-6.15a2.75,2.75,0,0,0-.08-2.77c-4-6.36-6.39-15.33-6.39-25.32,0-22.76,11-37.62,25.39-37.62A19.23,19.23,0,0,1,713,420.69a2.79,2.79,0,0,0,4.07-.88l1.51-2.71a2.78,2.78,0,0,1,4.28-.73l.08.07a2.77,2.77,0,0,1,.58,3.42l-3.18,5.78a2.74,2.74,0,0,0,.06,2.78c4,6.44,6.24,15.3,6.24,25.2,0,25.11-11.84,37.83-25,37.83a19.56,19.56,0,0,1-11.51-3.74,2.8,2.8,0,0,0-4.08.88l-1.68,3a2.78,2.78,0,0,1-4.43.57h0A2.79,2.79,0,0,1,679.53,488.92ZM711,431.4a2.8,2.8,0,0,0-.63-3.47,13,13,0,0,0-8.64-3.39c-12,0-18,14.54-18,29.61a45.19,45.19,0,0,0,4.08,19.35l.08-.11Zm-18.76,45.7a2.82,2.82,0,0,0,.56,3.4,12.07,12.07,0,0,0,8.77,3.47c11.51,0,17.88-13.79,17.88-30a43.88,43.88,0,0,0-3.84-18.71h-.24Z"/><path d="M747.45,488.17l-16.58-66.48a2.78,2.78,0,0,1,2.7-3.45h1.93a2.78,2.78,0,0,1,2.7,2.12l8.06,33.36c2.36,9.73,4.41,18.49,5.88,26.94h.16c1.55-8.34,3.84-17.42,6.29-26.83l8.76-33.52a2.78,2.78,0,0,1,2.69-2.07h1.81a2.78,2.78,0,0,1,2.68,3.51l-18.16,66.48a2.78,2.78,0,0,1-2.68,2h-3.55A2.78,2.78,0,0,1,747.45,488.17Z"/><path d="M805.86,421V487.5a2.79,2.79,0,0,1-2.78,2.78h-1.55a2.79,2.79,0,0,1-2.78-2.78V421a2.78,2.78,0,0,1,2.78-2.78h1.55A2.78,2.78,0,0,1,805.86,421Z"/><path d="M860.15,485.26a2.78,2.78,0,0,1-1.7,2.57,40.23,40.23,0,0,1-15.2,3.2c-8.33,0-15.19-2.78-20.57-9.52-4.74-6-7.68-15.6-7.68-26.83.08-21.48,11.35-37.19,29.8-37.19a29.75,29.75,0,0,1,11.67,2.25,2.77,2.77,0,0,1,1.58,3.15l-.47,2.07a2.79,2.79,0,0,1-3.77,2,24.06,24.06,0,0,0-9.17-1.63c-13.39,0-22.13,10.9-22.13,29,0,18.28,8.41,29.07,21.23,29.07a23.56,23.56,0,0,0,7.62-1.05,2.76,2.76,0,0,0,1.85-2.62v-17a2.78,2.78,0,0,0-2.78-2.78h-5.62a2.77,2.77,0,0,1-2.78-2.78v-1.92a2.77,2.77,0,0,1,2.78-2.78h12.56a2.77,2.77,0,0,1,2.78,2.78Z"/><path d="M896.72,456.5H880.89a2.79,2.79,0,0,0-2.78,2.78V479.7a2.79,2.79,0,0,0,2.78,2.78h18.28a2.77,2.77,0,0,1,2.78,2.78v2.24a2.78,2.78,0,0,1-2.78,2.78H873.79A2.78,2.78,0,0,1,871,487.5V421a2.77,2.77,0,0,1,2.78-2.78H898a2.78,2.78,0,0,1,2.78,2.78v2.24A2.79,2.79,0,0,1,898,426H880.89a2.78,2.78,0,0,0-2.78,2.78V446a2.79,2.79,0,0,0,2.78,2.78h15.83a2.77,2.77,0,0,1,2.78,2.78v2.13A2.77,2.77,0,0,1,896.72,456.5Z"/><path d="M911.18,487.5V421a2.77,2.77,0,0,1,2.78-2.78h3.23a2.77,2.77,0,0,1,2.5,1.57l16.88,34.87a230,230,0,0,1,9.88,23.41l.16-.1c-.65-9.62-.81-18.39-.81-29.61V421a2.77,2.77,0,0,1,2.78-2.78h1.13a2.77,2.77,0,0,1,2.78,2.78V487.5a2.78,2.78,0,0,1-2.78,2.78h-2.65a2.79,2.79,0,0,1-2.51-1.58l-16.72-35a254.56,254.56,0,0,1-10.28-24.05l-.25.11c.41,9.09.57,17.74.57,29.71v28a2.78,2.78,0,0,1-2.78,2.78H914A2.78,2.78,0,0,1,911.18,487.5Z"/><path d="M174.37,352.56H163v-4.07h27.74v4.07H179.26v33h-4.89Z"/><path d="M199.71,348.49v37.09h-4.83V348.49Z"/><path d="M208.16,348.49H213v33.08h16v4H208.16Z"/><path d="M234.39,348.49h4.83v33.08h16v4H234.39Z"/><path d="M264.29,385.58V369.84l-11.84-21.35H258l5.28,10.23c1.45,2.81,2.56,5.07,3.73,7.66h.11c1.05-2.43,2.33-4.85,3.78-7.66l5.39-10.23h5.5l-12.56,21.3v15.79Z"/><path d="M285.63,348.49h4.84v17.89h.16c1-1.44,2-2.76,2.95-4L305,348.49h6l-13.56,15.74,14.61,21.35h-5.72L294,367.37l-3.55,4.07v14.14h-4.84Z"/><path d="M315.76,348.49h4.83v17.89h.17c1-1.44,2-2.76,2.94-4l11.45-13.92h6l-13.56,15.74,14.62,21.35h-5.73l-12.33-18.21-3.56,4.07v14.14h-4.83Z"/><path d="M365.27,368.19H350.71v13.38h16.23v4H345.88V348.49h20.23v4h-15.4v11.72h14.56Z"/><path d="M65.7,441.42a17,17,0,0,1,5.81-1.08c3.93,0,6.72,2.24,8.58,6.48s3,10.26,3,18.67S82,480.92,80,485.7s-5.24,7.48-9.35,7.48a18.31,18.31,0,0,1-5-.62Zm2.74,46a7.42,7.42,0,0,0,2.76.38c5.84,0,9-8,9-22.06,0-12.26-2.79-20.05-8.57-20.05a6.76,6.76,0,0,0-3.2.69Z"/><path d="M89.35,440.73v30.78c0,11.64,2.1,16.58,4.93,16.58,3.14,0,5.15-5.09,5.15-16.58V440.73h2.76V471c0,16-3.42,22.53-8,22.53-4.33,0-7.6-6.1-7.6-22.22V440.73Z"/><path d="M124.54,468.34h-8.22v18.75h9.17v5.63H113.58v-52H125v5.63h-8.69v16.43h8.22Z"/><path d="M129,441.42a12.41,12.41,0,0,1,5.25-1.08c2.92,0,4.8,1.32,6.12,4.25a24.91,24.91,0,0,1,1.66,9.87c0,6.86-1.75,11.42-4,13.27V468c1.63,1.39,2.6,5.09,3.1,10.49.7,7.25,1.2,12.26,1.64,14.27H140c-.34-1.47-.82-5.94-1.41-12.42-.63-7.17-1.76-9.87-4.24-10.1h-2.58v22.52H129Zm2.73,23.68h2.8c2.92,0,4.77-3.93,4.77-9.87,0-6.71-2-9.64-4.87-9.72a5,5,0,0,0-2.7.62Z"/><path d="M156.1,492.72l-6.91-52h2.95l3.3,25.61c.91,7,1.69,13.34,2.26,19.44h.06c.6-6,1.48-12.58,2.42-19.36l3.58-25.69h2.92l-7.57,52Z"/><path d="M171.7,440.73v52H169v-52Z"/><path d="M176.47,440.73h2.74v46.36h9v5.63H176.47Z"/><path d="M191.29,441.42a17,17,0,0,1,5.81-1.08c3.93,0,6.72,2.24,8.57,6.48s3,10.26,3,18.67-1.07,15.43-3,20.21-5.24,7.48-9.36,7.48a18.23,18.23,0,0,1-5-.62Zm2.73,46a7.51,7.51,0,0,0,2.77.38c5.84,0,9-8,9-22.06,0-12.26-2.79-20.05-8.57-20.05a6.8,6.8,0,0,0-3.21.69Z"/><path d="M215.44,446.44H209v-5.71h15.67v5.71H218.2v46.28h-2.76Z"/><path d="M249.79,490.4a10.41,10.41,0,0,1-6.5,2.86c-3.21,0-5.84-2-7.92-6.87-1.82-4.32-3-11.26-3-19.36,0-15.5,4.37-26.84,11.46-26.84a7.12,7.12,0,0,1,5.28,2.39l-.66,5.48a6,6,0,0,0-4.68-2.24c-5.15,0-8.51,7.87-8.51,20.9,0,13.19,3.24,21,8.17,21a4.58,4.58,0,0,0,3.64-1.38V470.81h-4.3v-5.4h7Z"/><path d="M272.05,466.18c0,17.9-4.43,27.39-9.83,27.39-5.59,0-9.51-10.65-9.51-26.38,0-16.51,4.17-27.31,9.83-27.31S272.05,450.76,272.05,466.18Zm-16.42.85c0,11.11,2.45,21.06,6.75,21.06s6.78-9.8,6.78-21.6c0-10.33-2.2-21.13-6.75-21.13S255.63,455.62,255.63,467Z"/><path d="M275.59,441.42a17,17,0,0,1,5.81-1.08c3.93,0,6.72,2.24,8.58,6.48s3,10.26,3,18.67-1.07,15.43-3,20.21-5.24,7.48-9.35,7.48a18.31,18.31,0,0,1-5-.62Zm2.74,46a7.42,7.42,0,0,0,2.76.38c5.84,0,9-8,9-22.06,0-12.26-2.79-20.05-8.57-20.05a6.76,6.76,0,0,0-3.2.69Z"/><path d="M305.89,446.44h-6.43v-5.71h15.67v5.71h-6.47v46.28h-2.77Z"/><path d="M320.21,440.73v52h-2.73v-52Z"/><path d="M325,440.73h2.73v46.36h9.05v5.63H325Z"/><path d="M349.88,476.37l-2.2,16.35h-2.82l7.19-52h3.29l7.23,52h-2.92l-2.26-16.35Zm6.94-5.25-2.07-15c-.47-3.4-.79-6.48-1.1-9.49h-.06c-.32,3.08-.66,6.25-1.07,9.41l-2.07,15Z"/><path d="M367.28,446.44h-6.44v-5.71h15.67v5.71H370v46.28h-2.76Z"/><path d="M385.14,484.54c1.22,1.85,3,3.4,4.9,3.4,2.79,0,4.43-3.63,4.43-8.87,0-4.86-1.13-7.64-4-10.34-3.46-3-5.59-7.41-5.59-14.73,0-8.1,2.73-14.12,6.84-14.12a5.75,5.75,0,0,1,4.68,2.55l-.75,5.47c-.69-.92-2.1-2.46-4-2.46-2.89,0-4,4.24-4,7.79,0,4.85,1.29,7.25,4.21,10,3.58,3.4,5.4,7.64,5.4,15.28,0,8-2.42,15-7.41,15a6.91,6.91,0,0,1-5.4-3.32Z"/><path d="M401,440.73h2.73v46.36h9v5.63H401Z"/><path d="M419.24,476.37,417,492.72h-2.83l7.19-52h3.3l7.22,52H429l-2.26-16.35Zm6.94-5.25-2.08-15c-.47-3.4-.78-6.48-1.09-9.49h-.07c-.31,3.08-.66,6.25-1.06,9.41l-2.08,15Zm0-39.18c0,3.85-1.29,6.86-3.11,6.86S420,435.72,420,432s1.19-7,3.14-7S426.21,428.08,426.21,431.94Zm-4.65.07c0,1.93.6,3.94,1.51,3.94s1.51-1.85,1.51-4.09-.6-4.09-1.51-4.09S421.56,429.78,421.56,432Z"/><path d="M441.69,441.42a11.63,11.63,0,0,1,5-1.08c2.73,0,4.49,1.16,5.81,3.78,1.1,2,1.76,5.09,1.76,9.18,0,5-1.35,9.41-3.58,11.42v.15c2,1.24,4.36,5.33,4.36,13a26.78,26.78,0,0,1-1.79,10.41,7.38,7.38,0,0,1-7.32,4.86,13.36,13.36,0,0,1-4.23-.62Zm2.73,21.29h2.48c2.89,0,4.58-3.7,4.58-8.71,0-6.1-1.88-8.49-4.64-8.49a5.13,5.13,0,0,0-2.42.46Zm0,24.92a6.15,6.15,0,0,0,2.29.31c2.83,0,5.43-2.55,5.43-10.11,0-7.1-2.48-10-5.46-10h-2.26Z"/><path d="M458.29,493l1.95-6.79c-1.76-4.63-2.79-11.49-2.79-19.21,0-16.43,4.24-27.15,9.76-27.15,2,0,3.77,1.39,5.28,4.09l1.85-6.25L476,440.5l-1.95,6.63c1.76,4.71,2.73,11.49,2.73,19.13,0,18.13-4.55,27.31-9.61,27.31-2,0-3.86-1.47-5.37-4.17l-2,6.63Zm12.85-44.12c-1.07-2.24-2.39-3.63-4-3.63-4.61,0-6.94,10.49-6.94,21.37a57.88,57.88,0,0,0,1.57,14l0-.08Zm-8,35.55c1,2.4,2.26,3.71,4,3.71,4.43,0,6.88-9.95,6.88-21.68a56.48,56.48,0,0,0-1.48-13.5h-.09Z"/><path d="M480.34,441.42a12.4,12.4,0,0,1,5.24-1.08c2.92,0,4.8,1.32,6.12,4.25a24.9,24.9,0,0,1,1.67,9.87c0,6.86-1.76,11.42-4,13.27V468c1.63,1.39,2.61,5.09,3.11,10.49.69,7.25,1.19,12.26,1.63,14.27h-2.83c-.34-1.47-.81-5.94-1.41-12.42-.63-7.17-1.76-9.87-4.24-10.1h-2.57v22.52h-2.73Zm2.73,23.68h2.79c2.92,0,4.78-3.93,4.78-9.87,0-6.71-2-9.64-4.87-9.72a5,5,0,0,0-2.7.62Z"/><path d="M497.23,492.72v-52h3L507,467c1.57,6.1,2.8,11.57,3.8,16.89l.07-.07c-.26-6.94-.32-13.27-.32-21.37V440.73h2.58v52h-2.77l-6.72-26.38c-1.47-5.79-2.89-11.73-3.95-17.36l-.1.08c.16,6.56.22,12.8.22,21.44v22.22Z"/></svg>
